SplineFontDB: 3.2
FontName: AcariSans-ExtraLight
FullName: Acari Sans ExtraLight
FamilyName: Acari Sans ExtraLight
Weight: Extra-Light
Copyright: Copyright (c)2015, HK Grotesk Latin by Alfredo Marco Pradil (ammpradil@gmail.com) and HK Grotesk Cyrillic by Stefan Peev (http://www.contextbg.net/). HK Grotesk is a trademark of Alfredo Marco Pradil. Copyright (c) 2018-2023 The Acari Sans Project Authors (https://github.com/cssobral2013/acari-sans)
Version: 1.063; ttfautohint (v1.8.3)
ItalicAngle: 0
UnderlinePosition: -250
UnderlineWidth: 100
Ascent: 1600
Descent: 400
InvalidEm: 0
sfntRevision: 0x00011020
LayerCount: 2
Layer: 0 1 "Back" 1
Layer: 1 1 "Fore" 0
XUID: [1021 467 -1401554168 15490425]
StyleMap: 0x0040
FSType: 0
OS2Version: 4
OS2_WeightWidthSlopeOnly: 0
OS2_UseTypoMetrics: 1
CreationTime: 1480856841
ModificationTime: 1686780922
PfmFamily: 81
TTFWeight: 200
TTFWidth: 5
LineGap: 26
VLineGap: 0
Panose: 0 0 0 0 0 0 0 0 0 0
OS2TypoAscent: 1900
OS2TypoAOffset: 0
OS2TypoDescent: -487
OS2TypoDOffset: 0
OS2TypoLinegap: 26
OS2WinAscent: 1913
OS2WinAOffset: 0
OS2WinDescent: 500
OS2WinDOffset: 0
HheadAscent: 1900
HheadAOffset: 0
HheadDescent: -487
HheadDOffset: 0
OS2SubXSize: 1331
OS2SubYSize: 1228
OS2SubXOff: 0
OS2SubYOff: 153
OS2SupXSize: 1331
OS2SupYSize: 1228
OS2SupXOff: 0
OS2SupYOff: 716
OS2StrikeYSize: 82
OS2StrikeYPos: 599
OS2CapHeight: 1413
OS2XHeight: 1039
OS2Vendor: 'AMSP'
OS2CodePages: 20000197.00000000
OS2UnicodeRanges: 2000020f.00000001.00000000.00000000
Lookup: 1 0 0 "'aalt' Access All Alternates lookup 0" { "'aalt' Access All Alternates lookup 0 subtable"  } ['aalt' ('DFLT' <'dflt' > 'cyrl' <'BGR ' 'RUS ' 'SRB ' 'dflt' > 'latn' <'AZE ' 'CRT ' 'KAZ ' 'MOL ' 'ROM ' 'TAT ' 'TRK ' 'dflt' > ) ]
Lookup: 3 0 0 "'aalt' Access All Alternates lookup 1" { "'aalt' Access All Alternates lookup 1 subtable"  } ['aalt' ('DFLT' <'dflt' > 'cyrl' <'BGR ' 'RUS ' 'SRB ' 'dflt' > 'latn' <'AZE ' 'CRT ' 'KAZ ' 'MOL ' 'ROM ' 'TAT ' 'TRK ' 'dflt' > ) ]

StartChar: .notdef
Encoding: 65536 -1 0
Width: 748
GlyphClass: 1
Flags: W
LayerCount: 2
Fore
SplineSet
612 0 m 1,0,-1
 68 0 l 1,1,-1
 68 1365 l 1,2,-1
 612 1365 l 1,3,-1
 612 0 l 1,0,-1
544 68 m 1,4,-1
 544 1297 l 1,5,-1
 136 1297 l 1,6,-1
 136 68 l 1,7,-1
 544 68 l 1,4,-1
EndSplineSet
EndChar

StartChar: exclam
Encoding: 33 33 4
Width: 631
GlyphClass: 1
Flags: W
LayerCount: 2
Fore
SplineSet
355 364 m 1,0,-1
 275 364 l 1,1,-1
 247 1436 l 1,2,-1
 384 1436 l 1,3,-1
 355 364 l 1,0,-1
396 0 m 1,4,-1
 234 0 l 1,5,-1
 234 160 l 1,6,-1
 396 160 l 1,7,-1
 396 0 l 1,4,-1
EndSplineSet
EndChar

StartChar: quotedbl
Encoding: 34 34 5
Width: 891
GlyphClass: 1
Flags: W
LayerCount: 2
Fore
SplineSet
352 1037 m 1,0,-1
 253 1037 l 1,1,-1
 253 1413 l 1,2,-1
 352 1413 l 1,3,-1
 352 1037 l 1,0,-1
638 1037 m 1,4,-1
 535 1037 l 1,5,-1
 535 1413 l 1,6,-1
 638 1413 l 1,7,-1
 638 1037 l 1,4,-1
EndSplineSet
EndChar

StartChar: numbersign
Encoding: 35 35 6
Width: 1369
GlyphClass: 1
Flags: W
LayerCount: 2
Fore
SplineSet
803 0 m 1,0,-1
 718 0 l 1,1,-1
 811 438 l 1,2,-1
 454 438 l 1,3,-1
 364 0 l 1,4,-1
 277 0 l 1,5,-1
 368 450 l 1,6,-1
 124 450 l 1,7,-1
 124 534 l 1,8,-1
 386 534 l 1,9,-1
 458 903 l 1,10,-1
 206 903 l 1,11,-1
 206 978 l 1,12,-1
 476 978 l 1,13,-1
 570 1434 l 1,14,-1
 656 1434 l 1,15,-1
 560 995 l 1,16,-1
 917 995 l 1,17,-1
 1009 1434 l 1,18,-1
 1095 1434 l 1,19,-1
 1004 983 l 1,20,-1
 1247 983 l 1,21,-1
 1247 903 l 1,22,-1
 988 903 l 1,23,-1
 914 534 l 1,24,-1
 1164 534 l 1,25,-1
 1164 459 l 1,26,-1
 896 459 l 1,27,-1
 803 0 l 1,0,-1
827 534 m 1,28,-1
 901 903 l 1,29,-1
 546 903 l 1,30,-1
 470 534 l 1,31,-1
 827 534 l 1,28,-1
EndSplineSet
EndChar

StartChar: dollar
Encoding: 36 36 7
Width: 1112
GlyphClass: 1
Flags: W
LayerCount: 2
Fore
SplineSet
586 -247 m 1,0,-1
 523 -247 l 1,1,-1
 523 -12 l 1,2,3
 359 1 359 1 243.5 97 c 128,-1,4
 128 193 128 193 101 356 c 1,5,-1
 210 391 l 1,6,7
 221 294 221 294 272 227.5 c 128,-1,8
 323 161 323 161 402 128.5 c 128,-1,9
 481 96 481 96 571 96 c 0,10,11
 660 96 660 96 729.5 126 c 128,-1,12
 799 156 799 156 838.5 217.5 c 128,-1,13
 878 279 878 279 878 373 c 0,14,15
 878 516 878 516 720 607 c 0,16,17
 654 645 654 645 549 703 c 0,18,19
 431 768 431 768 358 810 c 0,20,21
 195 909 195 909 195 1082 c 0,22,23
 195 1225 195 1225 283.5 1317.5 c 128,-1,24
 372 1410 372 1410 523 1431 c 1,25,-1
 523 1660 l 1,26,-1
 586 1660 l 1,27,-1
 586 1432 l 1,28,29
 825 1417 825 1417 934 1216 c 1,30,-1
 849 1155 l 1,31,32
 800 1243 800 1243 722 1287 c 128,-1,33
 644 1331 644 1331 559 1331 c 0,34,35
 495 1331 495 1331 438 1302.5 c 128,-1,36
 381 1274 381 1274 346 1222 c 128,-1,37
 311 1170 311 1170 311 1100 c 0,38,39
 311 1038 311 1038 348.5 982.5 c 128,-1,40
 386 927 386 927 448 888 c 128,-1,41
 510 849 510 849 611 800 c 0,42,43
 831 692 831 692 906 613 c 0,44,45
 993 520 993 520 993 385 c 0,46,47
 993 267 993 267 940.5 178 c 128,-1,48
 888 89 888 89 797.5 38.5 c 128,-1,49
 707 -12 707 -12 586 -14 c 1,50,-1
 586 -247 l 1,0,-1
EndSplineSet
EndChar

StartChar: percent
Encoding: 37 37 8
Width: 1599
GlyphClass: 1
Flags: W
LayerCount: 2
Fore
SplineSet
388 823 m 0,0,1
 304 823 304 823 253 868.5 c 128,-1,2
 202 914 202 914 178.5 983.5 c 128,-1,3
 155 1053 155 1053 155 1126 c 0,4,5
 155 1244 155 1244 205 1331 c 0,6,7
 264 1436 264 1436 382 1436 c 0,8,9
 458 1436 458 1436 509.5 1391.5 c 128,-1,10
 561 1347 561 1347 587 1276.5 c 128,-1,11
 613 1206 613 1206 613 1127 c 0,12,13
 613 1052 613 1052 588.5 982 c 128,-1,14
 564 912 564 912 514.5 867.5 c 128,-1,15
 465 823 465 823 388 823 c 0,0,1
472 11 m 1,16,-1
 377 11 l 1,17,-1
 1115 1388 l 1,18,-1
 1208 1388 l 1,19,20
 1021 1039 1021 1039 841 701 c 128,-1,21
 661 363 661 363 472 11 c 1,16,-1
386 887 m 0,22,23
 452 887 452 887 494 952 c 128,-1,24
 536 1017 536 1017 536 1129 c 0,25,26
 536 1179 536 1179 521.5 1234.5 c 128,-1,27
 507 1290 507 1290 473.5 1329.5 c 128,-1,28
 440 1369 440 1369 382 1369 c 0,29,30
 325 1369 325 1369 291 1331 c 128,-1,31
 257 1293 257 1293 241.5 1237 c 128,-1,32
 226 1181 226 1181 226 1126 c 256,33,34
 226 1071 226 1071 241.5 1016.5 c 128,-1,35
 257 962 257 962 291.5 924.5 c 128,-1,36
 326 887 326 887 386 887 c 0,22,23
1219 8 m 0,37,38
 1136 8 1136 8 1085 52.5 c 128,-1,39
 1034 97 1034 97 1010.5 166.5 c 128,-1,40
 987 236 987 236 987 309 c 0,41,42
 987 497 987 497 1107 585 c 0,43,44
 1149 614 1149 614 1213 614 c 0,45,46
 1290 614 1290 614 1341.5 569.5 c 128,-1,47
 1393 525 1393 525 1419 454 c 128,-1,48
 1445 383 1445 383 1445 307 c 0,49,50
 1445 234 1445 234 1420.5 165 c 128,-1,51
 1396 96 1396 96 1346 52 c 128,-1,52
 1296 8 1296 8 1219 8 c 0,37,38
1217 73 m 0,53,54
 1281 73 1281 73 1325 136.5 c 128,-1,55
 1369 200 1369 200 1369 309 c 0,56,57
 1369 363 1369 363 1353.5 418.5 c 128,-1,58
 1338 474 1338 474 1303.5 510.5 c 128,-1,59
 1269 547 1269 547 1213 547 c 256,60,61
 1157 547 1157 547 1122.5 511 c 128,-1,62
 1088 475 1088 475 1073 420 c 128,-1,63
 1058 365 1058 365 1058 309 c 0,64,65
 1058 257 1058 257 1072 202.5 c 128,-1,66
 1086 148 1086 148 1121 110.5 c 128,-1,67
 1156 73 1156 73 1217 73 c 0,53,54
EndSplineSet
EndChar

StartChar: ampersand
Encoding: 38 38 9
Width: 1380
GlyphClass: 1
Flags: W
LayerCount: 2
Fore
SplineSet
1185 -45 m 1,0,-1
 980 198 l 1,1,2
 814 -20 814 -20 529 -20 c 0,3,4
 427 -20 427 -20 340.5 12.5 c 128,-1,5
 254 45 254 45 202 113.5 c 128,-1,6
 150 182 150 182 150 289 c 256,7,8
 150 396 150 396 196.5 477 c 128,-1,9
 243 558 243 558 323.5 626 c 128,-1,10
 404 694 404 694 511 764 c 1,11,12
 420 872 420 872 365.5 962 c 128,-1,13
 311 1052 311 1052 311 1134 c 0,14,15
 311 1223 311 1223 353 1290 c 128,-1,16
 395 1357 395 1357 467.5 1393.5 c 128,-1,17
 540 1430 540 1430 632 1430 c 0,18,19
 713 1430 713 1430 779 1393 c 128,-1,20
 845 1356 845 1356 884.5 1289 c 128,-1,21
 924 1222 924 1222 924 1133 c 0,22,23
 924 1047 924 1047 885 981.5 c 128,-1,24
 846 916 846 916 780 859.5 c 128,-1,25
 714 803 714 803 628 746 c 1,26,-1
 968 343 l 1,27,28
 1036 484 1036 484 1059 686 c 1,29,-1
 1144 676 l 1,30,31
 1120 438 1120 438 1027 273 c 1,32,-1
 1248 10 l 1,33,-1
 1185 -45 l 1,0,-1
577 808 m 1,34,35
 661 861 661 861 721.5 910.5 c 128,-1,36
 782 960 782 960 816 1014 c 128,-1,37
 850 1068 850 1068 850 1134 c 0,38,39
 850 1194 850 1194 818 1240.5 c 128,-1,40
 786 1287 786 1287 736.5 1313 c 128,-1,41
 687 1339 687 1339 634 1339 c 0,42,43
 534 1339 534 1339 463.5 1282 c 128,-1,44
 393 1225 393 1225 393 1132 c 0,45,46
 393 1014 393 1014 577 808 c 1,34,35
534 77 m 0,47,48
 788 77 788 77 923 265 c 1,49,-1
 559 699 l 1,50,51
 461 635 461 635 388 575.5 c 128,-1,52
 315 516 315 516 274 449.5 c 128,-1,53
 233 383 233 383 233 294 c 0,54,55
 233 218 233 218 275.5 170 c 128,-1,56
 318 122 318 122 386.5 99.5 c 128,-1,57
 455 77 455 77 534 77 c 0,47,48
EndSplineSet
EndChar

StartChar: quotesingle
Encoding: 39 39 10
Width: 605
GlyphClass: 1
Flags: W
LayerCount: 2
Fore
SplineSet
352 1065 m 1,0,-1
 253 1065 l 1,1,-1
 253 1442 l 1,2,-1
 352 1442 l 1,3,-1
 352 1065 l 1,0,-1
EndSplineSet
EndChar

StartChar: parenleft
Encoding: 40 40 11
Width: 558
GlyphClass: 1
Flags: W
LayerCount: 2
Fore
SplineSet
460 7 m 1,0,-1
 380 7 l 1,1,2
 272 133 272 133 207.5 339 c 128,-1,3
 143 545 143 545 143 705 c 0,4,5
 143 805 143 805 166 928 c 128,-1,6
 189 1051 189 1051 241.5 1174.5 c 128,-1,7
 294 1298 294 1298 379 1405 c 1,8,-1
 463 1405 l 1,9,10
 352 1252 352 1252 291.5 1067 c 128,-1,11
 231 882 231 882 231 702 c 0,12,13
 231 534 231 534 291.5 341 c 128,-1,14
 352 148 352 148 460 7 c 1,0,-1
EndSplineSet
EndChar

StartChar: parenright
Encoding: 41 41 12
Width: 557
GlyphClass: 1
Flags: W
LayerCount: 2
Fore
SplineSet
178 7 m 1,0,-1
 96 7 l 1,1,2
 201 149 201 149 263 345.5 c 128,-1,3
 325 542 325 542 325 705 c 0,4,5
 325 871 325 871 260 1065 c 128,-1,6
 195 1259 195 1259 94 1405 c 1,7,-1
 177 1405 l 1,8,9
 296 1256 296 1256 355 1064 c 128,-1,10
 414 872 414 872 414 707 c 0,11,12
 414 549 414 549 349.5 339.5 c 128,-1,13
 285 130 285 130 178 7 c 1,0,-1
EndSplineSet
EndChar

StartChar: asterisk
Encoding: 42 42 13
Width: 859
GlyphClass: 1
Flags: W
LayerCount: 2
Fore
SplineSet
558 861 m 1,0,-1
 427 1106 l 1,1,-1
 299 861 l 1,2,-1
 239 911 l 1,3,-1
 419 1127 l 1,4,-1
 160 1173 l 1,5,-1
 181 1256 l 1,6,-1
 424 1147 l 1,7,-1
 392 1413 l 1,8,-1
 465 1413 l 1,9,-1
 433 1147 l 1,10,-1
 675 1256 l 1,11,-1
 700 1172 l 1,12,-1
 439 1127 l 1,13,-1
 621 911 l 1,14,-1
 558 861 l 1,0,-1
EndSplineSet
EndChar

StartChar: plus
Encoding: 43 43 14
Width: 1276
GlyphClass: 1
Flags: W
LayerCount: 2
Fore
SplineSet
677 107 m 1,0,-1
 598 107 l 1,1,-1
 598 587 l 1,2,-1
 139 587 l 1,3,-1
 139 666 l 1,4,-1
 598 666 l 1,5,-1
 598 1142 l 1,6,-1
 677 1142 l 1,7,-1
 677 666 l 1,8,-1
 1136 666 l 1,9,-1
 1136 587 l 1,10,-1
 677 587 l 1,11,-1
 677 107 l 1,0,-1
EndSplineSet
EndChar

StartChar: comma
Encoding: 44 44 15
Width: 600
GlyphClass: 1
Flags: W
LayerCount: 2
Fore
SplineSet
207 -335 m 1,0,-1
 149 -335 l 1,1,-1
 294 259 l 1,2,-1
 446 259 l 1,3,-1
 207 -335 l 1,0,-1
EndSplineSet
EndChar

StartChar: hyphen
Encoding: 45 45 16
Width: 826
GlyphClass: 1
Flags: W
LayerCount: 2
Fore
SplineSet
654 610 m 1,0,-1
 173 610 l 1,1,-1
 173 689 l 1,2,-1
 654 689 l 1,3,-1
 654 610 l 1,0,-1
EndSplineSet
EndChar

StartChar: period
Encoding: 46 46 17
Width: 600
GlyphClass: 1
Flags: W
LayerCount: 2
Fore
SplineSet
386 0 m 1,0,-1
 213 0 l 1,1,-1
 213 160 l 1,2,-1
 386 160 l 1,3,-1
 386 0 l 1,0,-1
EndSplineSet
EndChar

StartChar: slash
Encoding: 47 47 18
Width: 928
GlyphClass: 1
Flags: W
LayerCount: 2
Fore
SplineSet
152 -432 m 1,0,-1
 34 -432 l 1,1,-1
 778 1517 l 1,2,-1
 893 1517 l 1,3,-1
 152 -432 l 1,0,-1
EndSplineSet
EndChar

StartChar: zero
Encoding: 48 48 19
Width: 1200
GlyphClass: 1
Flags: W
LayerCount: 2
Fore
SplineSet
608 -20 m 0,0,1
 473 -20 473 -20 377 44 c 128,-1,2
 281 108 281 108 220 213 c 128,-1,3
 159 318 159 318 130.5 447 c 128,-1,4
 102 576 102 576 102 707 c 0,5,6
 102 843 102 843 134 984.5 c 128,-1,7
 166 1126 166 1126 239.5 1238.5 c 128,-1,8
 313 1351 313 1351 435 1406 c 0,9,10
 505 1436 505 1436 594 1436 c 0,11,12
 714 1436 714 1436 807 1377.5 c 128,-1,13
 900 1319 900 1319 964.5 1217 c 128,-1,14
 1029 1115 1029 1115 1063 982 c 128,-1,15
 1097 849 1097 849 1097 702 c 0,16,17
 1097 497 1097 497 1028 317.5 c 128,-1,18
 959 138 959 138 816 40 c 0,19,20
 725 -20 725 -20 608 -20 c 0,0,1
602 79 m 0,21,22
 792 79 792 79 891 289 c 0,23,24
 974 466 974 466 974 709 c 0,25,26
 974 788 974 788 962 874 c 128,-1,27
 950 960 950 960 923.5 1041 c 128,-1,28
 897 1122 897 1122 852.5 1188 c 128,-1,29
 808 1254 808 1254 744 1293 c 128,-1,30
 680 1332 680 1332 594 1332 c 0,31,32
 399 1332 399 1332 297 1125 c 0,33,34
 211 951 211 951 211 707 c 0,35,36
 211 466 211 466 297 288 c 0,37,38
 397 79 397 79 602 79 c 0,21,22
EndSplineSet
Substitution2: "'subs' Subscript lookup 22 subtable" uni2080
Substitution2: "'sinf' Scientific Inferiors lookup 21 subtable" uni2080
Substitution2: "'sups' Superscript lookup 19 subtable" uni2070
Substitution2: "'aalt' Access All Alternates lookup 0 subtable" uni2070
EndChar

StartChar: one
Encoding: 49 49 20
Width: 1200
GlyphClass: 1
Flags: W
LayerCount: 2
Fore
SplineSet
737 0 m 1,0,-1
 623 0 l 1,1,-1
 623 1114 l 1,2,-1
 241 1114 l 1,3,-1
 241 1205 l 1,4,-1
 449 1205 l 2,5,6
 532 1205 532 1205 584.5 1255.5 c 128,-1,7
 637 1306 637 1306 637 1394 c 2,8,-1
 637 1413 l 1,9,-1
 737 1413 l 1,10,-1
 737 0 l 1,0,-1
EndSplineSet
Substitution2: "'subs' Subscript lookup 22 subtable" uni2081
Substitution2: "'sinf' Scientific Inferiors lookup 21 subtable" uni2081
Substitution2: "'sups' Superscript lookup 19 subtable" onesuperior
Substitution2: "'aalt' Access All Alternates lookup 0 subtable" onesuperior
EndChar

StartChar: two
Encoding: 50 50 21
Width: 1200
GlyphClass: 1
Flags: W
LayerCount: 2
Fore
SplineSet
1058 0 m 1,0,-1
 123 0 l 1,1,-1
 123 114 l 1,2,3
 315 238 315 238 409.5 321 c 128,-1,4
 504 404 504 404 578 489 c 1,5,6
 718 637 718 637 796.5 763 c 128,-1,7
 875 889 875 889 875 1036 c 0,8,9
 875 1134 875 1134 840 1200 c 128,-1,10
 805 1266 805 1266 739.5 1299.5 c 128,-1,11
 674 1333 674 1333 598 1333 c 0,12,13
 466 1333 466 1333 384.5 1238 c 128,-1,14
 303 1143 303 1143 301 976 c 1,15,-1
 199 989 l 1,16,17
 199 1156 199 1156 298 1294 c 128,-1,18
 397 1432 397 1432 591 1432 c 0,19,20
 776 1432 776 1432 883 1325.5 c 128,-1,21
 990 1219 990 1219 990 1036 c 0,22,23
 990 872 990 872 905 730.5 c 128,-1,24
 820 589 820 589 649 419 c 0,25,26
 518 286 518 286 442 225.5 c 128,-1,27
 366 165 366 165 278 111 c 0,28,29
 265 104 265 104 248 90 c 1,30,-1
 1058 90 l 1,31,-1
 1058 0 l 1,0,-1
EndSplineSet
Substitution2: "'subs' Subscript lookup 22 subtable" uni2082
Substitution2: "'sinf' Scientific Inferiors lookup 21 subtable" uni2082
Substitution2: "'sups' Superscript lookup 19 subtable" twosuperior
Substitution2: "'aalt' Access All Alternates lookup 0 subtable" twosuperior
EndChar

StartChar: three
Encoding: 51 51 22
Width: 1200
GlyphClass: 1
Flags: W
LayerCount: 2
Fore
SplineSet
576 -20 m 0,0,1
 452 -20 452 -20 348.5 23 c 128,-1,2
 245 66 245 66 183 154 c 128,-1,3
 121 242 121 242 121 376 c 1,4,5
 144 380 144 380 171 382.5 c 128,-1,6
 198 385 198 385 220 388 c 1,7,8
 220 290 220 290 269 219 c 128,-1,9
 318 148 318 148 399 110.5 c 128,-1,10
 480 73 480 73 576 73 c 0,11,12
 671 73 671 73 759.5 117 c 128,-1,13
 848 161 848 161 899 254 c 0,14,15
 930 314 930 314 930 393 c 0,16,17
 930 494 930 494 884 562 c 128,-1,18
 838 630 838 630 761 664.5 c 128,-1,19
 684 699 684 699 592 699 c 2,20,-1
 521 699 l 1,21,-1
 521 801 l 1,22,-1
 592 801 l 2,23,24
 662 801 662 801 721 829 c 128,-1,25
 780 857 780 857 816 915 c 128,-1,26
 852 973 852 973 852 1064 c 0,27,28
 852 1149 852 1149 812.5 1210.5 c 128,-1,29
 773 1272 773 1272 709 1305 c 128,-1,30
 645 1338 645 1338 572 1338 c 0,31,32
 448 1338 448 1338 367.5 1260.5 c 128,-1,33
 287 1183 287 1183 287 1072 c 1,34,-1
 187 1087 l 1,35,36
 187 1245 187 1245 295 1339.5 c 128,-1,37
 403 1434 403 1434 572 1434 c 0,38,39
 672 1434 672 1434 759.5 1393 c 128,-1,40
 847 1352 847 1352 901 1272 c 128,-1,41
 955 1192 955 1192 955 1078 c 0,42,43
 955 973 955 973 906.5 891.5 c 128,-1,44
 858 810 858 810 765 759 c 1,45,46
 1021 680 1021 680 1030 393 c 1,47,48
 1030 258 1030 258 971 166 c 128,-1,49
 912 74 912 74 810 27 c 128,-1,50
 708 -20 708 -20 576 -20 c 0,0,1
EndSplineSet
Substitution2: "'subs' Subscript lookup 22 subtable" uni2083
Substitution2: "'sinf' Scientific Inferiors lookup 21 subtable" uni2083
Substitution2: "'sups' Superscript lookup 19 subtable" threesuperior
Substitution2: "'aalt' Access All Alternates lookup 0 subtable" threesuperior
EndChar

StartChar: four
Encoding: 52 52 23
Width: 1200
GlyphClass: 1
Flags: W
LayerCount: 2
Fore
SplineSet
852 0 m 1,0,-1
 741 0 l 1,1,-1
 741 403 l 1,2,-1
 86 403 l 1,3,-1
 86 466 l 1,4,-1
 743 1413 l 1,5,-1
 852 1413 l 1,6,-1
 852 493 l 1,7,-1
 1077 493 l 1,8,-1
 1077 403 l 1,9,-1
 852 403 l 1,10,-1
 852 0 l 1,0,-1
741 493 m 1,11,-1
 741 1245 l 1,12,-1
 208 493 l 1,13,-1
 741 493 l 1,11,-1
EndSplineSet
Substitution2: "'subs' Subscript lookup 22 subtable" uni2084
Substitution2: "'sinf' Scientific Inferiors lookup 21 subtable" uni2084
Substitution2: "'sups' Superscript lookup 19 subtable" uni2074
Substitution2: "'aalt' Access All Alternates lookup 0 subtable" uni2074
EndChar

StartChar: five
Encoding: 53 53 24
Width: 1200
GlyphClass: 1
Flags: W
LayerCount: 2
Fore
SplineSet
599 -20 m 0,0,1
 480 -20 480 -20 390 29 c 128,-1,2
 300 78 300 78 240.5 162 c 128,-1,3
 181 246 181 246 157 353 c 1,4,5
 181 363 181 363 207 372.5 c 128,-1,6
 233 382 233 382 256 392 c 1,7,8
 270 312 270 312 312.5 238.5 c 128,-1,9
 355 165 355 165 419.5 122 c 128,-1,10
 484 79 484 79 594 79 c 0,11,12
 705 79 705 79 785.5 133 c 128,-1,13
 866 187 866 187 904 269.5 c 128,-1,14
 942 352 942 352 942 453 c 0,15,16
 942 547 942 547 906 630 c 128,-1,17
 870 713 870 713 793.5 760 c 128,-1,18
 717 807 717 807 612 807 c 0,19,20
 508 807 508 807 428 765.5 c 128,-1,21
 348 724 348 724 303 651 c 1,22,-1
 209 716 l 1,23,-1
 326 1413 l 1,24,-1
 986 1413 l 1,25,-1
 986 1319 l 1,26,-1
 412 1319 l 1,27,-1
 323 770 l 1,28,29
 436 901 436 901 626 901 c 0,30,31
 758 901 758 901 852.5 839 c 128,-1,32
 947 777 947 777 998.5 675.5 c 128,-1,33
 1050 574 1050 574 1050 453 c 0,34,35
 1050 324 1050 324 993 217 c 128,-1,36
 936 110 936 110 834.5 45 c 128,-1,37
 733 -20 733 -20 599 -20 c 0,0,1
EndSplineSet
Substitution2: "'subs' Subscript lookup 22 subtable" uni2085
Substitution2: "'sinf' Scientific Inferiors lookup 21 subtable" uni2085
Substitution2: "'sups' Superscript lookup 19 subtable" uni2075
Substitution2: "'aalt' Access All Alternates lookup 0 subtable" uni2075
EndChar

StartChar: six
Encoding: 54 54 25
Width: 1200
GlyphClass: 1
Flags: W
LayerCount: 2
Fore
SplineSet
589 -20 m 0,0,1
 470 -20 470 -20 369.5 41 c 128,-1,2
 269 102 269 102 207.5 207 c 128,-1,3
 146 312 146 312 146 441 c 0,4,5
 146 573 146 573 209 683 c 2,6,-1
 620 1414 l 1,7,-1
 733 1414 l 1,8,-1
 422 860 l 1,9,10
 504 881 504 881 591 881 c 0,11,12
 745 881 745 881 836.5 824 c 128,-1,13
 928 767 928 767 983.5 667.5 c 128,-1,14
 1039 568 1039 568 1039 442 c 0,15,16
 1039 323 1039 323 983 217 c 128,-1,17
 927 111 927 111 826 45.5 c 128,-1,18
 725 -20 725 -20 589 -20 c 0,0,1
591 78 m 0,19,20
 688 78 688 78 765 129 c 128,-1,21
 842 180 842 180 887 262.5 c 128,-1,22
 932 345 932 345 932 440 c 0,23,24
 932 536 932 536 887.5 618.5 c 128,-1,25
 843 701 843 701 766.5 741.5 c 128,-1,26
 690 782 690 782 591 782 c 0,27,28
 499 782 499 782 422 744 c 128,-1,29
 345 706 345 706 299.5 624 c 128,-1,30
 254 542 254 542 254 440 c 0,31,32
 254 345 254 345 299 262.5 c 128,-1,33
 344 180 344 180 420.5 129 c 128,-1,34
 497 78 497 78 591 78 c 0,19,20
EndSplineSet
Substitution2: "'subs' Subscript lookup 22 subtable" uni2086
Substitution2: "'sinf' Scientific Inferiors lookup 21 subtable" uni2086
Substitution2: "'sups' Superscript lookup 19 subtable" uni2076
Substitution2: "'aalt' Access All Alternates lookup 0 subtable" uni2076
EndChar

StartChar: seven
Encoding: 55 55 26
Width: 1200
GlyphClass: 1
Flags: W
LayerCount: 2
Fore
SplineSet
441 0 m 1,0,-1
 315 0 l 1,1,-1
 921 1318 l 1,2,-1
 141 1318 l 1,3,-1
 141 1413 l 1,4,-1
 1044 1413 l 1,5,-1
 1044 1360 l 1,6,-1
 441 0 l 1,0,-1
EndSplineSet
Substitution2: "'subs' Subscript lookup 22 subtable" uni2087
Substitution2: "'sinf' Scientific Inferiors lookup 21 subtable" uni2087
Substitution2: "'sups' Superscript lookup 19 subtable" uni2077
Substitution2: "'aalt' Access All Alternates lookup 0 subtable" uni2077
EndChar

StartChar: eight
Encoding: 56 56 27
Width: 1200
GlyphClass: 1
Flags: W
LayerCount: 2
Fore
SplineSet
600 -20 m 0,0,1
 462 -20 462 -20 350 35 c 128,-1,2
 238 90 238 90 180 206 c 0,3,4
 144 281 144 281 144 381 c 0,5,6
 144 655 144 655 417 762 c 1,7,8
 320 810 320 810 268 892.5 c 128,-1,9
 216 975 216 975 216 1080 c 0,10,11
 216 1190 216 1190 267.5 1270 c 128,-1,12
 319 1350 319 1350 406.5 1392 c 128,-1,13
 494 1434 494 1434 602 1434 c 0,14,15
 704 1434 704 1434 790 1393.5 c 128,-1,16
 876 1353 876 1353 928.5 1273.5 c 128,-1,17
 981 1194 981 1194 981 1080 c 0,18,19
 981 970 981 970 930 889.5 c 128,-1,20
 879 809 879 809 785 762 c 1,21,22
 915 712 915 712 984 614 c 128,-1,23
 1053 516 1053 516 1053 381 c 0,24,25
 1053 249 1053 249 993 160 c 128,-1,26
 933 71 933 71 830.5 25.5 c 128,-1,27
 728 -20 728 -20 600 -20 c 0,0,1
606 789 m 0,28,29
 672 789 672 789 734.5 819.5 c 128,-1,30
 797 850 797 850 838 910.5 c 128,-1,31
 879 971 879 971 879 1061 c 0,32,33
 879 1181 879 1181 803.5 1260 c 128,-1,34
 728 1339 728 1339 604 1339 c 0,35,36
 530 1339 530 1339 467.5 1306.5 c 128,-1,37
 405 1274 405 1274 367 1214.5 c 128,-1,38
 329 1155 329 1155 329 1076 c 0,39,40
 329 948 329 948 404 868.5 c 128,-1,41
 479 789 479 789 606 789 c 0,28,29
600 68 m 0,42,43
 732 68 732 68 829 145 c 0,44,45
 939 233 939 233 939 393 c 0,46,47
 939 496 939 496 891 568 c 128,-1,48
 843 640 843 640 765 678 c 128,-1,49
 687 716 687 716 600 716 c 0,50,51
 505 716 505 716 426.5 678 c 128,-1,52
 348 640 348 640 300.5 567.5 c 128,-1,53
 253 495 253 495 253 393 c 0,54,55
 253 286 253 286 302.5 213.5 c 128,-1,56
 352 141 352 141 431 104.5 c 128,-1,57
 510 68 510 68 600 68 c 0,42,43
EndSplineSet
Substitution2: "'subs' Subscript lookup 22 subtable" uni2088
Substitution2: "'sinf' Scientific Inferiors lookup 21 subtable" uni2088
Substitution2: "'sups' Superscript lookup 19 subtable" uni2078
Substitution2: "'aalt' Access All Alternates lookup 0 subtable" uni2078
EndChar

StartChar: nine
Encoding: 57 57 28
Width: 1200
GlyphClass: 1
Flags: W
LayerCount: 2
Fore
SplineSet
565 0 m 1,0,-1
 452 0 l 1,1,-1
 763 554 l 1,2,3
 681 533 681 533 594 533 c 0,4,5
 440 533 440 533 348.5 590 c 128,-1,6
 257 647 257 647 201.5 746.5 c 128,-1,7
 146 846 146 846 146 972 c 0,8,9
 146 1091 146 1091 202 1197 c 128,-1,10
 258 1303 258 1303 359 1368.5 c 128,-1,11
 460 1434 460 1434 596 1434 c 0,12,13
 715 1434 715 1434 815.5 1373 c 128,-1,14
 916 1312 916 1312 977.5 1207 c 128,-1,15
 1039 1102 1039 1102 1039 973 c 0,16,17
 1039 841 1039 841 976 731 c 2,18,-1
 565 0 l 1,0,-1
594 632 m 0,19,20
 686 632 686 632 763 670 c 128,-1,21
 840 708 840 708 885.5 790 c 128,-1,22
 931 872 931 872 931 974 c 0,23,24
 931 1069 931 1069 886 1151.5 c 128,-1,25
 841 1234 841 1234 764.5 1285 c 128,-1,26
 688 1336 688 1336 594 1336 c 0,27,28
 497 1336 497 1336 420 1285 c 128,-1,29
 343 1234 343 1234 298 1151.5 c 128,-1,30
 253 1069 253 1069 253 974 c 0,31,32
 253 878 253 878 297.5 795.5 c 128,-1,33
 342 713 342 713 418.5 672.5 c 128,-1,34
 495 632 495 632 594 632 c 0,19,20
EndSplineSet
Substitution2: "'subs' Subscript lookup 22 subtable" uni2089
Substitution2: "'sinf' Scientific Inferiors lookup 21 subtable" uni2089
Substitution2: "'sups' Superscript lookup 19 subtable" uni2079
Substitution2: "'aalt' Access All Alternates lookup 0 subtable" uni2079
EndChar

StartChar: colon
Encoding: 58 58 29
Width: 600
GlyphClass: 1
Flags: W
LayerCount: 2
Fore
SplineSet
381 792 m 1,0,-1
 219 792 l 1,1,-1
 219 952 l 1,2,-1
 381 952 l 1,3,-1
 381 792 l 1,0,-1
381 0 m 1,4,-1
 219 0 l 1,5,-1
 219 160 l 1,6,-1
 381 160 l 1,7,-1
 381 0 l 1,4,-1
EndSplineSet
EndChar

StartChar: semicolon
Encoding: 59 59 30
Width: 600
GlyphClass: 1
Flags: W
LayerCount: 2
Fore
SplineSet
408 792 m 1,0,-1
 246 792 l 1,1,-1
 246 952 l 1,2,-1
 408 952 l 1,3,-1
 408 792 l 1,0,-1
173 -335 m 1,4,-1
 115 -335 l 1,5,-1
 260 259 l 1,6,-1
 412 259 l 1,7,-1
 173 -335 l 1,4,-1
EndSplineSet
EndChar

StartChar: less
Encoding: 60 60 31
Width: 1206
GlyphClass: 1
Flags: W
LayerCount: 2
Fore
SplineSet
992 179 m 1,0,-1
 133 674 l 1,1,-1
 992 1169 l 1,2,-1
 1044 1081 l 1,3,-1
 312 674 l 1,4,-1
 1044 266 l 1,5,-1
 992 179 l 1,0,-1
EndSplineSet
EndChar

StartChar: equal
Encoding: 61 61 32
Width: 1266
GlyphClass: 1
Flags: W
LayerCount: 2
Fore
SplineSet
996 786 m 1,0,-1
 269 786 l 1,1,-1
 269 890 l 1,2,-1
 996 890 l 1,3,-1
 996 786 l 1,0,-1
996 453 m 1,4,-1
 269 453 l 1,5,-1
 269 555 l 1,6,-1
 996 555 l 1,7,-1
 996 453 l 1,4,-1
EndSplineSet
EndChar

StartChar: greater
Encoding: 62 62 33
Width: 1206
GlyphClass: 1
Flags: W
LayerCount: 2
Fore
SplineSet
213 179 m 1,0,-1
 163 266 l 1,1,-1
 894 674 l 1,2,-1
 163 1081 l 1,3,-1
 213 1169 l 1,4,-1
 1073 674 l 1,5,-1
 213 179 l 1,0,-1
EndSplineSet
EndChar

StartChar: question
Encoding: 63 63 34
Width: 1034
GlyphClass: 1
Flags: W
LayerCount: 2
Fore
SplineSet
560 360 m 1,0,-1
 457 360 l 1,1,-1
 457 620 l 2,2,3
 457 669 457 669 468 701 c 0,4,5
 487 758 487 758 567 808 c 2,6,-1
 666 867 l 2,7,8
 697 885 697 885 721 904 c 0,9,10
 793 961 793 961 795 1088 c 0,11,12
 795 1204 795 1204 716.5 1270 c 128,-1,13
 638 1336 638 1336 510 1336 c 0,14,15
 399 1336 399 1336 315 1271 c 0,16,17
 224 1201 224 1201 224 1095 c 1,18,-1
 114 1095 l 1,19,20
 114 1166 114 1166 146 1229 c 128,-1,21
 178 1292 178 1292 230 1338 c 128,-1,22
 282 1384 282 1384 353 1409 c 128,-1,23
 424 1434 424 1434 502 1434 c 0,24,25
 677 1434 677 1434 789.5 1340 c 128,-1,26
 902 1246 902 1246 902 1085 c 0,27,28
 902 969 902 969 854 908 c 0,29,30
 811 852 811 852 714 802 c 0,31,32
 670 780 670 780 619 742 c 0,33,34
 560 693 560 693 560 618 c 2,35,-1
 560 360 l 1,0,-1
593 0 m 1,36,-1
 431 0 l 1,37,-1
 431 160 l 1,38,-1
 593 160 l 1,39,-1
 593 0 l 1,36,-1
EndSplineSet
EndChar

StartChar: at
Encoding: 64 64 35
Width: 2097
GlyphClass: 1
Flags: W
LayerCount: 2
Fore
SplineSet
1041 -349 m 0,0,1
 863 -349 863 -349 706 -291 c 128,-1,2
 549 -233 549 -233 430.5 -122.5 c 128,-1,3
 312 -12 312 -12 243 148 c 128,-1,4
 174 308 174 308 174 512 c 0,5,6
 174 640 174 640 202.5 757.5 c 128,-1,7
 231 875 231 875 285 978 c 0,8,9
 392 1185 392 1185 595 1308.5 c 128,-1,10
 798 1432 798 1432 1063 1432 c 0,11,12
 1310 1432 1310 1432 1507 1320.5 c 128,-1,13
 1704 1209 1704 1209 1813 1016 c 0,14,15
 1927 812 1927 812 1927 565 c 0,16,17
 1927 308 1927 308 1819 142 c 0,18,19
 1700 -43 1700 -43 1489 -43 c 0,20,21
 1365 -43 1365 -43 1294.5 17.5 c 128,-1,22
 1224 78 1224 78 1224 180 c 0,23,24
 1224 205 1224 205 1233 256 c 1,25,26
 1170 166 1170 166 1081.5 121 c 128,-1,27
 993 76 993 76 898 76 c 0,28,29
 753 76 753 76 675 178.5 c 128,-1,30
 597 281 597 281 597 438 c 0,31,32
 597 572 597 572 652 706 c 0,33,34
 712 850 712 850 808 932 c 0,35,36
 914 1026 914 1026 1048 1026 c 0,37,38
 1152 1026 1152 1026 1229 971 c 1,39,40
 1305 911 1305 911 1322 800 c 1,41,-1
 1356 977 l 1,42,-1
 1481 977 l 1,43,-1
 1470 925 l 1,44,45
 1387 577 1387 577 1359 450 c 0,46,47
 1336 348 1336 348 1336 245 c 0,48,49
 1336 99 1336 99 1435 86 c 1,50,-1
 1478 83 l 1,51,52
 1648 83 1648 83 1734 234 c 0,53,54
 1809 364 1809 364 1809 567 c 0,55,56
 1809 727 1809 727 1755 864 c 128,-1,57
 1701 1001 1701 1001 1603 1102 c 128,-1,58
 1505 1203 1505 1203 1367.5 1260.5 c 128,-1,59
 1230 1318 1230 1318 1062 1318 c 0,60,61
 889 1318 889 1318 747 1257 c 128,-1,62
 605 1196 605 1196 504 1089 c 128,-1,63
 403 982 403 982 347.5 835 c 128,-1,64
 292 688 292 688 292 516 c 0,65,66
 292 343 292 343 349 206 c 128,-1,67
 406 69 406 69 507 -27 c 128,-1,68
 608 -123 608 -123 745.5 -174 c 128,-1,69
 883 -225 883 -225 1043 -225 c 0,70,71
 1173 -225 1173 -225 1293 -186 c 1,72,73
 1303 -214 1303 -214 1315 -243 c 2,74,-1
 1338 -299 l 1,75,76
 1194 -349 1194 -349 1041 -349 c 0,0,1
917 200 m 0,77,78
 1003 200 1003 200 1071 242.5 c 128,-1,79
 1139 285 1139 285 1185 354.5 c 128,-1,80
 1231 424 1231 424 1255.5 505.5 c 128,-1,81
 1280 587 1280 587 1280 667 c 0,82,83
 1280 737 1280 737 1259 790.5 c 128,-1,84
 1238 844 1238 844 1192 873.5 c 128,-1,85
 1146 903 1146 903 1073 903 c 0,86,87
 986 903 986 903 918.5 860.5 c 128,-1,88
 851 818 851 818 804.5 748.5 c 128,-1,89
 758 679 758 679 733.5 597.5 c 128,-1,90
 709 516 709 516 709 437 c 0,91,92
 709 200 709 200 917 200 c 0,77,78
EndSplineSet
EndChar

StartChar: A
Encoding: 65 65 36
Width: 1295
GlyphClass: 1
Flags: W
LayerCount: 2
Fore
SplineSet
1208 0 m 1,0,-1
 1085 0 l 1,1,-1
 978 308 l 1,2,-1
 320 308 l 1,3,-1
 213 0 l 1,4,-1
 88 0 l 1,5,-1
 604 1413 l 1,6,-1
 694 1413 l 1,7,-1
 1208 0 l 1,0,-1
940 419 m 1,8,-1
 650 1247 l 1,9,-1
 358 419 l 1,10,-1
 940 419 l 1,8,-1
EndSplineSet
Substitution2: "Single Substitution lookup 3 subtable" ordfeminine
Substitution2: "Single Substitution lookup 2 subtable" ordfeminine
Position2: "'cpsp' Capital Spacing lookup 0 subtable" dx=5 dy=0 dh=10 dv=0
EndChar

StartChar: B
Encoding: 66 66 37
Width: 1236
GlyphClass: 1
Flags: W
LayerCount: 2
Fore
SplineSet
656 0 m 2,0,-1
 228 0 l 1,1,-1
 228 1413 l 1,2,-1
 578 1413 l 2,3,4
 766 1413 766 1413 888 1337 c 0,5,6
 1029 1251 1029 1251 1029 1078 c 0,7,8
 1029 955 1029 955 979 878 c 128,-1,9
 929 801 929 801 832 744 c 1,10,11
 970 682 970 682 1034.5 596 c 128,-1,12
 1099 510 1099 510 1099 363 c 0,13,14
 1099 227 1099 227 1039.5 148 c 128,-1,15
 980 69 980 69 879.5 34.5 c 128,-1,16
 779 0 779 0 656 0 c 2,0,-1
568 767 m 2,17,18
 651 767 651 767 726.5 795 c 128,-1,19
 802 823 802 823 850 886 c 128,-1,20
 898 949 898 949 898 1055 c 0,21,22
 898 1153 898 1153 858.5 1209 c 128,-1,23
 819 1265 819 1265 747.5 1288 c 128,-1,24
 676 1311 676 1311 580 1311 c 2,25,-1
 338 1311 l 1,26,-1
 338 767 l 1,27,-1
 568 767 l 2,17,18
660 103 m 2,28,29
 986 103 986 103 986 364 c 0,30,31
 986 512 986 512 909.5 587 c 128,-1,32
 833 662 833 662 668 662 c 2,33,-1
 338 662 l 1,34,-1
 338 103 l 1,35,-1
 660 103 l 2,28,29
EndSplineSet
Position2: "'cpsp' Capital Spacing lookup 0 subtable" dx=5 dy=0 dh=10 dv=0
EndChar

StartChar: C
Encoding: 67 67 38
Width: 1421
GlyphClass: 1
Flags: W
LayerCount: 2
Fore
SplineSet
761 -20 m 0,0,1
 463 -20 463 -20 300 187 c 0,2,3
 146 383 146 383 146 707 c 0,4,5
 146 1018 146 1018 290 1213 c 0,6,7
 454 1436 454 1436 759 1436 c 0,8,9
 959 1436 959 1436 1098 1340 c 128,-1,10
 1237 1244 1237 1244 1313 1075 c 1,11,-1
 1210 1027 l 1,12,13
 1156 1182 1156 1182 1038 1253 c 128,-1,14
 920 1324 920 1324 757 1324 c 0,15,16
 511 1324 511 1324 389 1151 c 0,17,18
 269 984 269 984 269 717 c 0,19,20
 269 590 269 590 296 476.5 c 128,-1,21
 323 363 323 363 383.5 275 c 128,-1,22
 444 187 444 187 533 143 c 1,23,24
 628 91 628 91 761 91 c 0,25,26
 1097 91 1097 91 1211 391 c 1,27,-1
 1315 342 l 1,28,29
 1236 168 1236 168 1092.5 74 c 128,-1,30
 949 -20 949 -20 761 -20 c 0,0,1
EndSplineSet
Position2: "'cpsp' Capital Spacing lookup 0 subtable" dx=5 dy=0 dh=10 dv=0
EndChar

StartChar: D
Encoding: 68 68 39
Width: 1411
GlyphClass: 1
Flags: W
LayerCount: 2
Fore
SplineSet
565 0 m 2,0,-1
 228 0 l 1,1,-1
 228 1413 l 1,2,-1
 567 1413 l 2,3,4
 901 1413 901 1413 1085.5 1229 c 128,-1,5
 1270 1045 1270 1045 1270 696 c 0,6,7
 1270 360 1270 360 1085 180 c 128,-1,8
 900 0 900 0 565 0 c 2,0,-1
541 104 m 2,9,10
 659 104 659 104 769.5 138.5 c 128,-1,11
 880 173 880 173 966.5 246 c 128,-1,12
 1053 319 1053 319 1104 433.5 c 128,-1,13
 1155 548 1155 548 1155 707 c 0,14,15
 1155 994 1155 994 1002 1154 c 128,-1,16
 849 1314 849 1314 563 1314 c 2,17,-1
 343 1314 l 1,18,-1
 343 104 l 1,19,-1
 541 104 l 2,9,10
EndSplineSet
Position2: "'cpsp' Capital Spacing lookup 0 subtable" dx=5 dy=0 dh=10 dv=0
EndChar

StartChar: E
Encoding: 69 69 40
Width: 1241
GlyphClass: 1
Flags: W
LayerCount: 2
Fore
SplineSet
1131 0 m 1,0,-1
 228 0 l 1,1,-1
 228 1413 l 1,2,-1
 1131 1413 l 1,3,-1
 1131 1321 l 1,4,-1
 343 1321 l 1,5,-1
 343 751 l 1,6,-1
 1011 751 l 1,7,-1
 1011 664 l 1,8,-1
 343 664 l 1,9,-1
 343 101 l 1,10,-1
 1131 101 l 1,11,-1
 1131 0 l 1,0,-1
EndSplineSet
Position2: "'cpsp' Capital Spacing lookup 0 subtable" dx=5 dy=0 dh=10 dv=0
EndChar

StartChar: F
Encoding: 70 70 41
Width: 1185
GlyphClass: 1
Flags: W
LayerCount: 2
Fore
SplineSet
343 0 m 1,0,-1
 228 0 l 1,1,-1
 228 1413 l 1,2,-1
 1094 1413 l 1,3,-1
 1094 1321 l 1,4,-1
 343 1321 l 1,5,-1
 343 751 l 1,6,-1
 1006 751 l 1,7,-1
 1006 664 l 1,8,-1
 343 664 l 1,9,-1
 343 0 l 1,0,-1
EndSplineSet
Position2: "'cpsp' Capital Spacing lookup 0 subtable" dx=5 dy=0 dh=10 dv=0
EndChar

StartChar: G
Encoding: 71 71 42
Width: 1506
GlyphClass: 1
Flags: W
LayerCount: 2
Fore
SplineSet
761 -20 m 0,0,1
 465 -20 465 -20 299 189 c 0,2,3
 146 382 146 382 146 707 c 0,4,5
 146 856 146 856 184 988.5 c 128,-1,6
 222 1121 222 1121 298 1220 c 128,-1,7
 374 1319 374 1319 489.5 1377.5 c 128,-1,8
 605 1436 605 1436 759 1436 c 0,9,10
 952 1436 952 1436 1092.5 1343 c 128,-1,11
 1233 1250 1233 1250 1313 1075 c 1,12,-1
 1206 1026 l 1,13,14
 1135 1168 1135 1168 1021.5 1245 c 128,-1,15
 908 1322 908 1322 757 1322 c 0,16,17
 508 1322 508 1322 378 1143 c 0,18,19
 258 980 258 980 258 717 c 0,20,21
 258 440 258 440 377 275 c 0,22,23
 510 91 510 91 761 91 c 0,24,25
 857 91 857 91 943 124 c 0,26,27
 1121 192 1121 192 1196 383 c 0,28,29
 1233 474 1233 474 1233 606 c 1,30,-1
 907 606 l 1,31,-1
 907 691 l 1,32,-1
 1336 691 l 1,33,-1
 1336 0 l 1,34,-1
 1239 0 l 1,35,-1
 1246 299 l 1,36,37
 1197 156 1197 156 1075 72 c 0,38,39
 942 -20 942 -20 761 -20 c 0,0,1
EndSplineSet
Position2: "'cpsp' Capital Spacing lookup 0 subtable" dx=5 dy=0 dh=10 dv=0
EndChar

StartChar: H
Encoding: 72 72 43
Width: 1446
GlyphClass: 1
Flags: W
LayerCount: 2
Fore
SplineSet
1219 0 m 1,0,-1
 1105 0 l 1,1,-1
 1105 664 l 1,2,-1
 342 664 l 1,3,-1
 342 0 l 1,4,-1
 228 0 l 1,5,-1
 228 1413 l 1,6,-1
 342 1413 l 1,7,-1
 342 751 l 1,8,-1
 1105 751 l 1,9,-1
 1105 1413 l 1,10,-1
 1219 1413 l 1,11,-1
 1219 0 l 1,0,-1
EndSplineSet
Position2: "'cpsp' Capital Spacing lookup 0 subtable" dx=5 dy=0 dh=10 dv=0
EndChar

StartChar: I
Encoding: 73 73 44
Width: 569
GlyphClass: 1
Flags: W
LayerCount: 2
Fore
SplineSet
342 0 m 1,0,-1
 228 0 l 1,1,-1
 228 1413 l 1,2,-1
 342 1413 l 1,3,-1
 342 0 l 1,0,-1
EndSplineSet
Position2: "'cpsp' Capital Spacing lookup 0 subtable" dx=5 dy=0 dh=10 dv=0
EndChar

StartChar: J
Encoding: 74 74 45
Width: 1115
GlyphClass: 1
Flags: W
LayerCount: 2
Fore
SplineSet
495 -20 m 0,0,1
 370 -20 370 -20 282 34 c 0,2,3
 109 142 109 142 91 374 c 1,4,5
 118 379 118 379 146.5 382.5 c 128,-1,6
 175 386 175 386 201 390 c 1,7,8
 212 212 212 212 334 122 c 0,9,10
 398 76 398 76 504 75 c 0,11,12
 794 75 794 75 794 464 c 2,13,-1
 794 1413 l 1,14,-1
 910 1413 l 1,15,-1
 910 498 l 2,16,17
 910 -20 910 -20 495 -20 c 0,0,1
EndSplineSet
Position2: "'cpsp' Capital Spacing lookup 0 subtable" dx=5 dy=0 dh=10 dv=0
EndChar

StartChar: K
Encoding: 75 75 46
Width: 1443
GlyphClass: 1
Flags: W
LayerCount: 2
Fore
SplineSet
1346 0 m 1,0,-1
 1211 0 l 1,1,-1
 708 776 l 1,2,-1
 343 398 l 1,3,-1
 343 0 l 1,4,-1
 228 0 l 1,5,-1
 228 1413 l 1,6,-1
 343 1413 l 1,7,-1
 343 549 l 1,8,-1
 1160 1413 l 1,9,-1
 1311 1413 l 1,10,-1
 791 866 l 1,11,-1
 1346 0 l 1,0,-1
EndSplineSet
Position2: "'cpsp' Capital Spacing lookup 0 subtable" dx=5 dy=0 dh=10 dv=0
EndChar

StartChar: L
Encoding: 76 76 47
Width: 1030
GlyphClass: 1
Flags: W
LayerCount: 2
Fore
SplineSet
949 0 m 1,0,-1
 228 0 l 1,1,-1
 228 1413 l 1,2,-1
 343 1413 l 1,3,-1
 343 101 l 1,4,-1
 949 101 l 1,5,-1
 949 0 l 1,0,-1
EndSplineSet
Position2: "'cpsp' Capital Spacing lookup 0 subtable" dx=5 dy=0 dh=10 dv=0
EndChar

StartChar: M
Encoding: 77 77 48
Width: 1755
GlyphClass: 1
Flags: W
LayerCount: 2
Fore
SplineSet
1528 0 m 1,0,-1
 1411 0 l 1,1,-1
 1411 1335 l 1,2,-1
 947 124 l 1,3,-1
 808 124 l 1,4,-1
 346 1335 l 1,5,-1
 346 0 l 1,6,-1
 228 0 l 1,7,-1
 228 1413 l 1,8,-1
 429 1413 l 1,9,-1
 873 215 l 1,10,-1
 1327 1413 l 1,11,-1
 1528 1413 l 1,12,-1
 1528 0 l 1,0,-1
EndSplineSet
Position2: "'cpsp' Capital Spacing lookup 0 subtable" dx=5 dy=0 dh=10 dv=0
EndChar

StartChar: N
Encoding: 78 78 49
Width: 1409
GlyphClass: 1
Flags: W
LayerCount: 2
Fore
SplineSet
1182 0 m 1,0,-1
 982 0 l 1,1,-1
 346 1318 l 1,2,-1
 346 0 l 1,3,-1
 228 0 l 1,4,-1
 228 1413 l 1,5,-1
 423 1413 l 1,6,-1
 1066 97 l 1,7,-1
 1066 1413 l 1,8,-1
 1182 1413 l 1,9,-1
 1182 0 l 1,0,-1
EndSplineSet
Position2: "'cpsp' Capital Spacing lookup 0 subtable" dx=5 dy=0 dh=10 dv=0
EndChar

StartChar: O
Encoding: 79 79 50
Width: 1421
GlyphClass: 1
Flags: W
LayerCount: 2
Fore
SplineSet
760 -20 m 0,0,1
 463 -20 463 -20 300 187 c 0,2,3
 146 383 146 383 146 707 c 0,4,5
 146 1018 146 1018 290 1213 c 0,6,7
 454 1436 454 1436 762 1436 c 0,8,9
 1067 1436 1067 1436 1231 1213 c 0,10,11
 1375 1018 1375 1018 1375 707 c 0,12,13
 1375 383 1375 383 1221 187 c 0,14,15
 1058 -20 1058 -20 760 -20 c 0,0,1
760 91 m 0,16,17
 893 91 893 91 988 143 c 1,18,19
 1077 187 1077 187 1137.5 275 c 128,-1,20
 1198 363 1198 363 1225 476.5 c 128,-1,21
 1252 590 1252 590 1252 717 c 0,22,23
 1252 984 1252 984 1132 1151 c 0,24,25
 1010 1324 1010 1324 764 1324 c 0,26,27
 511 1324 511 1324 389 1151 c 0,28,29
 269 984 269 984 269 717 c 0,30,31
 269 590 269 590 296 476.5 c 128,-1,32
 323 363 323 363 383.5 275 c 128,-1,33
 444 187 444 187 533 143 c 1,34,35
 628 91 628 91 760 91 c 0,16,17
EndSplineSet
Substitution2: "Single Substitution lookup 3 subtable" ordmasculine
Substitution2: "Single Substitution lookup 2 subtable" ordmasculine
Position2: "'cpsp' Capital Spacing lookup 0 subtable" dx=5 dy=0 dh=10 dv=0
EndChar

StartChar: P
Encoding: 80 80 51
Width: 1145
GlyphClass: 1
Flags: W
LayerCount: 2
Fore
SplineSet
343 0 m 1,0,-1
 228 0 l 1,1,-1
 228 1413 l 1,2,-1
 604 1413 l 2,3,4
 801 1413 801 1413 918.5 1313 c 128,-1,5
 1036 1213 1036 1213 1036 1036 c 0,6,7
 1036 854 1036 854 921.5 758 c 128,-1,8
 807 662 807 662 604 662 c 2,9,-1
 343 662 l 1,10,-1
 343 0 l 1,0,-1
604 758 m 2,11,12
 698 758 698 758 770 787 c 128,-1,13
 842 816 842 816 882.5 877 c 128,-1,14
 923 938 923 938 923 1036 c 0,15,16
 923 1168 923 1168 837 1242.5 c 128,-1,17
 751 1317 751 1317 604 1317 c 2,18,-1
 343 1317 l 1,19,-1
 343 758 l 1,20,-1
 604 758 l 2,11,12
EndSplineSet
Position2: "'cpsp' Capital Spacing lookup 0 subtable" dx=5 dy=0 dh=10 dv=0
EndChar

StartChar: Q
Encoding: 81 81 52
Width: 1541
GlyphClass: 1
Flags: W
LayerCount: 2
Fore
SplineSet
1337 -88 m 1,0,-1
 1147 109 l 1,1,2
 995 -20 995 -20 760 -20 c 0,3,4
 463 -20 463 -20 300 187 c 0,5,6
 146 383 146 383 146 707 c 0,7,8
 146 1018 146 1018 290 1213 c 0,9,10
 454 1436 454 1436 762 1436 c 0,11,12
 1067 1436 1067 1436 1231 1213 c 0,13,14
 1375 1018 1375 1018 1375 707 c 0,15,16
 1375 382 1375 382 1220 186 c 1,17,-1
 1410 -10 l 1,18,-1
 1337 -88 l 1,0,-1
760 91 m 0,19,20
 945 91 945 91 1065 194 c 1,21,-1
 868 398 l 1,22,-1
 937 479 l 1,23,-1
 1136 273 l 1,24,25
 1252 440 1252 440 1252 717 c 0,26,27
 1252 984 1252 984 1132 1151 c 0,28,29
 1010 1324 1010 1324 764 1324 c 0,30,31
 511 1324 511 1324 389 1151 c 0,32,33
 269 984 269 984 269 717 c 0,34,35
 269 590 269 590 296 476.5 c 128,-1,36
 323 363 323 363 383.5 275 c 128,-1,37
 444 187 444 187 533 143 c 1,38,39
 628 91 628 91 760 91 c 0,19,20
EndSplineSet
Position2: "'cpsp' Capital Spacing lookup 0 subtable" dx=5 dy=0 dh=10 dv=0
EndChar

StartChar: R
Encoding: 82 82 53
Width: 1205
GlyphClass: 1
Flags: W
LayerCount: 2
Fore
SplineSet
1100 -2 m 1,0,-1
 962 -2 l 1,1,-1
 606 646 l 1,2,-1
 343 646 l 1,3,-1
 343 -2 l 1,4,-1
 228 -2 l 1,5,-1
 228 1411 l 1,6,-1
 609 1411 l 2,7,8
 729 1411 729 1411 825 1364.5 c 128,-1,9
 921 1318 921 1318 977 1232.5 c 128,-1,10
 1033 1147 1033 1147 1033 1028 c 0,11,12
 1033 885 1033 885 949 786 c 128,-1,13
 865 687 865 687 719 665 c 1,14,-1
 1100 -2 l 1,0,-1
637 762 m 1,15,16
 718 766 718 766 782 797 c 128,-1,17
 846 828 846 828 884 886.5 c 128,-1,18
 922 945 922 945 922 1032 c 0,19,20
 922 1122 922 1122 881 1184.5 c 128,-1,21
 840 1247 840 1247 769.5 1279 c 128,-1,22
 699 1311 699 1311 611 1311 c 2,23,-1
 345 1311 l 1,24,-1
 345 762 l 1,25,-1
 637 762 l 1,15,16
EndSplineSet
Position2: "'cpsp' Capital Spacing lookup 0 subtable" dx=5 dy=0 dh=10 dv=0
EndChar

StartChar: S
Encoding: 83 83 54
Width: 1105
GlyphClass: 1
Flags: W
LayerCount: 2
Fore
SplineSet
567 -16 m 0,0,1
 481 -16 481 -16 403 7 c 128,-1,2
 325 30 325 30 263 75 c 128,-1,3
 201 120 201 120 158.5 187 c 128,-1,4
 116 254 116 254 101 343 c 1,5,-1
 203 377 l 1,6,7
 211 305 211 305 243 250.5 c 128,-1,8
 275 196 275 196 324 159 c 128,-1,9
 373 122 373 122 435 103.5 c 128,-1,10
 497 85 497 85 566 85 c 0,11,12
 637 85 637 85 694 102 c 128,-1,13
 751 119 751 119 792 154.5 c 128,-1,14
 833 190 833 190 855 244 c 128,-1,15
 877 298 877 298 877 372 c 0,16,17
 877 443 877 443 845 495 c 128,-1,18
 813 547 813 547 763.5 586 c 128,-1,19
 714 625 714 625 655.5 654.5 c 128,-1,20
 597 684 597 684 544 710 c 0,21,22
 508 728 508 728 468 749 c 128,-1,23
 428 770 428 770 389 795.5 c 128,-1,24
 350 821 350 821 315 851.5 c 128,-1,25
 280 882 280 882 253.5 918 c 128,-1,26
 227 954 227 954 211 997 c 128,-1,27
 195 1040 195 1040 195 1090 c 0,28,29
 195 1166 195 1166 223.5 1229 c 128,-1,30
 252 1292 252 1292 300.5 1337.5 c 128,-1,31
 349 1383 349 1383 414.5 1408.5 c 128,-1,32
 480 1434 480 1434 554 1434 c 0,33,34
 675 1434 675 1434 769.5 1383.5 c 128,-1,35
 864 1333 864 1333 928 1228 c 1,36,-1
 851 1172 l 1,37,38
 804 1257 804 1257 727 1298 c 128,-1,39
 650 1339 650 1339 555 1339 c 0,40,41
 504 1339 504 1339 458.5 1322.5 c 128,-1,42
 413 1306 413 1306 378.5 1275 c 128,-1,43
 344 1244 344 1244 323.5 1201 c 128,-1,44
 303 1158 303 1158 303 1105 c 0,45,46
 303 1047 303 1047 327.5 1003 c 128,-1,47
 352 959 352 959 393 924 c 128,-1,48
 434 889 434 889 487.5 860 c 128,-1,49
 541 831 541 831 599 802 c 0,50,51
 668 768 668 768 737 730 c 128,-1,52
 806 692 806 692 861.5 643.5 c 128,-1,53
 917 595 917 595 951.5 531 c 128,-1,54
 986 467 986 467 986 381 c 0,55,56
 986 290 986 290 953.5 216.5 c 128,-1,57
 921 143 921 143 865 91.5 c 128,-1,58
 809 40 809 40 732.5 12 c 128,-1,59
 656 -16 656 -16 567 -16 c 0,0,1
EndSplineSet
Position2: "'cpsp' Capital Spacing lookup 0 subtable" dx=5 dy=0 dh=10 dv=0
EndChar

StartChar: T
Encoding: 84 84 55
Width: 1260
GlyphClass: 1
Flags: W
LayerCount: 2
Fore
SplineSet
689 0 m 1,0,-1
 571 0 l 1,1,-1
 571 1328 l 1,2,-1
 79 1328 l 1,3,-1
 79 1413 l 1,4,-1
 1182 1413 l 1,5,-1
 1182 1328 l 1,6,-1
 689 1328 l 1,7,-1
 689 0 l 1,0,-1
EndSplineSet
Position2: "'cpsp' Capital Spacing lookup 0 subtable" dx=5 dy=0 dh=10 dv=0
EndChar

StartChar: U
Encoding: 85 85 56
Width: 1348
GlyphClass: 1
Flags: W
LayerCount: 2
Fore
SplineSet
673 -20 m 0,0,1
 519 -20 519 -20 414 49 c 128,-1,2
 309 118 309 118 255.5 236 c 128,-1,3
 202 354 202 354 202 504 c 2,4,-1
 202 1413 l 1,5,-1
 317 1413 l 1,6,-1
 317 555 l 2,7,8
 317 85 317 85 673 85 c 0,9,10
 801 85 801 85 880 145 c 0,11,12
 1033 261 1033 261 1033 555 c 2,13,-1
 1033 1413 l 1,14,-1
 1147 1413 l 1,15,-1
 1147 514 l 2,16,17
 1147 293 1147 293 1037 148 c 0,18,19
 909 -20 909 -20 673 -20 c 0,0,1
EndSplineSet
Position2: "'cpsp' Capital Spacing lookup 0 subtable" dx=5 dy=0 dh=10 dv=0
EndChar

StartChar: V
Encoding: 86 86 57
Width: 1321
GlyphClass: 1
Flags: W
LayerCount: 2
Fore
SplineSet
718 0 m 1,0,-1
 607 0 l 1,1,-1
 88 1413 l 1,2,-1
 211 1413 l 1,3,-1
 662 127 l 1,4,-1
 1114 1413 l 1,5,-1
 1233 1413 l 1,6,-1
 718 0 l 1,0,-1
EndSplineSet
Position2: "'cpsp' Capital Spacing lookup 0 subtable" dx=5 dy=0 dh=10 dv=0
EndChar

StartChar: W
Encoding: 87 87 58
Width: 1969
GlyphClass: 1
Flags: W
LayerCount: 2
Fore
SplineSet
1485 0 m 1,0,-1
 1334 0 l 1,1,-1
 984 1219 l 1,2,-1
 635 0 l 1,3,-1
 484 0 l 1,4,-1
 98 1413 l 1,5,-1
 213 1413 l 1,6,-1
 566 119 l 1,7,-1
 937 1413 l 1,8,-1
 1032 1413 l 1,9,-1
 1405 119 l 1,10,-1
 1756 1413 l 1,11,-1
 1872 1413 l 1,12,-1
 1485 0 l 1,0,-1
EndSplineSet
Position2: "'cpsp' Capital Spacing lookup 0 subtable" dx=5 dy=0 dh=10 dv=0
EndChar

StartChar: X
Encoding: 88 88 59
Width: 1231
GlyphClass: 1
Flags: W
LayerCount: 2
Fore
SplineSet
1133 0 m 1,0,-1
 1003 0 l 1,1,-1
 613 597 l 1,2,-1
 232 0 l 1,3,-1
 97 0 l 1,4,-1
 564 707 l 1,5,-1
 99 1413 l 1,6,-1
 234 1413 l 1,7,-1
 617 806 l 1,8,-1
 1001 1413 l 1,9,-1
 1131 1413 l 1,10,-1
 672 707 l 1,11,-1
 1133 0 l 1,0,-1
EndSplineSet
Position2: "'cpsp' Capital Spacing lookup 0 subtable" dx=5 dy=0 dh=10 dv=0
EndChar

StartChar: Y
Encoding: 89 89 60
Width: 1319
GlyphClass: 1
Flags: W
LayerCount: 2
Fore
SplineSet
714 0 m 1,0,-1
 607 0 l 1,1,-1
 607 553 l 1,2,-1
 79 1413 l 1,3,-1
 209 1413 l 1,4,-1
 659 675 l 1,5,-1
 1112 1413 l 1,6,-1
 1240 1413 l 1,7,-1
 714 553 l 1,8,-1
 714 0 l 1,0,-1
EndSplineSet
Position2: "'cpsp' Capital Spacing lookup 0 subtable" dx=5 dy=0 dh=10 dv=0
EndChar

StartChar: Z
Encoding: 90 90 61
Width: 1279
GlyphClass: 1
Flags: W
LayerCount: 2
Fore
SplineSet
1167 0 m 1,0,-1
 101 0 l 1,1,-1
 101 99 l 1,2,-1
 1047 1321 l 1,3,-1
 146 1321 l 1,4,-1
 146 1413 l 1,5,-1
 1167 1413 l 1,6,-1
 1167 1308 l 1,7,-1
 226 105 l 1,8,-1
 1167 105 l 1,9,-1
 1167 0 l 1,0,-1
EndSplineSet
Position2: "'cpsp' Capital Spacing lookup 0 subtable" dx=5 dy=0 dh=10 dv=0
EndChar

StartChar: bracketleft
Encoding: 91 91 62
Width: 633
GlyphClass: 1
Flags: W
LayerCount: 2
Fore
SplineSet
548 -65 m 1,0,-1
 219 -65 l 1,1,-1
 219 1476 l 1,2,-1
 548 1476 l 1,3,-1
 548 1419 l 1,4,-1
 311 1419 l 1,5,-1
 311 -6 l 1,6,-1
 548 -6 l 1,7,-1
 548 -65 l 1,0,-1
EndSplineSet
EndChar

StartChar: backslash
Encoding: 92 92 63
Width: 928
GlyphClass: 1
Flags: W
LayerCount: 2
Fore
SplineSet
893 -432 m 1,0,-1
 778 -432 l 1,1,-1
 34 1517 l 1,2,-1
 152 1517 l 1,3,-1
 893 -432 l 1,0,-1
EndSplineSet
EndChar

StartChar: bracketright
Encoding: 93 93 64
Width: 632
GlyphClass: 1
Flags: W
LayerCount: 2
Fore
SplineSet
412 -65 m 1,0,-1
 84 -65 l 1,1,-1
 84 -6 l 1,2,-1
 320 -6 l 1,3,-1
 320 1419 l 1,4,-1
 84 1419 l 1,5,-1
 84 1476 l 1,6,-1
 412 1476 l 1,7,-1
 412 -65 l 1,0,-1
EndSplineSet
EndChar

StartChar: asciicircum
Encoding: 94 94 65
Width: 976
GlyphClass: 1
Flags: W
LayerCount: 2
Fore
SplineSet
824 857 m 1,0,-1
 706 857 l 1,1,-1
 486 1208 l 1,2,-1
 272 857 l 1,3,-1
 154 857 l 1,4,-1
 486 1397 l 1,5,-1
 824 857 l 1,0,-1
EndSplineSet
EndChar

StartChar: underscore
Encoding: 95 95 66
Width: 1236
GlyphClass: 1
Flags: W
LayerCount: 2
Fore
SplineSet
991 -85 m 1,0,-1
 245 -85 l 1,1,-1
 245 -6 l 1,2,-1
 991 -6 l 1,3,-1
 991 -85 l 1,0,-1
EndSplineSet
EndChar

StartChar: grave
Encoding: 96 96 67
Width: 538
GlyphClass: 1
Flags: W
LayerCount: 2
Fore
SplineSet
444 1129 m 1,0,-1
 335 1129 l 1,1,-1
 76 1413 l 1,2,-1
 234 1413 l 1,3,-1
 444 1129 l 1,0,-1
EndSplineSet
EndChar

StartChar: a
Encoding: 97 97 68
Width: 1037
GlyphClass: 1
Flags: W
LayerCount: 2
Fore
SplineSet
409 -20 m 0,0,1
 268 -20 268 -20 181 58.5 c 128,-1,2
 94 137 94 137 94 274 c 0,3,4
 94 579 94 579 564 579 c 2,5,-1
 793 579 l 1,6,7
 793 701 793 701 765 787.5 c 128,-1,8
 737 874 737 874 675 920 c 128,-1,9
 613 966 613 966 511 966 c 0,10,11
 436 966 436 966 377.5 943.5 c 128,-1,12
 319 921 319 921 275.5 885 c 128,-1,13
 232 849 232 849 204 808 c 1,14,-1
 130 870 l 1,15,16
 264 1056 264 1056 499 1056 c 0,17,18
 686 1056 686 1056 785 943.5 c 128,-1,19
 884 831 884 831 884 640 c 2,20,-1
 884 0 l 1,21,-1
 794 0 l 1,22,23
 794 108 794 108 796 235 c 1,24,25
 735 99 735 99 632.5 39.5 c 128,-1,26
 530 -20 530 -20 409 -20 c 0,0,1
418 67 m 0,27,28
 585 67 585 67 693 204 c 0,29,30
 793 332 793 332 793 497 c 1,31,-1
 565 497 l 2,32,33
 380 497 380 497 292 446 c 128,-1,34
 204 395 204 395 204 273 c 0,35,36
 204 167 204 167 263 117 c 128,-1,37
 322 67 322 67 418 67 c 0,27,28
EndSplineSet
Substitution2: "Single Substitution lookup 3 subtable" ordfeminine
Substitution2: "Single Substitution lookup 2 subtable" ordfeminine
EndChar

StartChar: b
Encoding: 98 98 69
Width: 1138
GlyphClass: 1
Flags: W
LayerCount: 2
Fore
SplineSet
629 -20 m 0,0,1
 410 -20 410 -20 293 163 c 1,2,-1
 293 0 l 1,3,-1
 192 0 l 1,4,-1
 192 1413 l 1,5,-1
 293 1413 l 1,6,-1
 293 877 l 1,7,8
 416 1062 416 1062 630 1062 c 0,9,10
 756 1062 756 1062 847 990 c 128,-1,11
 938 918 938 918 986.5 795 c 128,-1,12
 1035 672 1035 672 1035 520 c 256,13,14
 1035 368 1035 368 986.5 245.5 c 128,-1,15
 938 123 938 123 847 51.5 c 128,-1,16
 756 -20 756 -20 629 -20 c 0,0,1
602 67 m 0,17,18
 749 67 749 67 840 191.5 c 128,-1,19
 931 316 931 316 931 520 c 0,20,21
 931 700 931 700 853 828 c 0,22,23
 764 973 764 973 602 973 c 0,24,25
 492 973 492 973 421.5 909.5 c 128,-1,26
 351 846 351 846 318 743.5 c 128,-1,27
 285 641 285 641 285 520 c 0,28,29
 285 340 285 340 352 216 c 0,30,31
 433 67 433 67 602 67 c 0,17,18
EndSplineSet
EndChar

StartChar: c
Encoding: 99 99 70
Width: 993
GlyphClass: 1
Flags: W
LayerCount: 2
Fore
SplineSet
542 -20 m 0,0,1
 402 -20 402 -20 306.5 53 c 128,-1,2
 211 126 211 126 162 248.5 c 128,-1,3
 113 371 113 371 113 518 c 0,4,5
 113 668 113 668 170.5 802.5 c 128,-1,6
 228 937 228 937 354 1012 c 0,7,8
 433 1056 433 1056 539 1056 c 0,9,10
 677 1056 677 1056 774 985.5 c 128,-1,11
 871 915 871 915 922 804 c 1,12,-1
 819 754 l 1,13,14
 794 835 794 835 714.5 895 c 128,-1,15
 635 955 635 955 537 955 c 0,16,17
 375 955 375 955 297 824 c 0,18,19
 222 700 222 700 222 518 c 0,20,21
 222 338 222 338 292 214 c 0,22,23
 369 80 369 80 537 80 c 0,24,25
 640 80 640 80 718 141.5 c 128,-1,26
 796 203 796 203 819 282 c 1,27,-1
 910 238 l 1,28,29
 862 111 862 111 765.5 45.5 c 128,-1,30
 669 -20 669 -20 542 -20 c 0,0,1
EndSplineSet
AlternateSubs2: "'salt' Stylistic Alternatives lookup 15 subtable" c.001
Substitution2: "'aalt' Access All Alternates lookup 0 subtable" c.001
EndChar

StartChar: d
Encoding: 100 100 71
Width: 1140
GlyphClass: 1
Flags: W
LayerCount: 2
Fore
SplineSet
519 -20 m 0,0,1
 391 -20 391 -20 301 53 c 128,-1,2
 211 126 211 126 164 248.5 c 128,-1,3
 117 371 117 371 117 520 c 0,4,5
 117 667 117 667 164 790 c 128,-1,6
 211 913 211 913 300.5 986.5 c 128,-1,7
 390 1060 390 1060 520 1060 c 0,8,9
 735 1060 735 1060 858 877 c 1,10,-1
 858 1413 l 1,11,-1
 962 1413 l 1,12,-1
 962 0 l 1,13,-1
 855 0 l 1,14,-1
 857 162 l 1,15,16
 794 70 794 70 715.5 25 c 128,-1,17
 637 -20 637 -20 519 -20 c 0,0,1
547 74 m 0,18,19
 654 74 654 74 725 132.5 c 128,-1,20
 796 191 796 191 831.5 291.5 c 128,-1,21
 867 392 867 392 867 520 c 0,22,23
 867 704 867 704 794 823 c 0,24,25
 711 962 711 962 547 962 c 0,26,27
 437 962 437 962 365 901 c 128,-1,28
 293 840 293 840 259 740 c 128,-1,29
 225 640 225 640 225 520 c 0,30,31
 225 341 225 341 296 218 c 0,32,33
 378 74 378 74 547 74 c 0,18,19
EndSplineSet
EndChar

StartChar: e
Encoding: 101 101 72
Width: 1054
GlyphClass: 1
Flags: W
LayerCount: 2
Fore
SplineSet
555 -12 m 0,0,1
 345 -12 345 -12 226 139 c 0,2,3
 114 280 114 280 114 510 c 0,4,5
 114 737 114 737 220 887 c 0,6,7
 338 1051 338 1051 537 1052 c 0,8,9
 767 1052 767 1052 876 903 c 0,10,11
 956 792 956 792 956 626 c 0,12,13
 956 495 956 495 953.5 491.5 c 128,-1,14
 951 488 951 488 951 486 c 1,15,-1
 228 486 l 1,16,-1
 228 460 l 2,17,18
 228 301 228 301 306 197 c 0,19,20
 398 80 398 80 553 80 c 0,21,22
 661 80 661 80 730 104 c 0,23,24
 805 131 805 131 861 190 c 1,25,-1
 932 134 l 1,26,27
 845 53 845 53 764 23 c 0,28,29
 678 -12 678 -12 555 -12 c 0,0,1
861 584 m 1,30,-1
 861 605 l 2,31,32
 861 755 861 755 791 838 c 0,33,34
 694 954 694 954 537 954 c 0,35,36
 394 954 394 954 309 845 c 0,37,38
 231 746 231 746 228 584 c 1,39,-1
 861 584 l 1,30,-1
EndSplineSet
EndChar

StartChar: f
Encoding: 102 102 73
Width: 697
GlyphClass: 1
Flags: W
LayerCount: 2
Fore
SplineSet
338 0 m 1,0,-1
 232 0 l 1,1,-1
 232 956 l 1,2,-1
 42 956 l 1,3,-1
 42 1037 l 1,4,-1
 231 1037 l 1,5,-1
 231 1207 l 2,6,7
 231 1315 231 1315 302 1374.5 c 128,-1,8
 373 1434 373 1434 488 1434 c 0,9,10
 569 1434 569 1434 647 1398 c 1,11,-1
 629 1312 l 1,12,13
 554 1341 554 1341 493 1341 c 0,14,15
 422 1341 422 1341 380 1309.5 c 128,-1,16
 338 1278 338 1278 338 1201 c 2,17,-1
 338 1039 l 1,18,-1
 657 1039 l 1,19,-1
 657 956 l 1,20,-1
 344 956 l 1,21,-1
 338 0 l 1,0,-1
EndSplineSet
EndChar

StartChar: g
Encoding: 103 103 74
Width: 1041
GlyphClass: 1
Flags: W
LayerCount: 2
Fore
SplineSet
554 -455 m 0,0,1
 433 -455 433 -455 337 -409.5 c 128,-1,2
 241 -364 241 -364 184.5 -286.5 c 128,-1,3
 128 -209 128 -209 128 -113 c 0,4,5
 128 -80 128 -80 130 -78 c 2,6,-1
 295 96 l 1,7,8
 152 168 152 168 152 310 c 0,9,10
 152 354 152 354 166 391.5 c 128,-1,11
 180 429 180 429 218 465 c 1,12,13
 132 557 132 557 132 700 c 0,14,15
 132 852 132 852 234.5 952 c 128,-1,16
 337 1052 337 1052 502 1052 c 0,17,18
 672 1052 672 1052 778 943 c 1,19,-1
 941 1070 l 1,20,-1
 995 1001 l 1,21,-1
 825 868 l 1,22,23
 861 789 861 789 861 703 c 0,24,25
 861 596 861 596 814 519.5 c 128,-1,26
 767 443 767 443 683.5 401.5 c 128,-1,27
 600 360 600 360 495 360 c 256,28,29
 390 360 390 360 301 403 c 1,30,31
 248 362 248 362 248 310 c 0,32,33
 248 236 248 236 311 193 c 128,-1,34
 374 150 374 150 538 126 c 0,35,36
 677 106 677 106 760 82 c 0,37,38
 945 27 945 27 946 -156 c 0,39,40
 946 -254 946 -254 890 -320 c 128,-1,41
 834 -386 834 -386 745 -420.5 c 128,-1,42
 656 -455 656 -455 554 -455 c 0,0,1
494 446 m 0,43,44
 604 446 604 446 679 515 c 128,-1,45
 754 584 754 584 754 706 c 0,46,47
 754 772 754 772 722.5 832 c 128,-1,48
 691 892 691 892 633.5 930 c 128,-1,49
 576 968 576 968 494 968 c 0,50,51
 414 968 414 968 357.5 930 c 128,-1,52
 301 892 301 892 270 832 c 128,-1,53
 239 772 239 772 239 706 c 0,54,55
 239 588 239 588 307.5 517 c 128,-1,56
 376 446 376 446 494 446 c 0,43,44
570 -352 m 0,57,58
 684 -352 684 -352 765 -305 c 0,59,60
 857 -252 857 -252 857 -162 c 0,61,62
 857 -112 857 -112 838 -81.5 c 128,-1,63
 819 -51 819 -51 786.5 -33.5 c 128,-1,64
 754 -16 754 -16 708.5 -6 c 128,-1,65
 663 4 663 4 611 12 c 0,66,67
 558 20 558 20 502 30 c 128,-1,68
 446 40 446 40 387 60 c 1,69,-1
 234 -115 l 1,70,-1
 234 -126 l 2,71,72
 234 -207 234 -207 314 -272 c 0,73,74
 412 -352 412 -352 570 -352 c 0,57,58
EndSplineSet
Substitution2: "'ss01' Style Set 1 lookup 16 subtable" g.ss01
AlternateSubs2: "'salt' Stylistic Alternatives lookup 15 subtable" g.ss01
Substitution2: "'aalt' Access All Alternates lookup 0 subtable" g.ss01
EndChar

StartChar: h
Encoding: 104 104 75
Width: 1133
GlyphClass: 1
Flags: W
LayerCount: 2
Fore
SplineSet
981 0 m 1,0,-1
 876 0 l 1,1,-1
 876 630 l 2,2,3
 876 712 876 712 854.5 786.5 c 128,-1,4
 833 861 833 861 780 909 c 128,-1,5
 727 957 727 957 635 957 c 0,6,7
 541 957 541 957 463 905.5 c 128,-1,8
 385 854 385 854 339 769 c 128,-1,9
 293 684 293 684 293 582 c 2,10,-1
 293 0 l 1,11,-1
 192 0 l 1,12,-1
 192 1413 l 1,13,-1
 293 1413 l 1,14,-1
 293 841 l 1,15,16
 348 939 348 939 443.5 997.5 c 128,-1,17
 539 1056 539 1056 650 1056 c 0,18,19
 765 1056 765 1056 838.5 1002 c 128,-1,20
 912 948 912 948 946.5 855.5 c 128,-1,21
 981 763 981 763 981 650 c 2,22,-1
 981 0 l 1,0,-1
EndSplineSet
EndChar

StartChar: i
Encoding: 105 105 76
Width: 474
GlyphClass: 1
Flags: W
LayerCount: 2
Fore
SplineSet
312 1239 m 1,0,-1
 178 1239 l 1,1,-1
 178 1413 l 1,2,-1
 312 1413 l 1,3,-1
 312 1239 l 1,0,-1
299 0 m 1,4,-1
 190 0 l 1,5,-1
 190 997 l 1,6,-1
 299 997 l 1,7,-1
 299 0 l 1,4,-1
EndSplineSet
Substitution2: "'locl' Localized Forms in Latin lookup 5 subtable" i.loclTRK
Substitution2: "Single Substitution lookup 2 subtable" dotlessi
Substitution2: "'aalt' Access All Alternates lookup 0 subtable" i.loclTRK
EndChar

StartChar: j
Encoding: 106 106 77
Width: 486
GlyphClass: 1
Flags: W
LayerCount: 2
Fore
SplineSet
310 1253 m 1,0,-1
 175 1253 l 1,1,-1
 175 1420 l 1,2,-1
 310 1420 l 1,3,-1
 310 1253 l 1,0,-1
52 -440 m 0,4,5
 25 -440 25 -440 -17.5 -431 c 128,-1,6
 -60 -422 -60 -422 -90 -411 c 1,7,-1
 -70 -323 l 1,8,9
 -53 -328 -53 -328 -12 -333 c 128,-1,10
 29 -338 29 -338 59 -338 c 0,11,12
 126 -338 126 -338 158.5 -298 c 128,-1,13
 191 -258 191 -258 191 -201 c 2,14,-1
 191 997 l 1,15,-1
 300 997 l 1,16,-1
 300 -180 l 2,17,18
 300 -257 300 -257 274.5 -315.5 c 128,-1,19
 249 -374 249 -374 194.5 -407 c 128,-1,20
 140 -440 140 -440 52 -440 c 0,4,5
EndSplineSet
Substitution2: "Single Substitution lookup 2 subtable" uni0237
EndChar

StartChar: k
Encoding: 107 107 78
Width: 1051
GlyphClass: 1
Flags: W
LayerCount: 2
Fore
SplineSet
999 0 m 1,0,-1
 869 0 l 1,1,-1
 541 584 l 1,2,-1
 299 335 l 1,3,-1
 299 0 l 1,4,-1
 192 0 l 1,5,-1
 192 1413 l 1,6,-1
 299 1413 l 1,7,-1
 299 483 l 1,8,-1
 799 1039 l 1,9,-1
 930 1039 l 1,10,-1
 612 672 l 1,11,-1
 999 0 l 1,0,-1
EndSplineSet
EndChar

StartChar: l
Encoding: 108 108 79
Width: 503
GlyphClass: 1
Flags: W
LayerCount: 2
Fore
SplineSet
331 -20 m 0,0,1
 197 -20 197 -20 190 93 c 0,2,3
 188 127 188 127 188 1413 c 1,4,-1
 295 1413 l 1,5,-1
 296 107 l 1,6,7
 302 94 302 94 305 90 c 0,8,9
 318 72 318 72 343 72 c 0,10,11
 359 73 359 73 373 73 c 128,-1,12
 387 73 387 73 412.5 77 c 128,-1,13
 438 81 438 81 447 84 c 1,14,-1
 446 -1 l 1,15,16
 398 -20 398 -20 331 -20 c 0,0,1
EndSplineSet
EndChar

StartChar: m
Encoding: 109 109 80
Width: 1732
GlyphClass: 1
Flags: W
LayerCount: 2
Fore
SplineSet
1580 0 m 1,0,-1
 1473 0 l 1,1,-1
 1473 629 l 2,2,3
 1473 768 1473 768 1422 861 c 0,4,5
 1359 976 1359 976 1224 976 c 0,6,7
 1130 976 1130 976 1066.5 921 c 128,-1,8
 1003 866 1003 866 970 781.5 c 128,-1,9
 937 697 937 697 937 604 c 2,10,-1
 937 0 l 1,11,-1
 831 0 l 1,12,-1
 831 633 l 2,13,14
 831 718 831 718 809 796.5 c 128,-1,15
 787 875 787 875 733.5 925.5 c 128,-1,16
 680 976 680 976 585 976 c 0,17,18
 489 976 489 976 424.5 921 c 128,-1,19
 360 866 360 866 328.5 781 c 128,-1,20
 297 696 297 696 297 604 c 2,21,-1
 297 0 l 1,22,-1
 190 0 l 1,23,-1
 190 1039 l 1,24,-1
 297 1039 l 1,25,-1
 297 812 l 1,26,27
 327 931 327 931 405 994.5 c 128,-1,28
 483 1058 483 1058 591 1058 c 0,29,30
 709 1058 709 1058 795 1001.5 c 128,-1,31
 881 945 881 945 917 821 c 1,32,33
 1010 1056 1010 1056 1230 1056 c 0,34,35
 1349 1056 1349 1056 1426 1003.5 c 128,-1,36
 1503 951 1503 951 1541.5 856 c 128,-1,37
 1580 761 1580 761 1580 634 c 2,38,-1
 1580 0 l 1,0,-1
EndSplineSet
EndChar

StartChar: n
Encoding: 110 110 81
Width: 1129
GlyphClass: 1
Flags: W
LayerCount: 2
Fore
SplineSet
976 0 m 1,0,-1
 872 0 l 1,1,-1
 872 630 l 2,2,3
 872 713 872 713 851 787 c 128,-1,4
 830 861 830 861 776.5 907.5 c 128,-1,5
 723 954 723 954 625 954 c 0,6,7
 539 954 539 954 462.5 907 c 128,-1,8
 386 860 386 860 339.5 782.5 c 128,-1,9
 293 705 293 705 293 613 c 2,10,-1
 293 0 l 1,11,-1
 190 0 l 1,12,-1
 190 1039 l 1,13,-1
 293 1039 l 1,14,-1
 293 850 l 1,15,16
 348 948 348 948 438 1002 c 128,-1,17
 528 1056 528 1056 632 1056 c 0,18,19
 751 1056 751 1056 827.5 1003.5 c 128,-1,20
 904 951 904 951 940 855.5 c 128,-1,21
 976 760 976 760 976 634 c 2,22,-1
 976 0 l 1,0,-1
EndSplineSet
EndChar

StartChar: o
Encoding: 111 111 82
Width: 1146
GlyphClass: 1
Flags: W
LayerCount: 2
Fore
SplineSet
577 -20 m 256,0,1
 442 -20 442 -20 335.5 51.5 c 128,-1,2
 229 123 229 123 167 244.5 c 128,-1,3
 105 366 105 366 105 516 c 256,4,5
 105 666 105 666 167 787.5 c 128,-1,6
 229 909 229 909 335.5 980.5 c 128,-1,7
 442 1052 442 1052 577 1052 c 256,8,9
 712 1052 712 1052 818 980.5 c 128,-1,10
 924 909 924 909 986 787.5 c 128,-1,11
 1048 666 1048 666 1048 516 c 256,12,13
 1048 366 1048 366 986 244.5 c 128,-1,14
 924 123 924 123 818 51.5 c 128,-1,15
 712 -20 712 -20 577 -20 c 256,0,1
577 82 m 0,16,17
 740 82 740 82 840 207 c 0,18,19
 935 324 935 324 935 516 c 256,20,21
 935 708 935 708 840 825 c 0,22,23
 739 950 739 950 577 950 c 0,24,25
 425 950 425 950 316 824 c 0,26,27
 218 708 218 708 218 516 c 256,28,29
 218 324 218 324 316 208 c 0,30,31
 424 82 424 82 577 82 c 0,16,17
EndSplineSet
Substitution2: "Single Substitution lookup 3 subtable" ordmasculine
Substitution2: "Single Substitution lookup 2 subtable" ordmasculine
EndChar

StartChar: p
Encoding: 112 112 83
Width: 1141
GlyphClass: 1
Flags: W
LayerCount: 2
Fore
SplineSet
296 -440 m 1,0,-1
 192 -440 l 1,1,-1
 192 1039 l 1,2,-1
 296 1039 l 1,3,-1
 296 876 l 1,4,5
 414 1060 414 1060 633 1060 c 0,6,7
 760 1060 760 1060 851 987.5 c 128,-1,8
 942 915 942 915 990 792.5 c 128,-1,9
 1038 670 1038 670 1038 520 c 0,10,11
 1038 368 1038 368 989.5 245.5 c 128,-1,12
 941 123 941 123 850.5 51.5 c 128,-1,13
 760 -20 760 -20 632 -20 c 0,14,15
 415 -20 415 -20 296 163 c 1,16,-1
 296 -440 l 1,0,-1
603 67 m 0,17,18
 752 67 752 67 843 188 c 128,-1,19
 934 309 934 309 934 520 c 0,20,21
 934 701 934 701 857 826 c 0,22,23
 770 968 770 968 603 968 c 0,24,25
 498 968 498 968 427.5 908 c 128,-1,26
 357 848 357 848 321 747 c 128,-1,27
 285 646 285 646 285 520 c 0,28,29
 285 393 285 393 324.5 281.5 c 128,-1,30
 364 170 364 170 459 107 c 0,31,32
 519 67 519 67 603 67 c 0,17,18
EndSplineSet
EndChar

StartChar: q
Encoding: 113 113 84
Width: 1143
GlyphClass: 1
Flags: W
LayerCount: 2
Fore
SplineSet
964 -440 m 1,0,-1
 858 -440 l 1,1,-1
 858 163 l 1,2,3
 796 70 796 70 717 25 c 128,-1,4
 638 -20 638 -20 519 -20 c 0,5,6
 391 -20 391 -20 301 53 c 128,-1,7
 211 126 211 126 164 248.5 c 128,-1,8
 117 371 117 371 117 520 c 0,9,10
 117 746 117 746 219 899 c 0,11,12
 328 1060 328 1060 522 1060 c 0,13,14
 735 1060 735 1060 858 877 c 1,15,-1
 858 1039 l 1,16,-1
 964 1039 l 1,17,-1
 964 -440 l 1,0,-1
547 67 m 0,18,19
 699 67 699 67 783 189.5 c 128,-1,20
 867 312 867 312 867 520 c 0,21,22
 867 650 867 650 826 760.5 c 128,-1,23
 785 871 785 871 692 931 c 0,24,25
 631 969 631 969 547 969 c 0,26,27
 436 969 436 969 364 905.5 c 128,-1,28
 292 842 292 842 258.5 740 c 128,-1,29
 225 638 225 638 225 520 c 0,30,31
 225 334 225 334 299 209 c 0,32,33
 383 67 383 67 547 67 c 0,18,19
EndSplineSet
EndChar

StartChar: r
Encoding: 114 114 85
Width: 811
GlyphClass: 1
Flags: W
LayerCount: 2
Fore
SplineSet
300 0 m 1,0,-1
 190 0 l 1,1,-1
 190 1039 l 1,2,-1
 302 1039 l 1,3,-1
 302 802 l 1,4,5
 319 878 319 878 349 919 c 128,-1,6
 379 960 379 960 422.5 990.5 c 128,-1,7
 466 1021 466 1021 518 1037.5 c 128,-1,8
 570 1054 570 1054 621 1054 c 0,9,10
 652 1054 652 1054 703 1043 c 0,11,12
 742 1036 742 1036 775 1018 c 1,13,-1
 749 914 l 1,14,15
 731 929 731 929 704 942 c 128,-1,16
 677 955 677 955 650 960 c 0,17,18
 643 962 643 962 633 962.5 c 128,-1,19
 623 963 623 963 611 964 c 0,20,21
 460 964 460 964 380 815.5 c 128,-1,22
 300 667 300 667 300 428 c 2,23,-1
 300 0 l 1,0,-1
EndSplineSet
EndChar

StartChar: s
Encoding: 115 115 86
Width: 870
GlyphClass: 1
Flags: W
LayerCount: 2
Fore
SplineSet
448 -21 m 0,0,1
 314 -21 314 -21 213 54 c 0,2,3
 107 132 107 132 80 263 c 1,4,-1
 180 307 l 1,5,6
 207 141 207 141 366 91 c 0,7,8
 414 76 414 76 467 76 c 0,9,10
 636 76 636 76 659 249 c 1,11,-1
 659 253 l 2,12,13
 659 319 659 319 629 357 c 128,-1,14
 599 395 599 395 551.5 422.5 c 128,-1,15
 504 450 504 450 449.5 475 c 128,-1,16
 395 500 395 500 338.5 526 c 128,-1,17
 282 552 282 552 237 586 c 0,18,19
 131 666 131 666 130 769 c 0,20,21
 130 868 130 868 195 951 c 0,22,23
 278 1056 278 1056 410 1056 c 0,24,25
 652 1056 652 1056 750 829 c 1,26,-1
 659 787 l 1,27,28
 623 876 623 876 587 906 c 0,29,30
 524 960 524 960 437 960 c 0,31,32
 304 960 304 960 256 853 c 0,33,34
 241 819 241 819 241 777 c 0,35,36
 241 705 241 705 328 655 c 0,37,38
 366 633 366 633 413.5 612.5 c 128,-1,39
 461 592 461 592 510 569 c 128,-1,40
 559 546 559 546 606 519.5 c 128,-1,41
 653 493 653 493 691 459 c 0,42,43
 772 385 772 385 772 285 c 2,44,-1
 772 283 l 2,45,46
 772 203 772 203 737.5 141 c 128,-1,47
 703 79 703 79 662 46 c 0,48,49
 579 -21 579 -21 448 -21 c 0,0,1
EndSplineSet
Substitution2: "'hist' Historical Forms lookup 20 subtable" longs
Substitution2: "'aalt' Access All Alternates lookup 0 subtable" longs
EndChar

StartChar: t
Encoding: 116 116 87
Width: 659
GlyphClass: 1
Flags: W
LayerCount: 2
Fore
SplineSet
440 -20 m 0,0,1
 358 -20 358 -20 309.5 14 c 128,-1,2
 261 48 261 48 240.5 113.5 c 128,-1,3
 220 179 220 179 220 270 c 2,4,-1
 220 956 l 1,5,-1
 57 956 l 1,6,-1
 57 1039 l 1,7,-1
 220 1039 l 1,8,-1
 220 1231 l 1,9,-1
 330 1336 l 1,10,-1
 330 1039 l 1,11,-1
 595 1039 l 1,12,-1
 595 956 l 1,13,-1
 330 956 l 1,14,-1
 330 248 l 2,15,16
 330 154 330 154 370.5 107 c 128,-1,17
 411 60 411 60 472 60 c 0,18,19
 514 60 514 60 556 80 c 1,20,-1
 556 -5 l 1,21,22
 514 -20 514 -20 440 -20 c 0,0,1
EndSplineSet
EndChar

StartChar: u
Encoding: 117 117 88
Width: 1124
GlyphClass: 1
Flags: W
LayerCount: 2
Fore
SplineSet
507 -23 m 0,0,1
 391 -23 391 -23 315 32 c 128,-1,2
 239 87 239 87 202 187.5 c 128,-1,3
 165 288 165 288 165 422 c 2,4,-1
 165 1039 l 1,5,-1
 268 1039 l 1,6,-1
 268 405 l 2,7,8
 268 319 268 319 289 239.5 c 128,-1,9
 310 160 310 160 362 109 c 128,-1,10
 414 58 414 58 504 58 c 0,11,12
 586 58 586 58 665.5 107 c 128,-1,13
 745 156 745 156 796.5 239 c 128,-1,14
 848 322 848 322 848 424 c 2,15,-1
 848 1039 l 1,16,-1
 949 1039 l 1,17,-1
 949 0 l 1,18,-1
 848 0 l 1,19,-1
 848 213 l 1,20,21
 826 150 826 150 780.5 100 c 128,-1,22
 735 50 735 50 665.5 13.5 c 128,-1,23
 596 -23 596 -23 507 -23 c 0,0,1
EndSplineSet
EndChar

StartChar: v
Encoding: 118 118 89
Width: 965
GlyphClass: 1
Flags: W
LayerCount: 2
Fore
SplineSet
539 0 m 1,0,-1
 436 0 l 1,1,-1
 60 1039 l 1,2,-1
 180 1039 l 1,3,-1
 487 139 l 1,4,-1
 795 1039 l 1,5,-1
 910 1039 l 1,6,-1
 539 0 l 1,0,-1
EndSplineSet
EndChar

StartChar: w
Encoding: 119 119 90
Width: 1459
GlyphClass: 1
Flags: W
LayerCount: 2
Fore
SplineSet
1113 0 m 1,0,-1
 996 0 l 1,1,-1
 737 882 l 1,2,-1
 467 0 l 1,3,-1
 351 0 l 1,4,-1
 72 1039 l 1,5,-1
 189 1039 l 1,6,-1
 420 159 l 1,7,-1
 679 1039 l 1,8,-1
 788 1039 l 1,9,-1
 1047 162 l 1,10,-1
 1274 1039 l 1,11,-1
 1392 1039 l 1,12,-1
 1113 0 l 1,0,-1
EndSplineSet
EndChar

StartChar: x
Encoding: 120 120 91
Width: 912
GlyphClass: 1
Flags: W
LayerCount: 2
Fore
SplineSet
868 0 m 1,0,-1
 736 0 l 1,1,-1
 471 429 l 1,2,-1
 204 0 l 1,3,-1
 70 0 l 1,4,-1
 414 523 l 1,5,-1
 70 1039 l 1,6,-1
 204 1039 l 1,7,-1
 470 613 l 1,8,-1
 739 1039 l 1,9,-1
 876 1039 l 1,10,-1
 530 519 l 1,11,-1
 868 0 l 1,0,-1
EndSplineSet
EndChar

StartChar: y
Encoding: 121 121 92
Width: 990
GlyphClass: 1
Flags: W
LayerCount: 2
Fore
SplineSet
399 -432 m 1,0,-1
 283 -432 l 1,1,-1
 456 7 l 1,2,-1
 57 1039 l 1,3,-1
 184 1039 l 1,4,-1
 506 143 l 1,5,-1
 817 1039 l 1,6,-1
 942 1039 l 1,7,-1
 399 -432 l 1,0,-1
EndSplineSet
EndChar

StartChar: z
Encoding: 122 122 93
Width: 933
GlyphClass: 1
Flags: W
LayerCount: 2
Fore
SplineSet
852 0 m 1,0,-1
 78 0 l 1,1,-1
 78 98 l 1,2,-1
 740 946 l 1,3,-1
 107 946 l 1,4,-1
 107 1039 l 1,5,-1
 852 1039 l 1,6,-1
 852 930 l 1,7,-1
 198 92 l 1,8,-1
 852 92 l 1,9,-1
 852 0 l 1,0,-1
EndSplineSet
EndChar

StartChar: braceleft
Encoding: 123 123 94
Width: 593
GlyphClass: 1
Flags: W
LayerCount: 2
Fore
SplineSet
485 -107 m 1,0,-1
 462 -106 l 2,1,2
 450 -105 450 -105 403 -105 c 0,3,4
 340 -105 340 -105 268 -56 c 1,5,6
 232 -16 232 -16 232 85 c 2,7,-1
 226 462 l 1,8,9
 226 461 226 461 234 453 c 1,10,-1
 234 464 l 2,11,12
 234 548 234 548 100 596 c 1,13,-1
 100 689 l 1,14,15
 163 702 163 702 197.5 743.5 c 128,-1,16
 232 785 232 785 232 850 c 2,17,-1
 232 1280 l 2,18,19
 232 1376 232 1376 275.5 1424.5 c 128,-1,20
 319 1473 319 1473 424 1473 c 0,21,22
 476 1473 476 1473 507 1475 c 1,23,-1
 509 1474 l 1,24,-1
 509 1420 l 1,25,26
 493 1422 493 1422 473 1423 c 0,27,28
 414 1420 414 1420 404 1417 c 0,29,30
 334 1400 334 1400 334 1346 c 2,31,-1
 334 838 l 2,32,33
 334 769 334 769 288.5 722.5 c 128,-1,34
 243 676 243 676 133 635 c 1,35,36
 241 600 241 600 287.5 564 c 128,-1,37
 334 528 334 528 334 470 c 2,38,-1
 334 104 l 2,39,40
 334 -57 334 -57 484 -57 c 0,41,42
 502 -57 502 -57 509 -53 c 1,43,-1
 509 -106 l 1,44,-1
 485 -107 l 1,0,-1
EndSplineSet
EndChar

StartChar: bar
Encoding: 124 124 95
Width: 623
GlyphClass: 1
Flags: W
LayerCount: 2
Fore
SplineSet
348 -514 m 1,0,-1
 273 -514 l 1,1,-1
 273 1535 l 1,2,-1
 348 1535 l 1,3,-1
 348 -514 l 1,0,-1
EndSplineSet
EndChar

StartChar: braceright
Encoding: 125 125 96
Width: 593
GlyphClass: 1
Flags: W
LayerCount: 2
Fore
SplineSet
84 -107 m 1,0,-1
 84 -53 l 1,1,2
 95 -57 95 -57 109 -57 c 0,3,4
 259 -57 259 -57 259 104 c 2,5,-1
 259 470 l 2,6,7
 259 528 259 528 307 565.5 c 128,-1,8
 355 603 355 603 460 635 c 1,9,10
 342 677 342 677 300.5 724 c 128,-1,11
 259 771 259 771 259 838 c 2,12,-1
 259 1346 l 2,13,14
 259 1422 259 1422 130 1422 c 0,15,16
 97 1422 97 1422 84 1420 c 1,17,-1
 84 1475 l 1,18,-1
 93 1475 l 2,19,20
 107 1473 107 1473 168 1473 c 0,21,22
 269 1473 269 1473 315 1427.5 c 128,-1,23
 361 1382 361 1382 361 1280 c 2,24,-1
 361 850 l 2,25,26
 361 789 361 789 393.5 746 c 128,-1,27
 426 703 426 703 493 689 c 1,28,-1
 493 596 l 1,29,30
 361 549 361 549 361 466 c 2,31,-1
 361 94 l 2,32,33
 361 -105 361 -105 191 -105 c 0,34,35
 110 -105 110 -105 104 -106 c 2,36,-1
 84 -107 l 1,0,-1
EndSplineSet
EndChar

StartChar: asciitilde
Encoding: 126 126 97
Width: 1166
GlyphClass: 1
Flags: W
LayerCount: 2
Fore
SplineSet
742 381 m 0,0,1
 668 381 668 381 599 445 c 0,2,3
 572 470 572 470 534 511 c 0,4,5
 503 546 503 546 480 562 c 0,6,7
 449 583 449 583 409 583 c 0,8,9
 348 583 348 583 318 528 c 0,10,11
 294 487 294 487 294 408 c 1,12,-1
 229 408 l 1,13,14
 229 510 229 510 274 577 c 0,15,16
 321 648 321 648 405 648 c 0,17,18
 495 648 495 648 564 580 c 0,19,20
 639 500 639 500 659 484 c 0,21,22
 698 450 698 450 748 450 c 0,23,24
 809 450 809 450 838 503 c 128,-1,25
 867 556 867 556 867 642 c 1,26,-1
 940 642 l 1,27,28
 940 518 940 518 887 449.5 c 128,-1,29
 834 381 834 381 742 381 c 0,0,1
EndSplineSet
EndChar

StartChar: exclamdown
Encoding: 161 161 99
Width: 629
GlyphClass: 1
Flags: W
LayerCount: 2
Fore
SplineSet
394 838 m 1,0,-1
 232 838 l 1,1,-1
 232 997 l 1,2,-1
 394 997 l 1,3,-1
 394 838 l 1,0,-1
382 -438 m 1,4,-1
 245 -438 l 1,5,-1
 273 635 l 1,6,-1
 353 635 l 1,7,-1
 382 -438 l 1,4,-1
EndSplineSet
EndChar

StartChar: cent
Encoding: 162 162 100
Width: 1147
GlyphClass: 1
Flags: W
LayerCount: 2
Fore
SplineSet
646 -206 m 1,0,-1
 571 -206 l 1,1,-1
 571 -13 l 1,2,3
 442 -1 442 -1 358 70 c 128,-1,4
 274 141 274 141 232 253.5 c 128,-1,5
 190 366 190 366 190 497 c 0,6,7
 190 616 190 616 229 728.5 c 128,-1,8
 268 841 268 841 351 917 c 128,-1,9
 434 993 434 993 571 1010 c 1,10,-1
 571 1199 l 1,11,-1
 646 1199 l 1,12,-1
 646 1010 l 1,13,14
 757 996 757 996 846.5 933 c 128,-1,15
 936 870 936 870 980 769 c 1,16,-1
 866 719 l 1,17,18
 842 796 842 796 770 848.5 c 128,-1,19
 698 901 698 901 611 901 c 0,20,21
 458 901 458 901 379 771 c 0,22,23
 313 660 313 660 313 497 c 0,24,25
 313 332 313 332 378 222 c 0,26,27
 455 92 455 92 611 92 c 0,28,29
 692 92 692 92 765.5 140.5 c 128,-1,30
 839 189 839 189 866 275 c 1,31,-1
 970 229 l 1,32,33
 928 117 928 117 843 54.5 c 128,-1,34
 758 -8 758 -8 646 -16 c 1,35,-1
 646 -206 l 1,0,-1
EndSplineSet
EndChar

StartChar: sterling
Encoding: 163 163 101
Width: 1263
GlyphClass: 1
Flags: W
LayerCount: 2
Fore
SplineSet
1183 0 m 1,0,-1
 178 0 l 1,1,-1
 178 72 l 1,2,-1
 175 75 l 1,3,4
 188 75 188 75 248 144 c 0,5,6
 324 229 324 229 369 297 c 0,7,8
 423 382 423 382 423 456 c 0,9,10
 423 529 423 529 395 653 c 1,11,-1
 180 653 l 1,12,-1
 180 751 l 1,13,-1
 370 751 l 1,14,15
 316 900 316 900 316 1008 c 0,16,17
 316 1183 316 1183 414 1302 c 0,18,19
 517 1428 517 1428 695 1428 c 0,20,21
 817 1428 817 1428 912 1353 c 0,22,23
 1008 1273 1008 1273 1051 1157 c 1,24,25
 1005 1139 1005 1139 957 1122 c 1,26,27
 925 1213 925 1213 855.5 1271.5 c 128,-1,28
 786 1330 786 1330 695 1330 c 0,29,30
 567 1330 567 1330 490.5 1241 c 128,-1,31
 414 1152 414 1152 414 1010 c 0,32,33
 414 918 414 918 467 751 c 1,34,-1
 938 751 l 1,35,-1
 938 653 l 1,36,-1
 495 653 l 1,37,38
 507 602 507 602 520 469 c 1,39,40
 520 310 520 310 382 157 c 0,41,42
 335 106 335 106 335 99 c 1,43,-1
 1183 99 l 1,44,-1
 1183 0 l 1,0,-1
EndSplineSet
EndChar

StartChar: currency
Encoding: 164 164 102
Width: 1392
GlyphClass: 1
Flags: W
LayerCount: 2
Fore
SplineSet
1067 184 m 1,0,-1
 962 288 l 1,1,2
 844 194 844 194 694 194 c 0,3,4
 543 194 543 194 424 288 c 1,5,-1
 322 184 l 1,6,7
 304 202 304 202 285.5 223 c 128,-1,8
 267 244 267 244 249 262 c 1,9,-1
 352 365 l 1,10,11
 258 483 258 483 258 633 c 0,12,13
 258 778 258 778 352 896 c 1,14,-1
 251 996 l 1,15,-1
 325 1076 l 1,16,17
 358 1043 358 1043 391 1007 c 2,18,-1
 426 971 l 1,19,20
 549 1067 549 1067 698 1067 c 0,21,22
 844 1067 844 1067 962 973 c 1,23,-1
 1065 1074 l 1,24,-1
 1140 1000 l 1,25,-1
 1039 898 l 1,26,27
 1133 778 1133 778 1133 631 c 0,28,29
 1133 479 1133 479 1039 363 c 1,30,-1
 1140 262 l 1,31,-1
 1067 184 l 1,0,-1
694 297 m 0,32,33
 771 297 771 297 847.5 336 c 128,-1,34
 924 375 924 375 975 449 c 128,-1,35
 1026 523 1026 523 1026 630 c 0,36,37
 1026 716 1026 716 982 791.5 c 128,-1,38
 938 867 938 867 862.5 913.5 c 128,-1,39
 787 960 787 960 695 960 c 0,40,41
 615 960 615 960 538.5 919.5 c 128,-1,42
 462 879 462 879 412 804.5 c 128,-1,43
 362 730 362 730 362 627 c 0,44,45
 362 543 362 543 404 467.5 c 128,-1,46
 446 392 446 392 520.5 344.5 c 128,-1,47
 595 297 595 297 694 297 c 0,32,33
EndSplineSet
EndChar

StartChar: yen
Encoding: 165 165 103
Width: 1305
GlyphClass: 1
Flags: W
LayerCount: 2
Fore
SplineSet
709 0 m 1,0,-1
 597 0 l 1,1,-1
 597 340 l 1,2,-1
 297 340 l 1,3,-1
 297 423 l 1,4,-1
 597 423 l 1,5,-1
 597 549 l 1,6,-1
 297 549 l 1,7,-1
 297 631 l 1,8,-1
 557 631 l 1,9,-1
 79 1413 l 1,10,-1
 208 1413 l 1,11,-1
 654 694 l 1,12,-1
 1100 1413 l 1,13,-1
 1226 1413 l 1,14,-1
 749 633 l 1,15,-1
 1011 633 l 1,16,-1
 1011 549 l 1,17,-1
 709 549 l 1,18,-1
 709 423 l 1,19,-1
 1011 423 l 1,20,-1
 1011 340 l 1,21,-1
 709 340 l 1,22,-1
 709 0 l 1,0,-1
EndSplineSet
EndChar

StartChar: brokenbar
Encoding: 166 166 104
Width: 610
GlyphClass: 1
Flags: W
LayerCount: 2
Fore
SplineSet
337 734 m 1,0,-1
 273 734 l 1,1,-1
 273 1475 l 1,2,-1
 337 1475 l 1,3,-1
 337 734 l 1,0,-1
337 -308 m 1,4,-1
 273 -308 l 1,5,-1
 273 416 l 1,6,-1
 337 416 l 1,7,-1
 337 -308 l 1,4,-1
EndSplineSet
EndChar

StartChar: section
Encoding: 167 167 105
Width: 1135
GlyphClass: 1
Flags: W
LayerCount: 2
Fore
SplineSet
573 -18 m 0,0,1
 430 -18 430 -18 327.5 49.5 c 128,-1,2
 225 117 225 117 179 256 c 1,3,-1
 273 292 l 1,4,5
 325 80 325 80 571 80 c 0,6,7
 828 80 828 80 828 270 c 0,8,9
 828 326 828 326 797.5 357.5 c 128,-1,10
 767 389 767 389 709.5 408.5 c 128,-1,11
 652 428 652 428 568 445 c 0,12,13
 461 465 461 465 384.5 495 c 128,-1,14
 308 525 308 525 267.5 578.5 c 128,-1,15
 227 632 227 632 227 727 c 0,16,17
 227 789 227 789 255 846.5 c 128,-1,18
 283 904 283 904 339 948 c 1,19,20
 285 983 285 983 257 1035.5 c 128,-1,21
 229 1088 229 1088 229 1147 c 0,22,23
 229 1235 229 1235 275 1300 c 128,-1,24
 321 1365 321 1365 396 1399.5 c 128,-1,25
 471 1434 471 1434 559 1434 c 0,26,27
 824 1434 824 1434 922 1167 c 1,28,-1
 814 1150 l 1,29,30
 763 1334 763 1334 558 1334 c 0,31,32
 505 1334 505 1334 452 1314.5 c 128,-1,33
 399 1295 399 1295 363.5 1253 c 128,-1,34
 328 1211 328 1211 328 1143 c 0,35,36
 328 1086 328 1086 362.5 1055.5 c 128,-1,37
 397 1025 397 1025 454.5 1007.5 c 128,-1,38
 512 990 512 990 581 976 c 0,39,40
 771 940 771 940 842 886 c 0,41,42
 928 817 928 817 928 688 c 0,43,44
 928 551 928 551 822 471 c 1,45,46
 928 396 928 396 928 268 c 0,47,48
 928 167 928 167 877.5 104 c 128,-1,49
 827 41 827 41 745.5 11.5 c 128,-1,50
 664 -18 664 -18 573 -18 c 0,0,1
705 512 m 1,51,52
 828 562 828 562 828 698 c 0,53,54
 828 795 828 795 730 844 c 0,55,56
 668 876 668 876 535 900 c 0,57,58
 496 907 496 907 461 915 c 1,59,60
 399 890 399 890 363.5 842 c 128,-1,61
 328 794 328 794 328 728 c 0,62,63
 328 607 328 607 511 558 c 2,64,-1
 611 533 l 2,65,66
 642 527 642 527 705 512 c 1,51,52
EndSplineSet
EndChar

StartChar: dieresis
Encoding: 168 168 106
Width: 830
GlyphClass: 1
Flags: W
LayerCount: 2
Fore
SplineSet
323 1239 m 1,0,-1
 174 1239 l 1,1,-1
 174 1413 l 1,2,-1
 323 1413 l 1,3,-1
 323 1239 l 1,0,-1
654 1239 m 1,4,-1
 505 1239 l 1,5,-1
 505 1413 l 1,6,-1
 654 1413 l 1,7,-1
 654 1239 l 1,4,-1
EndSplineSet
EndChar

StartChar: copyright
Encoding: 169 169 107
Width: 1763
GlyphClass: 1
Flags: W
LayerCount: 2
Fore
SplineSet
882 -51 m 0,0,1
 713 -51 713 -51 567.5 20 c 128,-1,2
 422 91 422 91 319 215.5 c 128,-1,3
 216 340 216 340 170 504 c 0,4,5
 143 601 143 601 143 707 c 0,6,7
 143 911 143 911 241.5 1083.5 c 128,-1,8
 340 1256 340 1256 503 1357 c 0,9,10
 676 1464 676 1464 882 1464 c 0,11,12
 1047 1464 1047 1464 1191.5 1393 c 128,-1,13
 1336 1322 1336 1322 1440 1198 c 128,-1,14
 1544 1074 1544 1074 1592 911 c 0,15,16
 1619 813 1619 813 1619 707 c 0,17,18
 1619 535 1619 535 1549.5 386 c 128,-1,19
 1480 237 1480 237 1359 131 c 128,-1,20
 1238 25 1238 25 1080 -23 c 0,21,22
 985 -51 985 -51 882 -51 c 0,0,1
882 34 m 0,23,24
 1059 34 1059 34 1206.5 126.5 c 128,-1,25
 1354 219 1354 219 1444 372 c 128,-1,26
 1534 525 1534 525 1534 707 c 0,27,28
 1534 884 1534 884 1445 1037 c 128,-1,29
 1356 1190 1356 1190 1208.5 1284.5 c 128,-1,30
 1061 1379 1061 1379 882 1379 c 0,31,32
 706 1379 706 1379 556.5 1286.5 c 128,-1,33
 407 1194 407 1194 316.5 1041.5 c 128,-1,34
 226 889 226 889 226 707 c 0,35,36
 226 575 226 575 276.5 454 c 128,-1,37
 327 333 327 333 417 238.5 c 128,-1,38
 507 144 507 144 626 89 c 128,-1,39
 745 34 745 34 882 34 c 0,23,24
898 316 m 0,40,41
 740 316 740 316 650.5 423 c 128,-1,42
 561 530 561 530 561 705 c 0,43,44
 561 813 561 813 598.5 900.5 c 128,-1,45
 636 988 636 988 711 1040.5 c 128,-1,46
 786 1093 786 1093 898 1093 c 0,47,48
 987 1093 987 1093 1066.5 1048 c 128,-1,49
 1146 1003 1146 1003 1182 930 c 1,50,-1
 1106 897 l 1,51,52
 1078 946 1078 946 1021.5 977.5 c 128,-1,53
 965 1009 965 1009 898 1009 c 0,54,55
 811 1009 811 1009 754 966 c 128,-1,56
 697 923 697 923 669.5 853.5 c 128,-1,57
 642 784 642 784 642 705 c 0,58,59
 642 631 642 631 667 561 c 128,-1,60
 692 491 692 491 748 446.5 c 128,-1,61
 804 402 804 402 896 402 c 0,62,63
 958 402 958 402 1016.5 432 c 128,-1,64
 1075 462 1075 462 1104 516 c 1,65,66
 1122 508 1122 508 1143.5 499 c 128,-1,67
 1165 490 1165 490 1182 482 c 1,68,69
 1144 404 1144 404 1067 360 c 128,-1,70
 990 316 990 316 898 316 c 0,40,41
EndSplineSet
EndChar

StartChar: ordfeminine
Encoding: 170 170 108
Width: 810
GlyphClass: 2
Flags: W
LayerCount: 2
Fore
SplineSet
321 712 m 0,0,1
 264 712 264 712 213.5 736 c 128,-1,2
 163 760 163 760 131.5 805.5 c 128,-1,3
 100 851 100 851 100 918 c 0,4,5
 100 1020 100 1020 167 1070 c 128,-1,6
 234 1120 234 1120 351 1120 c 2,7,-1
 575 1120 l 1,8,9
 575 1358 575 1358 390 1358 c 0,10,11
 330 1358 330 1358 280.5 1328 c 128,-1,12
 231 1298 231 1298 205 1259 c 1,13,-1
 131 1305 l 1,14,15
 221 1434 221 1434 394 1434 c 0,16,17
 524 1434 524 1434 593 1357.5 c 128,-1,18
 662 1281 662 1281 662 1155 c 2,19,-1
 662 726 l 1,20,-1
 586 726 l 1,21,-1
 578 864 l 1,22,23
 491 712 491 712 321 712 c 0,0,1
347 792 m 0,24,25
 440 792 440 792 507.5 867.5 c 128,-1,26
 575 943 575 943 575 1044 c 1,27,-1
 362 1044 l 2,28,29
 296 1044 296 1044 249.5 1010 c 128,-1,30
 203 976 203 976 203 918 c 0,31,32
 203 861 203 861 248 826.5 c 128,-1,33
 293 792 293 792 347 792 c 0,24,25
EndSplineSet
EndChar

StartChar: guillemotleft
Encoding: 171 171 109
Width: 970
GlyphClass: 1
Flags: W
LayerCount: 2
Fore
SplineSet
426 203 m 1,0,-1
 87 511 l 1,1,-1
 426 818 l 1,2,-1
 426 684 l 1,3,-1
 225 511 l 1,4,-1
 426 336 l 1,5,-1
 426 203 l 1,0,-1
793 203 m 1,6,-1
 451 511 l 1,7,-1
 793 818 l 1,8,-1
 793 684 l 1,9,-1
 589 511 l 1,10,-1
 793 336 l 1,11,-1
 793 203 l 1,6,-1
EndSplineSet
EndChar

StartChar: logicalnot
Encoding: 172 172 110
Width: 1282
GlyphClass: 1
Flags: W
LayerCount: 2
Fore
SplineSet
1011 292 m 1,0,-1
 914 292 l 1,1,-1
 914 700 l 1,2,-1
 165 700 l 1,3,-1
 165 794 l 1,4,-1
 1011 794 l 1,5,-1
 1011 292 l 1,0,-1
EndSplineSet
EndChar

StartChar: uni00AD
Encoding: 173 173 111
Width: 971
GlyphClass: 1
Flags: W
LayerCount: 2
Fore
SplineSet
798 610 m 1,0,-1
 173 610 l 1,1,-1
 173 689 l 1,2,-1
 798 689 l 1,3,-1
 798 610 l 1,0,-1
EndSplineSet
EndChar

StartChar: registered
Encoding: 174 174 112
Width: 1763
GlyphClass: 1
Flags: W
LayerCount: 2
Fore
SplineSet
882 -49 m 0,0,1
 713 -49 713 -49 567.5 22 c 128,-1,2
 422 93 422 93 319 217.5 c 128,-1,3
 216 342 216 342 170 506 c 0,4,5
 143 603 143 603 143 709 c 0,6,7
 143 913 143 913 241.5 1085.5 c 128,-1,8
 340 1258 340 1258 503 1359 c 0,9,10
 676 1466 676 1466 882 1466 c 0,11,12
 1047 1466 1047 1466 1191.5 1395 c 128,-1,13
 1336 1324 1336 1324 1440 1200 c 128,-1,14
 1544 1076 1544 1076 1592 913 c 0,15,16
 1619 815 1619 815 1619 709 c 0,17,18
 1619 537 1619 537 1549.5 388 c 128,-1,19
 1480 239 1480 239 1359 133 c 128,-1,20
 1238 27 1238 27 1080 -21 c 0,21,22
 985 -49 985 -49 882 -49 c 0,0,1
882 28 m 0,23,24
 1054 28 1054 28 1205.5 118.5 c 128,-1,25
 1357 209 1357 209 1449 363 c 0,26,27
 1542 523 1542 523 1542 709 c 0,28,29
 1542 843 1542 843 1491 965.5 c 128,-1,30
 1440 1088 1440 1088 1350 1183 c 128,-1,31
 1260 1278 1260 1278 1139.5 1333.5 c 128,-1,32
 1019 1389 1019 1389 882 1389 c 0,33,34
 702 1389 702 1389 551 1295.5 c 128,-1,35
 400 1202 400 1202 309 1048 c 128,-1,36
 218 894 218 894 218 709 c 0,37,38
 218 532 218 532 306 375.5 c 128,-1,39
 394 219 394 219 545 125 c 0,40,41
 702 28 702 28 882 28 c 0,23,24
1211 310 m 1,42,-1
 1104 310 l 1,43,-1
 923 653 l 1,44,-1
 734 653 l 1,45,-1
 734 310 l 1,46,-1
 643 310 l 1,47,-1
 643 1093 l 1,48,-1
 935 1093 l 2,49,50
 1185 1093 1185 1093 1185 870 c 0,51,52
 1185 775 1185 775 1136.5 722 c 128,-1,53
 1088 669 1088 669 1007 658 c 1,54,-1
 1211 310 l 1,42,-1
935 731 m 2,55,56
 1105 731 1105 731 1105 870 c 0,57,58
 1105 1010 1105 1010 935 1010 c 2,59,-1
 723 1010 l 1,60,-1
 723 731 l 1,61,-1
 935 731 l 2,55,56
EndSplineSet
EndChar

StartChar: macron
Encoding: 175 175 113
Width: 872
GlyphClass: 1
Flags: W
LayerCount: 2
Fore
SplineSet
694 1203 m 1,0,-1
 165 1203 l 1,1,-1
 165 1316 l 1,2,-1
 694 1316 l 1,3,-1
 694 1203 l 1,0,-1
EndSplineSet
EndChar

StartChar: degree
Encoding: 176 176 114
Width: 984
GlyphClass: 1
Flags: W
LayerCount: 2
Fore
SplineSet
493 852 m 256,0,1
 417 852 417 852 350.5 889.5 c 128,-1,2
 284 927 284 927 243.5 992.5 c 128,-1,3
 203 1058 203 1058 203 1143 c 0,4,5
 203 1220 203 1220 240.5 1286 c 128,-1,6
 278 1352 278 1352 343.5 1393 c 128,-1,7
 409 1434 409 1434 493 1434 c 0,8,9
 569 1434 569 1434 635 1395.5 c 128,-1,10
 701 1357 701 1357 741.5 1290.5 c 128,-1,11
 782 1224 782 1224 782 1143 c 0,12,13
 782 1059 782 1059 741.5 993 c 128,-1,14
 701 927 701 927 635 889.5 c 128,-1,15
 569 852 569 852 493 852 c 256,0,1
493 911 m 0,16,17
 538 911 538 911 591.5 936 c 128,-1,18
 645 961 645 961 683.5 1012.5 c 128,-1,19
 722 1064 722 1064 722 1143 c 0,20,21
 722 1236 722 1236 654 1305.5 c 128,-1,22
 586 1375 586 1375 493 1375 c 0,23,24
 397 1375 397 1375 329 1305 c 128,-1,25
 261 1235 261 1235 261 1143 c 0,26,27
 261 1049 261 1049 329 980 c 128,-1,28
 397 911 397 911 493 911 c 0,16,17
EndSplineSet
EndChar

StartChar: plusminus
Encoding: 177 177 115
Width: 1321
GlyphClass: 1
Flags: W
LayerCount: 2
Fore
SplineSet
701 107 m 1,0,-1
 621 107 l 1,1,-1
 621 587 l 1,2,-1
 163 587 l 1,3,-1
 163 666 l 1,4,-1
 621 666 l 1,5,-1
 621 1142 l 1,6,-1
 701 1142 l 1,7,-1
 701 666 l 1,8,-1
 1159 666 l 1,9,-1
 1159 587 l 1,10,-1
 701 587 l 1,11,-1
 701 107 l 1,0,-1
1159 -85 m 1,12,-1
 162 -85 l 1,13,-1
 162 -6 l 1,14,-1
 1159 -6 l 1,15,-1
 1159 -85 l 1,12,-1
EndSplineSet
EndChar

StartChar: twosuperior
Encoding: 178 178 116
Width: 898
GlyphClass: 2
Flags: W
LayerCount: 2
Fore
SplineSet
755 490 m 1,0,-1
 124 490 l 1,1,-1
 124 569 l 1,2,3
 254 653 254 653 317 708.5 c 128,-1,4
 380 764 380 764 430 821 c 0,5,6
 523 920 523 920 575.5 1004 c 128,-1,7
 628 1088 628 1088 628 1186 c 0,8,9
 628 1251 628 1251 605 1295 c 128,-1,10
 582 1339 582 1339 538.5 1361 c 128,-1,11
 495 1383 495 1383 445 1383 c 0,12,13
 357 1383 357 1383 303 1320 c 128,-1,14
 249 1257 249 1257 248 1144 c 1,15,-1
 175 1153 l 1,16,17
 175 1267 175 1267 242 1360 c 128,-1,18
 309 1453 309 1453 440 1453 c 0,19,20
 565 1453 565 1453 637 1381.5 c 128,-1,21
 709 1310 709 1310 709 1186 c 0,22,23
 709 1076 709 1076 652 980.5 c 128,-1,24
 595 885 595 885 480 771 c 0,25,26
 392 682 392 682 341 641.5 c 128,-1,27
 290 601 290 601 231 565 c 0,28,29
 223 560 223 560 216 554 c 1,30,-1
 755 554 l 1,31,-1
 755 490 l 1,0,-1
EndSplineSet
EndChar

StartChar: threesuperior
Encoding: 179 179 117
Width: 906
GlyphClass: 2
Flags: W
LayerCount: 2
Fore
SplineSet
429 477 m 0,0,1
 345 477 345 477 275.5 506 c 128,-1,2
 206 535 206 535 164 594.5 c 128,-1,3
 122 654 122 654 122 746 c 1,4,-1
 157 751 l 1,5,-1
 192 754 l 1,6,7
 192 687 192 687 224.5 640 c 128,-1,8
 257 593 257 593 311 568 c 128,-1,9
 365 543 365 543 429 543 c 0,10,11
 492 543 492 543 551 572 c 128,-1,12
 610 601 610 601 644 663 c 0,13,14
 664 703 664 703 664 755 c 0,15,16
 664 822 664 822 633.5 867.5 c 128,-1,17
 603 913 603 913 552 935.5 c 128,-1,18
 501 958 501 958 440 958 c 2,19,-1
 390 958 l 1,20,-1
 390 1031 l 1,21,-1
 440 1031 l 2,22,23
 486 1031 486 1031 525 1049.5 c 128,-1,24
 564 1068 564 1068 588 1106 c 128,-1,25
 612 1144 612 1144 612 1205 c 0,26,27
 612 1261 612 1261 586 1302 c 128,-1,28
 560 1343 560 1343 517.5 1364.5 c 128,-1,29
 475 1386 475 1386 426 1386 c 0,30,31
 344 1386 344 1386 290.5 1335 c 128,-1,32
 237 1284 237 1284 237 1208 c 1,33,-1
 166 1219 l 1,34,35
 166 1327 166 1327 239 1391 c 128,-1,36
 312 1455 312 1455 426 1455 c 0,37,38
 494 1455 494 1455 553 1427 c 128,-1,39
 612 1399 612 1399 648.5 1345 c 128,-1,40
 685 1291 685 1291 685 1214 c 0,41,42
 685 1143 685 1143 652 1088 c 128,-1,43
 619 1033 619 1033 561 1001 c 1,44,45
 729 949 729 949 735 755 c 0,46,47
 735 664 735 664 695 602 c 128,-1,48
 655 540 655 540 586.5 508.5 c 128,-1,49
 518 477 518 477 429 477 c 0,0,1
EndSplineSet
EndChar

StartChar: acute
Encoding: 180 180 118
Width: 529
GlyphClass: 1
Flags: W
LayerCount: 2
Fore
SplineSet
192 1129 m 1,0,-1
 83 1129 l 1,1,-1
 293 1413 l 1,2,-1
 451 1413 l 1,3,-1
 192 1129 l 1,0,-1
EndSplineSet
EndChar

StartChar: uni00B5
Encoding: 181 181 119
Width: 1325
GlyphClass: 1
Flags: W
LayerCount: 2
Fore
SplineSet
389 -267 m 1,0,-1
 286 -267 l 1,1,-1
 286 1039 l 1,2,-1
 409 1039 l 1,3,-1
 409 410 l 2,4,5
 409 83 409 83 640 83 c 0,6,7
 718 83 718 83 794 127.5 c 128,-1,8
 870 172 870 172 920.5 249 c 128,-1,9
 971 326 971 326 971 426 c 2,10,-1
 971 1039 l 1,11,-1
 1093 1039 l 1,12,-1
 1093 0 l 1,13,-1
 971 0 l 1,14,-1
 971 218 l 1,15,16
 946 150 946 150 898.5 99.5 c 128,-1,17
 851 49 851 49 781 13 c 128,-1,18
 711 -23 711 -23 624 -23 c 0,19,20
 510 -23 510 -23 412 39 c 1,21,-1
 389 -267 l 1,0,-1
EndSplineSet
EndChar

StartChar: paragraph
Encoding: 182 182 120
Width: 1367
GlyphClass: 1
Flags: W
LayerCount: 2
Fore
SplineSet
716 -247 m 1,0,-1
 600 -247 l 1,1,-1
 600 626 l 1,2,3
 468 626 468 626 356 682.5 c 128,-1,4
 244 739 244 739 183 854 c 0,5,6
 145 927 145 927 145 1019 c 0,7,8
 145 1139 145 1139 207.5 1227.5 c 128,-1,9
 270 1316 270 1316 373.5 1364.5 c 128,-1,10
 477 1413 477 1413 597 1413 c 2,11,-1
 716 1413 l 1,12,-1
 716 -247 l 1,0,-1
1093 -247 m 1,13,-1
 976 -247 l 1,14,-1
 976 1413 l 1,15,-1
 1093 1413 l 1,16,-1
 1093 -247 l 1,13,-1
EndSplineSet
EndChar

StartChar: periodcentered
Encoding: 183 183 121
Width: 656
GlyphClass: 1
Flags: W
LayerCount: 2
Fore
SplineSet
327 721 m 256,0,1
 280 721 280 721 247.5 754.5 c 128,-1,2
 215 788 215 788 215 833 c 0,3,4
 215 882 215 882 246.5 914 c 128,-1,5
 278 946 278 946 327 946 c 0,6,7
 375 946 375 946 407 913 c 128,-1,8
 439 880 439 880 439 833 c 0,9,10
 439 788 439 788 406.5 754.5 c 128,-1,11
 374 721 374 721 327 721 c 256,0,1
EndSplineSet
EndChar

StartChar: cedilla
Encoding: 184 184 122
Width: 584
GlyphClass: 2
Flags: W
AnchorPoint: "Anchor-3" 277 -500 basemark 0
LayerCount: 2
Fore
SplineSet
268 -499 m 0,0,1
 208 -499 208 -499 160 -462 c 0,2,3
 114 -431 114 -431 96 -381 c 1,4,-1
 174 -336 l 1,5,6
 178 -365 178 -365 206 -389 c 0,7,8
 238 -417 238 -417 274 -417 c 0,9,10
 322 -417 322 -417 352.5 -385 c 128,-1,11
 383 -353 383 -353 383 -309 c 0,12,13
 383 -255 383 -255 333 -215 c 0,14,15
 277 -175 277 -175 185 -175 c 2,16,-1
 161 -175 l 1,17,-1
 246 -6 l 1,18,-1
 348 -6 l 1,19,-1
 342 -18 l 2,20,21
 332 -35 332 -35 324 -53 c 2,22,-1
 284 -130 l 1,23,-1
 298 -130 l 2,24,25
 375 -130 375 -130 422.5 -179 c 128,-1,26
 470 -228 470 -228 470 -301 c 0,27,28
 470 -377 470 -377 417 -435 c 0,29,30
 356 -499 356 -499 268 -499 c 0,0,1
EndSplineSet
EndChar

StartChar: onesuperior
Encoding: 185 185 123
Width: 1042
GlyphClass: 2
Flags: W
LayerCount: 2
Fore
SplineSet
579 490 m 1,0,-1
 498 490 l 1,1,-1
 498 1236 l 1,2,-1
 242 1236 l 1,3,-1
 242 1301 l 1,4,-1
 384 1301 l 2,5,6
 439 1301 439 1301 473.5 1334.5 c 128,-1,7
 508 1368 508 1368 508 1426 c 2,8,-1
 508 1441 l 1,9,-1
 579 1441 l 1,10,-1
 579 490 l 1,0,-1
EndSplineSet
EndChar

StartChar: ordmasculine
Encoding: 186 186 124
Width: 862
GlyphClass: 2
Flags: W
LayerCount: 2
Fore
SplineSet
432 714 m 0,0,1
 287 714 287 714 194 817 c 128,-1,2
 101 920 101 920 101 1075 c 0,3,4
 101 1171 101 1171 142.5 1253 c 128,-1,5
 184 1335 184 1335 258.5 1384.5 c 128,-1,6
 333 1434 333 1434 432 1434 c 256,7,8
 531 1434 531 1434 605 1384.5 c 128,-1,9
 679 1335 679 1335 720.5 1252.5 c 128,-1,10
 762 1170 762 1170 762 1075 c 0,11,12
 762 976 762 976 720 894.5 c 128,-1,13
 678 813 678 813 604 763.5 c 128,-1,14
 530 714 530 714 432 714 c 0,0,1
432 803 m 0,15,16
 506 803 506 803 554.5 838.5 c 128,-1,17
 603 874 603 874 626.5 935.5 c 128,-1,18
 650 997 650 997 650 1075 c 0,19,20
 650 1146 650 1146 628 1207.5 c 128,-1,21
 606 1269 606 1269 558 1308 c 128,-1,22
 510 1347 510 1347 432 1347 c 256,23,24
 354 1347 354 1347 305.5 1309 c 128,-1,25
 257 1271 257 1271 234.5 1209.5 c 128,-1,26
 212 1148 212 1148 212 1075 c 0,27,28
 212 997 212 997 235.5 935.5 c 128,-1,29
 259 874 259 874 307.5 838.5 c 128,-1,30
 356 803 356 803 432 803 c 0,15,16
EndSplineSet
EndChar

StartChar: guillemotright
Encoding: 187 187 125
Width: 970
GlyphClass: 1
Flags: W
LayerCount: 2
Fore
SplineSet
175 203 m 1,0,-1
 175 336 l 1,1,-1
 377 511 l 1,2,-1
 175 684 l 1,3,-1
 175 818 l 1,4,-1
 514 511 l 1,5,-1
 175 203 l 1,0,-1
539 203 m 1,6,-1
 539 336 l 1,7,-1
 740 511 l 1,8,-1
 539 684 l 1,9,-1
 539 818 l 1,10,-1
 881 511 l 1,11,-1
 539 203 l 1,6,-1
EndSplineSet
EndChar

StartChar: questiondown
Encoding: 191 191 126
Width: 1034
GlyphClass: 1
Flags: W
LayerCount: 2
Fore
SplineSet
602 838 m 1,0,-1
 440 838 l 1,1,-1
 440 997 l 1,2,-1
 602 997 l 1,3,-1
 602 838 l 1,0,-1
530 -436 m 0,4,5
 354 -436 354 -436 247 -347 c 0,6,7
 132 -251 132 -251 132 -89 c 0,8,9
 132 56 132 56 218 128 c 0,10,11
 256 159 256 159 339.5 206.5 c 128,-1,12
 423 254 423 254 446 289 c 128,-1,13
 469 324 469 324 472 383 c 0,14,15
 473 412 473 412 473 639 c 1,16,-1
 576 639 l 1,17,18
 576 471 576 471 577 425 c 0,19,20
 577 380 577 380 572 341 c 0,21,22
 562 257 562 257 506 213 c 0,23,24
 476 191 476 191 442 172 c 0,25,26
 354 123 354 123 314 91 c 0,27,28
 261 48 261 48 247 -16 c 0,29,30
 241 -49 241 -49 239 -92 c 0,31,32
 239 -207 239 -207 317 -272 c 128,-1,33
 395 -337 395 -337 525 -337 c 0,34,35
 642 -337 642 -337 721 -271 c 0,36,37
 807 -198 807 -198 809 -80 c 1,38,-1
 919 -80 l 1,39,40
 917 -236 917 -236 809 -336 c 128,-1,41
 701 -436 701 -436 530 -436 c 0,4,5
EndSplineSet
EndChar

StartChar: Acircumflex
Encoding: 194 194 129
Width: 1295
GlyphClass: 1
Flags: W
LayerCount: 2
Fore
SplineSet
978 1556 m 1,0,-1
 837 1556 l 1,1,-1
 650 1760 l 1,2,-1
 466 1556 l 1,3,-1
 321 1556 l 1,4,-1
 650 1906 l 1,5,-1
 978 1556 l 1,0,-1
1208 0 m 1,6,-1
 1085 0 l 1,7,-1
 978 308 l 1,8,-1
 320 308 l 1,9,-1
 213 0 l 1,10,-1
 88 0 l 1,11,-1
 604 1413 l 1,12,-1
 694 1413 l 1,13,-1
 1208 0 l 1,6,-1
940 419 m 1,14,-1
 650 1247 l 1,15,-1
 358 419 l 1,16,-1
 940 419 l 1,14,-1
EndSplineSet
Position2: "'cpsp' Capital Spacing lookup 0 subtable" dx=5 dy=0 dh=10 dv=0
EndChar

StartChar: Aring
Encoding: 197 197 132
Width: 1295
GlyphClass: 1
Flags: W
LayerCount: 2
Fore
SplineSet
1208 0 m 1,0,-1
 1085 0 l 1,1,-1
 978 308 l 1,2,-1
 320 308 l 1,3,-1
 213 0 l 1,4,-1
 88 0 l 1,5,-1
 578 1345 l 1,6,7
 525 1368 525 1368 492 1414.5 c 128,-1,8
 459 1461 459 1461 459 1527 c 0,9,10
 459 1576 459 1576 482 1619.5 c 128,-1,11
 505 1663 505 1663 547.5 1689.5 c 128,-1,12
 590 1716 590 1716 646 1716 c 0,13,14
 695 1716 695 1716 739.5 1692.5 c 128,-1,15
 784 1669 784 1669 811.5 1626 c 128,-1,16
 839 1583 839 1583 839 1527 c 0,17,18
 839 1469 839 1469 806 1419.5 c 128,-1,19
 773 1370 773 1370 719 1350 c 1,20,-1
 1208 0 l 1,0,-1
646 1422 m 0,21,22
 688 1422 688 1422 719.5 1452 c 128,-1,23
 751 1482 751 1482 751 1526 c 0,24,25
 751 1568 751 1568 722 1598 c 128,-1,26
 693 1628 693 1628 646 1628 c 256,27,28
 599 1628 599 1628 572 1599.5 c 128,-1,29
 545 1571 545 1571 545 1526 c 0,30,31
 545 1483 545 1483 572 1452.5 c 128,-1,32
 599 1422 599 1422 646 1422 c 0,21,22
940 419 m 1,33,-1
 650 1247 l 1,34,-1
 358 419 l 1,35,-1
 940 419 l 1,33,-1
EndSplineSet
Position2: "'cpsp' Capital Spacing lookup 0 subtable" dx=5 dy=0 dh=10 dv=0
EndChar

StartChar: AE
Encoding: 198 198 133
Width: 1804
GlyphClass: 1
Flags: W
LayerCount: 2
Fore
SplineSet
1690 0 m 1,0,-1
 821 0 l 1,1,-1
 821 308 l 1,2,-1
 321 308 l 1,3,-1
 209 0 l 1,4,-1
 88 0 l 1,5,-1
 601 1413 l 1,6,-1
 1690 1413 l 1,7,-1
 1690 1324 l 1,8,-1
 939 1324 l 1,9,-1
 939 755 l 1,10,-1
 1601 755 l 1,11,-1
 1601 658 l 1,12,-1
 939 658 l 1,13,-1
 939 97 l 1,14,-1
 1690 97 l 1,15,-1
 1690 0 l 1,0,-1
821 421 m 1,16,-1
 821 1324 l 1,17,-1
 676 1324 l 1,18,-1
 355 421 l 1,19,-1
 821 421 l 1,16,-1
EndSplineSet
Position2: "'cpsp' Capital Spacing lookup 0 subtable" dx=5 dy=0 dh=10 dv=0
EndChar

StartChar: Ecircumflex
Encoding: 202 202 137
Width: 1241
GlyphClass: 1
Flags: W
LayerCount: 2
Fore
SplineSet
1008 1556 m 1,0,-1
 867 1556 l 1,1,-1
 680 1760 l 1,2,-1
 496 1556 l 1,3,-1
 351 1556 l 1,4,-1
 680 1906 l 1,5,-1
 1008 1556 l 1,0,-1
1131 0 m 1,6,-1
 228 0 l 1,7,-1
 228 1413 l 1,8,-1
 1131 1413 l 1,9,-1
 1131 1321 l 1,10,-1
 343 1321 l 1,11,-1
 343 751 l 1,12,-1
 1011 751 l 1,13,-1
 1011 664 l 1,14,-1
 343 664 l 1,15,-1
 343 101 l 1,16,-1
 1131 101 l 1,17,-1
 1131 0 l 1,6,-1
EndSplineSet
Position2: "'cpsp' Capital Spacing lookup 0 subtable" dx=5 dy=0 dh=10 dv=0
EndChar

StartChar: Eth
Encoding: 208 208 143
Width: 1427
GlyphClass: 1
Flags: W
LayerCount: 2
Fore
SplineSet
591 0 m 2,0,-1
 244 0 l 1,1,-1
 244 672 l 1,2,-1
 131 672 l 1,3,-1
 131 754 l 1,4,-1
 244 754 l 1,5,-1
 244 1413 l 1,6,-1
 593 1413 l 2,7,8
 926 1413 926 1413 1105.5 1228.5 c 128,-1,9
 1285 1044 1285 1044 1285 696 c 0,10,11
 1285 363 1285 363 1104 181.5 c 128,-1,12
 923 0 923 0 591 0 c 2,0,-1
566 113 m 2,13,14
 824 113 824 113 981 250 c 0,15,16
 1157 406 1157 406 1157 707 c 0,17,18
 1157 890 1157 890 1096.5 1023.5 c 128,-1,19
 1036 1157 1036 1157 910.5 1230 c 128,-1,20
 785 1303 785 1303 589 1303 c 2,21,-1
 371 1303 l 1,22,-1
 371 754 l 1,23,-1
 754 754 l 1,24,-1
 754 672 l 1,25,-1
 371 672 l 1,26,-1
 371 113 l 1,27,-1
 566 113 l 2,13,14
EndSplineSet
Position2: "'cpsp' Capital Spacing lookup 0 subtable" dx=5 dy=0 dh=10 dv=0
EndChar

StartChar: Ocircumflex
Encoding: 212 212 147
Width: 1421
GlyphClass: 1
Flags: W
LayerCount: 2
Fore
SplineSet
1090 1556 m 1,0,-1
 949 1556 l 1,1,-1
 762 1760 l 1,2,-1
 578 1556 l 1,3,-1
 433 1556 l 1,4,-1
 762 1906 l 1,5,-1
 1090 1556 l 1,0,-1
760 -20 m 0,6,7
 463 -20 463 -20 300 187 c 0,8,9
 146 383 146 383 146 707 c 0,10,11
 146 1018 146 1018 290 1213 c 0,12,13
 454 1436 454 1436 762 1436 c 0,14,15
 1067 1436 1067 1436 1231 1213 c 0,16,17
 1375 1018 1375 1018 1375 707 c 0,18,19
 1375 383 1375 383 1221 187 c 0,20,21
 1058 -20 1058 -20 760 -20 c 0,6,7
760 91 m 0,22,23
 893 91 893 91 988 143 c 1,24,25
 1077 187 1077 187 1137.5 275 c 128,-1,26
 1198 363 1198 363 1225 476.5 c 128,-1,27
 1252 590 1252 590 1252 717 c 0,28,29
 1252 984 1252 984 1132 1151 c 0,30,31
 1010 1324 1010 1324 764 1324 c 0,32,33
 511 1324 511 1324 389 1151 c 0,34,35
 269 984 269 984 269 717 c 0,36,37
 269 590 269 590 296 476.5 c 128,-1,38
 323 363 323 363 383.5 275 c 128,-1,39
 444 187 444 187 533 143 c 1,40,41
 628 91 628 91 760 91 c 0,22,23
EndSplineSet
Position2: "'cpsp' Capital Spacing lookup 0 subtable" dx=5 dy=0 dh=10 dv=0
EndChar

StartChar: multiply
Encoding: 215 215 150
Width: 1115
GlyphClass: 1
Flags: W
LayerCount: 2
Fore
SplineSet
896 229 m 1,0,-1
 559 569 l 1,1,-1
 233 243 l 1,2,-1
 176 299 l 1,3,-1
 501 625 l 1,4,-1
 164 961 l 1,5,-1
 219 1019 l 1,6,-1
 559 680 l 1,7,-1
 882 1005 l 1,8,-1
 940 949 l 1,9,-1
 615 625 l 1,10,-1
 951 287 l 1,11,-1
 896 229 l 1,0,-1
EndSplineSet
EndChar

StartChar: Oslash
Encoding: 216 216 151
Width: 1516
GlyphClass: 1
Flags: W
LayerCount: 2
Fore
SplineSet
757 -20 m 0,0,1
 581 -20 581 -20 447 57 c 1,2,-1
 415 0 l 1,3,-1
 316 0 l 1,4,-1
 376 109 l 1,5,6
 260 210 260 210 201.5 366 c 128,-1,7
 143 522 143 522 143 707 c 0,8,9
 143 956 143 956 248.5 1145.5 c 128,-1,10
 354 1335 354 1335 568 1407 c 0,11,12
 654 1434 654 1434 757 1434 c 0,13,14
 929 1434 929 1434 1064 1358 c 1,15,-1
 1096 1413 l 1,16,-1
 1195 1413 l 1,17,-1
 1136 1307 l 1,18,19
 1253 1205 1253 1205 1312.5 1049 c 128,-1,20
 1372 893 1372 893 1372 707 c 0,21,22
 1372 563 1372 563 1336.5 433 c 128,-1,23
 1301 303 1301 303 1224 201 c 128,-1,24
 1147 99 1147 99 1026 38 c 0,25,26
 911 -20 911 -20 757 -20 c 0,0,1
429 206 m 1,27,-1
 1013 1262 l 1,28,29
 899 1325 899 1325 757 1325 c 0,30,31
 505 1325 505 1325 370 1137 c 0,32,33
 247 965 247 965 247 707 c 0,34,35
 247 550 247 550 292.5 421 c 128,-1,36
 338 292 338 292 429 206 c 1,27,-1
757 88 m 0,37,38
 1008 88 1008 88 1145 272 c 0,39,40
 1271 441 1271 441 1271 707 c 0,41,42
 1271 860 1271 860 1225 991 c 128,-1,43
 1179 1122 1179 1122 1085 1210 c 1,44,-1
 500 154 l 1,45,46
 605 88 605 88 757 88 c 0,37,38
EndSplineSet
Position2: "'cpsp' Capital Spacing lookup 0 subtable" dx=5 dy=0 dh=10 dv=0
EndChar

StartChar: Udieresis
Encoding: 220 220 155
Width: 1348
GlyphClass: 1
Flags: W
LayerCount: 2
Fore
SplineSet
583 1556 m 1,0,-1
 434 1556 l 1,1,-1
 434 1730 l 1,2,-1
 583 1730 l 1,3,-1
 583 1556 l 1,0,-1
914 1556 m 1,4,-1
 765 1556 l 1,5,-1
 765 1730 l 1,6,-1
 914 1730 l 1,7,-1
 914 1556 l 1,4,-1
673 -20 m 0,8,9
 519 -20 519 -20 414 49 c 128,-1,10
 309 118 309 118 255.5 236 c 128,-1,11
 202 354 202 354 202 504 c 2,12,-1
 202 1413 l 1,13,-1
 317 1413 l 1,14,-1
 317 555 l 2,15,16
 317 85 317 85 673 85 c 0,17,18
 801 85 801 85 880 145 c 0,19,20
 1033 261 1033 261 1033 555 c 2,21,-1
 1033 1413 l 1,22,-1
 1147 1413 l 1,23,-1
 1147 514 l 2,24,25
 1147 293 1147 293 1037 148 c 0,26,27
 909 -20 909 -20 673 -20 c 0,8,9
EndSplineSet
Position2: "'cpsp' Capital Spacing lookup 0 subtable" dx=5 dy=0 dh=10 dv=0
EndChar

StartChar: Thorn
Encoding: 222 222 157
Width: 1154
GlyphClass: 1
Flags: W
LayerCount: 2
Fore
SplineSet
345 0 m 1,0,-1
 230 0 l 1,1,-1
 230 1413 l 1,2,-1
 345 1413 l 1,3,-1
 345 1209 l 1,4,-1
 603 1209 l 2,5,6
 732 1209 732 1209 831.5 1163 c 128,-1,7
 931 1117 931 1117 987.5 1030 c 128,-1,8
 1044 943 1044 943 1044 821 c 0,9,10
 1044 701 1044 701 988.5 619 c 128,-1,11
 933 537 933 537 835.5 493.5 c 128,-1,12
 738 450 738 450 610 450 c 2,13,-1
 345 450 l 1,14,-1
 345 0 l 1,0,-1
610 557 m 2,15,16
 704 557 704 557 776 584.5 c 128,-1,17
 848 612 848 612 888 670.5 c 128,-1,18
 928 729 928 729 928 820 c 0,19,20
 928 949 928 949 842 1018.5 c 128,-1,21
 756 1088 756 1088 610 1088 c 2,22,-1
 345 1088 l 1,23,-1
 345 557 l 1,24,-1
 610 557 l 2,15,16
EndSplineSet
Position2: "'cpsp' Capital Spacing lookup 0 subtable" dx=5 dy=0 dh=10 dv=0
EndChar

StartChar: germandbls
Encoding: 223 223 158
Width: 1198
GlyphClass: 1
Flags: W
LayerCount: 2
Fore
SplineSet
737 -18 m 0,0,1
 660 -18 660 -18 591 1.5 c 128,-1,2
 522 21 522 21 445 59 c 1,3,-1
 497 166 l 1,4,5
 616 97 616 97 740 97 c 0,6,7
 816 97 816 97 888 150.5 c 128,-1,8
 960 204 960 204 960 281 c 0,9,10
 960 380 960 380 877 461 c 0,11,12
 839 497 839 497 793 532.5 c 128,-1,13
 747 568 747 568 702 609 c 0,14,15
 627 683 627 683 627 775 c 0,16,17
 627 868 627 868 726 941 c 0,18,19
 750 959 750 959 773 974 c 0,20,21
 846 1025 846 1025 856 1073 c 0,22,23
 861 1098 861 1098 861 1122 c 0,24,25
 861 1143 861 1143 854 1175.5 c 128,-1,26
 847 1208 847 1208 782.5 1270 c 128,-1,27
 718 1332 718 1332 596 1332 c 0,28,29
 453 1332 453 1332 375 1219.5 c 128,-1,30
 297 1107 297 1107 297 881 c 2,31,-1
 297 0 l 1,32,-1
 192 0 l 1,33,-1
 192 883 l 2,34,35
 192 1434 192 1434 594 1434 c 0,36,37
 664 1434 664 1434 732.5 1410.5 c 128,-1,38
 801 1387 801 1387 857 1345 c 128,-1,39
 913 1303 913 1303 947.5 1242.5 c 128,-1,40
 982 1182 982 1182 982 1109 c 0,41,42
 982 1009 982 1009 892 951 c 2,43,-1
 842 918 l 2,44,45
 780 878 780 878 758 834 c 0,46,47
 747 810 747 810 747 774 c 0,48,49
 747 718 747 718 793 668 c 0,50,51
 820 639 820 639 869 601 c 0,52,53
 899 578 899 578 959 528 c 0,54,55
 1030 464 1030 464 1056 392 c 0,56,57
 1069 352 1069 352 1070 301 c 0,58,59
 1070 163 1070 163 974 72.5 c 128,-1,60
 878 -18 878 -18 737 -18 c 0,0,1
EndSplineSet
EndChar

StartChar: acircumflex
Encoding: 226 226 161
Width: 1037
GlyphClass: 1
Flags: W
LayerCount: 2
Fore
SplineSet
840 1165 m 1,0,-1
 695 1165 l 1,1,-1
 500 1351 l 1,2,-1
 308 1165 l 1,3,-1
 159 1165 l 1,4,-1
 500 1484 l 1,5,-1
 840 1165 l 1,0,-1
409 -20 m 0,6,7
 268 -20 268 -20 181 58.5 c 128,-1,8
 94 137 94 137 94 274 c 0,9,10
 94 579 94 579 564 579 c 2,11,-1
 793 579 l 1,12,13
 793 701 793 701 765 787.5 c 128,-1,14
 737 874 737 874 675 920 c 128,-1,15
 613 966 613 966 511 966 c 0,16,17
 436 966 436 966 377.5 943.5 c 128,-1,18
 319 921 319 921 275.5 885 c 128,-1,19
 232 849 232 849 204 808 c 1,20,-1
 130 870 l 1,21,22
 264 1056 264 1056 499 1056 c 0,23,24
 686 1056 686 1056 785 943.5 c 128,-1,25
 884 831 884 831 884 640 c 2,26,-1
 884 0 l 1,27,-1
 794 0 l 1,28,29
 794 108 794 108 796 235 c 1,30,31
 735 99 735 99 632.5 39.5 c 128,-1,32
 530 -20 530 -20 409 -20 c 0,6,7
418 67 m 0,33,34
 585 67 585 67 693 204 c 0,35,36
 793 332 793 332 793 497 c 1,37,-1
 565 497 l 2,38,39
 380 497 380 497 292 446 c 128,-1,40
 204 395 204 395 204 273 c 0,41,42
 204 167 204 167 263 117 c 128,-1,43
 322 67 322 67 418 67 c 0,33,34
EndSplineSet
EndChar

StartChar: aring
Encoding: 229 229 164
Width: 1030
GlyphClass: 1
Flags: W
LayerCount: 2
Fore
SplineSet
495 1160 m 0,0,1
 414 1160 414 1160 358 1210.5 c 128,-1,2
 302 1261 302 1261 302 1338 c 0,3,4
 302 1409 302 1409 357 1462 c 128,-1,5
 412 1515 412 1515 495 1515 c 0,6,7
 577 1515 577 1515 633.5 1463 c 128,-1,8
 690 1411 690 1411 690 1338 c 0,9,10
 690 1264 690 1264 634 1212 c 128,-1,11
 578 1160 578 1160 495 1160 c 0,0,1
495 1247 m 0,12,13
 539 1247 539 1247 571.5 1273.5 c 128,-1,14
 604 1300 604 1300 604 1338 c 0,15,16
 604 1373 604 1373 572.5 1399.5 c 128,-1,17
 541 1426 541 1426 495 1426 c 0,18,19
 448 1426 448 1426 419 1401.5 c 128,-1,20
 390 1377 390 1377 390 1338 c 0,21,22
 390 1294 390 1294 421.5 1270.5 c 128,-1,23
 453 1247 453 1247 495 1247 c 0,12,13
406 -20 m 0,24,25
 267 -20 267 -20 180.5 58.5 c 128,-1,26
 94 137 94 137 94 274 c 0,27,28
 94 579 94 579 559 579 c 2,29,-1
 785 579 l 1,30,31
 785 701 785 701 758 787.5 c 128,-1,32
 731 874 731 874 669.5 920 c 128,-1,33
 608 966 608 966 507 966 c 0,34,35
 433 966 433 966 375.5 943.5 c 128,-1,36
 318 921 318 921 275 885 c 128,-1,37
 232 849 232 849 204 808 c 1,38,-1
 130 870 l 1,39,40
 263 1056 263 1056 496 1056 c 0,41,42
 681 1056 681 1056 778.5 943.5 c 128,-1,43
 876 831 876 831 876 640 c 2,44,-1
 876 0 l 1,45,-1
 786 0 l 1,46,47
 786 108 786 108 788 235 c 1,48,49
 728 99 728 99 627 39.5 c 128,-1,50
 526 -20 526 -20 406 -20 c 0,24,25
416 67 m 0,51,52
 581 67 581 67 686 204 c 0,53,54
 785 332 785 332 785 497 c 1,55,-1
 561 497 l 2,56,57
 378 497 378 497 291 446 c 128,-1,58
 204 395 204 395 204 273 c 0,59,60
 204 167 204 167 262.5 117 c 128,-1,61
 321 67 321 67 416 67 c 0,51,52
EndSplineSet
EndChar

StartChar: ae
Encoding: 230 230 165
Width: 1715
GlyphClass: 1
Flags: W
LayerCount: 2
Fore
SplineSet
409 -20 m 0,0,1
 345 -20 345 -20 288 1 c 128,-1,2
 231 22 231 22 188.5 59.5 c 128,-1,3
 146 97 146 97 121 151.5 c 128,-1,4
 96 206 96 206 96 274 c 0,5,6
 96 360 96 360 123 418 c 128,-1,7
 150 476 150 476 198 512 c 128,-1,8
 246 548 246 548 312 563.5 c 128,-1,9
 378 579 378 579 456 579 c 2,10,-1
 800 579 l 1,11,12
 800 654 800 654 787.5 724 c 128,-1,13
 775 794 775 794 742.5 848 c 128,-1,14
 710 902 710 902 654.5 934.5 c 128,-1,15
 599 967 599 967 512 967 c 0,16,17
 470 967 470 967 429 956.5 c 128,-1,18
 388 946 388 946 350.5 926 c 128,-1,19
 313 906 313 906 280 878 c 128,-1,20
 247 850 247 850 222 815 c 1,21,-1
 136 870 l 1,22,23
 174 918 174 918 215.5 953.5 c 128,-1,24
 257 989 257 989 303.5 1011.5 c 128,-1,25
 350 1034 350 1034 404 1045 c 128,-1,26
 458 1056 458 1056 520 1056 c 0,27,28
 577 1056 577 1056 629.5 1044 c 128,-1,29
 682 1032 682 1032 726 1006.5 c 128,-1,30
 770 981 770 981 803.5 940.5 c 128,-1,31
 837 900 837 900 856 842 c 1,32,-1
 856 839 l 1,33,34
 914 942 914 942 1000 997 c 128,-1,35
 1086 1052 1086 1052 1205 1052 c 0,36,37
 1304 1052 1304 1052 1382.5 1023 c 128,-1,38
 1461 994 1461 994 1514.5 938.5 c 128,-1,39
 1568 883 1568 883 1596.5 804 c 128,-1,40
 1625 725 1625 725 1625 626 c 0,41,42
 1625 624 1625 624 1625 623 c 2,43,-1
 1625 619 l 2,44,45
 1625 618 1625 618 1625 617 c 2,46,-1
 1625 608 l 2,47,48
 1625 607 1625 607 1625 606 c 2,49,-1
 1625 599 l 2,50,51
 1625 598 1625 598 1625 597 c 2,52,-1
 1625 595 l 2,53,54
 1625 594 1625 594 1625 593 c 2,55,-1
 1625 559 l 2,56,57
 1625 525 1625 525 1623 492 c 1,58,-1
 1620 486 l 1,59,-1
 897 486 l 1,60,-1
 897 459 l 2,61,62
 897 383 897 383 917.5 314.5 c 128,-1,63
 938 246 938 246 978.5 194 c 128,-1,64
 1019 142 1019 142 1080 111 c 128,-1,65
 1141 80 1141 80 1222 80 c 0,66,67
 1268 80 1268 80 1309 85 c 128,-1,68
 1350 90 1350 90 1388.5 102 c 128,-1,69
 1427 114 1427 114 1462.5 135 c 128,-1,70
 1498 156 1498 156 1530 190 c 1,71,-1
 1601 134 l 1,72,73
 1558 94 1558 94 1516 66.5 c 128,-1,74
 1474 39 1474 39 1428.5 21 c 128,-1,75
 1383 3 1383 3 1333 -4.5 c 128,-1,76
 1283 -12 1283 -12 1224 -12 c 0,77,78
 1124 -12 1124 -12 1040.5 24 c 128,-1,79
 957 60 957 60 894 139 c 0,80,81
 866 174 866 174 851 208.5 c 128,-1,82
 836 243 836 243 823 286 c 1,83,84
 803 209 803 209 765 151.5 c 128,-1,85
 727 94 727 94 673 56 c 128,-1,86
 619 18 619 18 552.5 -1 c 128,-1,87
 486 -20 486 -20 409 -20 c 0,0,1
1520 584 m 1,88,-1
 1520 605 l 2,89,90
 1520 681 1520 681 1501 745 c 128,-1,91
 1482 809 1482 809 1442.5 855.5 c 128,-1,92
 1403 902 1403 902 1344.5 927.5 c 128,-1,93
 1286 953 1286 953 1206 953 c 0,94,95
 1128 953 1128 953 1070.5 922.5 c 128,-1,96
 1013 892 1013 892 975 840.5 c 128,-1,97
 937 789 937 789 917.5 722.5 c 128,-1,98
 898 656 898 656 897 584 c 1,99,-1
 1520 584 l 1,88,-1
448 73 m 0,100,101
 503 73 503 73 553 91 c 128,-1,102
 603 109 603 109 645 140.5 c 128,-1,103
 687 172 687 172 720 215.5 c 128,-1,104
 753 259 753 259 774 309 c 0,105,106
 783 333 783 333 788 354.5 c 128,-1,107
 793 376 793 376 795.5 397 c 128,-1,108
 798 418 798 418 800 439.5 c 128,-1,109
 802 461 802 461 805 486 c 1,110,-1
 439 486 l 2,111,112
 389 486 389 486 347 472.5 c 128,-1,113
 305 459 305 459 274 432.5 c 128,-1,114
 243 406 243 406 226 366 c 128,-1,115
 209 326 209 326 209 274 c 0,116,117
 209 226 209 226 230.5 188.5 c 128,-1,118
 252 151 252 151 285.5 125 c 128,-1,119
 319 99 319 99 362 86 c 128,-1,120
 405 73 405 73 448 73 c 0,100,101
EndSplineSet
EndChar

StartChar: ecircumflex
Encoding: 234 234 169
Width: 1054
GlyphClass: 1
Flags: W
LayerCount: 2
Fore
SplineSet
878 1161 m 1,0,-1
 732 1161 l 1,1,-1
 537 1347 l 1,2,-1
 345 1161 l 1,3,-1
 196 1161 l 1,4,-1
 537 1480 l 1,5,-1
 878 1161 l 1,0,-1
555 -12 m 0,6,7
 345 -12 345 -12 226 139 c 0,8,9
 114 280 114 280 114 510 c 0,10,11
 114 737 114 737 220 887 c 0,12,13
 338 1051 338 1051 537 1052 c 0,14,15
 767 1052 767 1052 876 903 c 0,16,17
 956 792 956 792 956 626 c 0,18,19
 956 495 956 495 953.5 491.5 c 128,-1,20
 951 488 951 488 951 486 c 1,21,-1
 228 486 l 1,22,-1
 228 460 l 2,23,24
 228 301 228 301 306 197 c 0,25,26
 398 80 398 80 553 80 c 0,27,28
 661 80 661 80 730 104 c 0,29,30
 805 131 805 131 861 190 c 1,31,-1
 932 134 l 1,32,33
 845 53 845 53 764 23 c 0,34,35
 678 -12 678 -12 555 -12 c 0,6,7
861 584 m 1,36,-1
 861 605 l 2,37,38
 861 755 861 755 791 838 c 0,39,40
 694 954 694 954 537 954 c 0,41,42
 394 954 394 954 309 845 c 0,43,44
 231 746 231 746 228 584 c 1,45,-1
 861 584 l 1,36,-1
EndSplineSet
EndChar

StartChar: eth
Encoding: 240 240 175
Width: 1180
GlyphClass: 1
Flags: W
LayerCount: 2
Fore
SplineSet
580 -16 m 0,0,1
 434 -16 434 -16 328.5 60.5 c 128,-1,2
 223 137 223 137 165.5 262.5 c 128,-1,3
 108 388 108 388 108 537 c 0,4,5
 108 680 108 680 163.5 798.5 c 128,-1,6
 219 917 219 917 321.5 988.5 c 128,-1,7
 424 1060 424 1060 567 1060 c 0,8,9
 657 1060 657 1060 737.5 1031 c 128,-1,10
 818 1002 818 1002 861 954 c 1,11,12
 825 1150 825 1150 583 1308 c 1,13,-1
 485 1177 l 1,14,-1
 400 1226 l 1,15,16
 424 1256 424 1256 448 1289 c 128,-1,17
 472 1322 472 1322 499 1357 c 1,18,19
 402 1408 402 1408 312 1442 c 1,20,-1
 374 1517 l 1,21,22
 471 1482 471 1482 560 1440 c 1,23,24
 571 1456 571 1456 623 1523 c 1,25,-1
 712 1473 l 1,26,-1
 649 1392 l 1,27,28
 862 1249 862 1249 959.5 1037 c 128,-1,29
 1057 825 1057 825 1057 508 c 0,30,31
 1057 364 1057 364 988 233.5 c 128,-1,32
 919 103 919 103 779 29 c 0,33,34
 691 -16 691 -16 580 -16 c 0,0,1
584 87 m 0,35,36
 698 87 698 87 775.5 150 c 128,-1,37
 853 213 853 213 891.5 315.5 c 128,-1,38
 930 418 930 418 930 536 c 0,39,40
 930 718 930 718 840 841.5 c 128,-1,41
 750 965 750 965 584 965 c 0,42,43
 412 965 412 965 324 841 c 0,44,45
 238 721 238 721 237 536 c 0,46,47
 237 410 237 410 280.5 299.5 c 128,-1,48
 324 189 324 189 428 126 c 0,49,50
 493 87 493 87 584 87 c 0,35,36
EndSplineSet
EndChar

StartChar: ocircumflex
Encoding: 244 244 179
Width: 1146
GlyphClass: 1
Flags: W
LayerCount: 2
Fore
SplineSet
919 1161 m 1,0,-1
 772 1161 l 1,1,-1
 577 1347 l 1,2,-1
 385 1161 l 1,3,-1
 234 1161 l 1,4,-1
 577 1480 l 1,5,-1
 919 1161 l 1,0,-1
577 -20 m 256,6,7
 442 -20 442 -20 335.5 51.5 c 128,-1,8
 229 123 229 123 167 244.5 c 128,-1,9
 105 366 105 366 105 516 c 256,10,11
 105 666 105 666 167 787.5 c 128,-1,12
 229 909 229 909 335.5 980.5 c 128,-1,13
 442 1052 442 1052 577 1052 c 256,14,15
 712 1052 712 1052 818 980.5 c 128,-1,16
 924 909 924 909 986 787.5 c 128,-1,17
 1048 666 1048 666 1048 516 c 256,18,19
 1048 366 1048 366 986 244.5 c 128,-1,20
 924 123 924 123 818 51.5 c 128,-1,21
 712 -20 712 -20 577 -20 c 256,6,7
577 82 m 0,22,23
 740 82 740 82 840 207 c 0,24,25
 935 324 935 324 935 516 c 256,26,27
 935 708 935 708 840 825 c 0,28,29
 739 950 739 950 577 950 c 0,30,31
 425 950 425 950 316 824 c 0,32,33
 218 708 218 708 218 516 c 256,34,35
 218 324 218 324 316 208 c 0,36,37
 424 82 424 82 577 82 c 0,22,23
EndSplineSet
EndChar

StartChar: divide
Encoding: 247 247 182
Width: 837
GlyphClass: 1
Flags: W
LayerCount: 2
Fore
SplineSet
493 935 m 1,0,-1
 332 935 l 1,1,-1
 332 1095 l 1,2,-1
 493 1095 l 1,3,-1
 493 935 l 1,0,-1
679 588 m 1,4,-1
 145 588 l 1,5,-1
 145 667 l 1,6,-1
 679 667 l 1,7,-1
 679 588 l 1,4,-1
493 142 m 1,8,-1
 332 142 l 1,9,-1
 332 301 l 1,10,-1
 493 301 l 1,11,-1
 493 142 l 1,8,-1
EndSplineSet
EndChar

StartChar: oslash
Encoding: 248 248 183
Width: 1146
GlyphClass: 1
Flags: W
LayerCount: 2
Fore
SplineSet
575 -20 m 0,0,1
 448 -20 448 -20 347 39 c 1,2,-1
 326 1 l 1,3,-1
 255 1 l 1,4,-1
 296 74 l 1,5,6
 216 141 216 141 166 241 c 0,7,8
 105 363 105 363 105 514 c 0,9,10
 105 664 105 664 167 786.5 c 128,-1,11
 229 909 229 909 336 980.5 c 128,-1,12
 443 1052 443 1052 578 1052 c 0,13,14
 701 1052 701 1052 802 995 c 1,15,-1
 802 996 l 1,16,-1
 827 1038 l 1,17,-1
 899 1038 l 1,18,-1
 854 960 l 1,19,20
 936 893 936 893 987 791 c 0,21,22
 1048 669 1048 669 1048 518 c 0,23,24
 1048 368 1048 368 986 245.5 c 128,-1,25
 924 123 924 123 817.5 51.5 c 128,-1,26
 711 -20 711 -20 575 -20 c 0,0,1
351 172 m 1,27,-1
 751 905 l 1,28,29
 675 950 675 950 577 950 c 0,30,31
 425 950 425 950 316 824 c 0,32,33
 218 708 218 708 218 516 c 0,34,35
 218 298 218 298 351 172 c 1,27,-1
577 82 m 0,36,37
 740 82 740 82 840 207 c 0,38,39
 935 324 935 324 935 516 c 0,40,41
 935 740 935 740 802 866 c 1,42,-1
 401 133 l 1,43,44
 480 82 480 82 577 82 c 0,36,37
EndSplineSet
EndChar

StartChar: thorn
Encoding: 254 254 189
Width: 1165
GlyphClass: 1
Flags: W
LayerCount: 2
Fore
SplineSet
318 -440 m 1,0,-1
 194 -440 l 1,1,-1
 194 1413 l 1,2,-1
 318 1413 l 1,3,-1
 318 864 l 1,4,5
 429 1060 429 1060 664 1060 c 0,6,7
 791 1060 791 1060 879 988 c 128,-1,8
 967 916 967 916 1013 793.5 c 128,-1,9
 1059 671 1059 671 1059 520 c 0,10,11
 1059 367 1059 367 1012.5 245 c 128,-1,12
 966 123 966 123 877.5 51.5 c 128,-1,13
 789 -20 789 -20 664 -20 c 0,14,15
 432 -20 432 -20 318 176 c 1,16,-1
 318 -440 l 1,0,-1
623 83 m 0,17,18
 732 83 732 83 803 144 c 128,-1,19
 874 205 874 205 907.5 304 c 128,-1,20
 941 403 941 403 941 520 c 0,21,22
 941 696 941 696 869 817 c 0,23,24
 787 956 787 956 623 956 c 0,25,26
 516 956 516 956 445 896 c 128,-1,27
 374 836 374 836 338.5 737.5 c 128,-1,28
 303 639 303 639 303 520 c 0,29,30
 303 405 303 405 336 306 c 128,-1,31
 369 207 369 207 440 145 c 128,-1,32
 511 83 511 83 623 83 c 0,17,18
EndSplineSet
EndChar

StartChar: Aogonek
Encoding: 260 260 195
Width: 1290
GlyphClass: 1
Flags: W
LayerCount: 2
Fore
SplineSet
1208 0 m 1,0,-1
 1085 0 l 1,1,-1
 978 308 l 1,2,-1
 320 308 l 1,3,-1
 213 0 l 1,4,-1
 88 0 l 1,5,-1
 604 1413 l 1,6,-1
 694 1413 l 1,7,-1
 1208 0 l 1,0,-1
940 419 m 1,8,-1
 650 1247 l 1,9,-1
 358 419 l 1,10,-1
 940 419 l 1,8,-1
1075 -453 m 0,11,12
 1024 -453 1024 -453 979.5 -429 c 128,-1,13
 935 -405 935 -405 907.5 -359.5 c 128,-1,14
 880 -314 880 -314 880 -250 c 0,15,16
 880 -103 880 -103 1051 -30 c 0,17,18
 1076 -16 1076 -16 1102 -6 c 1,19,-1
 1202 0 l 1,20,-1
 1171 -13 l 2,21,22
 1089 -49 1089 -49 1029 -111.5 c 128,-1,23
 969 -174 969 -174 969 -240 c 0,24,25
 969 -294 969 -294 997.5 -326.5 c 128,-1,26
 1026 -359 1026 -359 1065 -359 c 0,27,28
 1153 -359 1153 -359 1196 -294 c 1,29,-1
 1272 -347 l 1,30,31
 1203 -453 1203 -453 1075 -453 c 0,11,12
EndSplineSet
Position2: "'cpsp' Capital Spacing lookup 0 subtable" dx=5 dy=0 dh=10 dv=0
EndChar

StartChar: aogonek
Encoding: 261 261 196
Width: 1035
GlyphClass: 1
Flags: W
LayerCount: 2
Fore
SplineSet
750 -453 m 0,0,1
 666 -453 666 -453 608.5 -398 c 128,-1,2
 551 -343 551 -343 551 -250 c 0,3,4
 551 -77 551 -77 790 -5 c 1,5,6
 790 108 790 108 792 235 c 1,7,8
 731 99 731 99 629.5 39.5 c 128,-1,9
 528 -20 528 -20 408 -20 c 0,10,11
 268 -20 268 -20 181 58.5 c 128,-1,12
 94 137 94 137 94 274 c 0,13,14
 94 432 94 432 213 505.5 c 128,-1,15
 332 579 332 579 561 579 c 2,16,-1
 789 579 l 1,17,18
 789 701 789 701 761.5 787.5 c 128,-1,19
 734 874 734 874 672.5 920 c 128,-1,20
 611 966 611 966 509 966 c 0,21,22
 434 966 434 966 376.5 943.5 c 128,-1,23
 319 921 319 921 275.5 885 c 128,-1,24
 232 849 232 849 204 808 c 1,25,-1
 130 870 l 1,26,27
 264 1056 264 1056 498 1056 c 0,28,29
 684 1056 684 1056 782 943.5 c 128,-1,30
 880 831 880 831 880 640 c 2,31,-1
 880 0 l 1,32,-1
 847 -14 l 2,33,34
 639 -105 639 -105 639 -240 c 0,35,36
 639 -288 639 -288 665 -323.5 c 128,-1,37
 691 -359 691 -359 737 -359 c 0,38,39
 827 -359 827 -359 872 -294 c 1,40,-1
 952 -347 l 1,41,42
 914 -399 914 -399 866 -426 c 128,-1,43
 818 -453 818 -453 750 -453 c 0,0,1
417 67 m 0,44,45
 583 67 583 67 689 204 c 0,46,47
 788 332 788 332 789 497 c 1,48,-1
 563 497 l 2,49,50
 379 497 379 497 291.5 446 c 128,-1,51
 204 395 204 395 204 273 c 0,52,53
 204 167 204 167 263 117 c 128,-1,54
 322 67 322 67 417 67 c 0,44,45
EndSplineSet
EndChar

StartChar: Cacute
Encoding: 262 262 197
Width: 1415
GlyphClass: 1
Flags: W
LayerCount: 2
Fore
SplineSet
746 1543 m 1,0,-1
 637 1543 l 1,1,-1
 847 1827 l 1,2,-1
 1005 1827 l 1,3,-1
 746 1543 l 1,0,-1
761 -20 m 0,4,5
 463 -20 463 -20 300 187 c 0,6,7
 146 383 146 383 146 707 c 0,8,9
 146 1018 146 1018 290 1213 c 0,10,11
 454 1436 454 1436 759 1436 c 0,12,13
 959 1436 959 1436 1098 1340 c 128,-1,14
 1237 1244 1237 1244 1313 1075 c 1,15,-1
 1210 1027 l 1,16,17
 1156 1182 1156 1182 1038 1253 c 128,-1,18
 920 1324 920 1324 757 1324 c 0,19,20
 511 1324 511 1324 389 1151 c 0,21,22
 269 984 269 984 269 717 c 0,23,24
 269 590 269 590 296 476.5 c 128,-1,25
 323 363 323 363 383.5 275 c 128,-1,26
 444 187 444 187 533 143 c 1,27,28
 628 91 628 91 761 91 c 0,29,30
 1097 91 1097 91 1211 391 c 1,31,-1
 1315 342 l 1,32,33
 1236 168 1236 168 1092.5 74 c 128,-1,34
 949 -20 949 -20 761 -20 c 0,4,5
EndSplineSet
Position2: "'cpsp' Capital Spacing lookup 0 subtable" dx=5 dy=0 dh=10 dv=0
EndChar

StartChar: cacute
Encoding: 263 263 198
Width: 994
GlyphClass: 1
Flags: W
LayerCount: 2
Fore
SplineSet
566 1159 m 1,0,-1
 453 1159 l 1,1,-1
 672 1413 l 1,2,-1
 836 1413 l 1,3,-1
 566 1159 l 1,0,-1
544 -20 m 0,4,5
 404 -20 404 -20 308.5 53 c 128,-1,6
 213 126 213 126 164 248.5 c 128,-1,7
 115 371 115 371 115 518 c 0,8,9
 115 668 115 668 172.5 802.5 c 128,-1,10
 230 937 230 937 356 1012 c 0,11,12
 435 1056 435 1056 542 1056 c 0,13,14
 680 1056 680 1056 776.5 985.5 c 128,-1,15
 873 915 873 915 924 804 c 1,16,-1
 821 754 l 1,17,18
 796 835 796 835 716.5 895 c 128,-1,19
 637 955 637 955 539 955 c 0,20,21
 377 955 377 955 299 824 c 0,22,23
 224 700 224 700 224 518 c 0,24,25
 224 338 224 338 294 214 c 0,26,27
 371 80 371 80 539 80 c 0,28,29
 642 80 642 80 720 141.5 c 128,-1,30
 798 203 798 203 821 282 c 1,31,-1
 912 238 l 1,32,33
 864 111 864 111 767.5 45.5 c 128,-1,34
 671 -20 671 -20 544 -20 c 0,4,5
EndSplineSet
EndChar

StartChar: cdotaccent
Encoding: 267 267 202
Width: 988
GlyphClass: 1
Flags: W
LayerCount: 2
Fore
SplineSet
600 1239 m 1,0,-1
 466 1239 l 1,1,-1
 466 1413 l 1,2,-1
 600 1413 l 1,3,-1
 600 1239 l 1,0,-1
541 -20 m 0,4,5
 402 -20 402 -20 307 53 c 128,-1,6
 212 126 212 126 163.5 248.5 c 128,-1,7
 115 371 115 371 115 518 c 0,8,9
 115 668 115 668 172 802.5 c 128,-1,10
 229 937 229 937 354 1012 c 0,11,12
 432 1056 432 1056 539 1056 c 0,13,14
 676 1056 676 1056 772 985.5 c 128,-1,15
 868 915 868 915 918 804 c 1,16,-1
 815 754 l 1,17,18
 790 835 790 835 711.5 895 c 128,-1,19
 633 955 633 955 536 955 c 0,20,21
 376 955 376 955 298 824 c 0,22,23
 224 700 224 700 224 518 c 0,24,25
 224 338 224 338 294 214 c 0,26,27
 370 80 370 80 536 80 c 0,28,29
 638 80 638 80 715 141.5 c 128,-1,30
 792 203 792 203 815 282 c 1,31,-1
 907 238 l 1,32,33
 860 111 860 111 764 45.5 c 128,-1,34
 668 -20 668 -20 541 -20 c 0,4,5
EndSplineSet
EndChar

StartChar: Ccaron
Encoding: 268 268 203
Width: 1415
GlyphClass: 1
Flags: W
LayerCount: 2
Fore
SplineSet
718 1501 m 1,0,-1
 390 1827 l 1,1,-1
 534 1827 l 1,2,-1
 718 1626 l 1,3,-1
 904 1827 l 1,4,-1
 1046 1827 l 1,5,-1
 718 1501 l 1,0,-1
761 -20 m 0,6,7
 463 -20 463 -20 300 187 c 0,8,9
 146 383 146 383 146 707 c 0,10,11
 146 1018 146 1018 290 1213 c 0,12,13
 454 1436 454 1436 759 1436 c 0,14,15
 959 1436 959 1436 1098 1340 c 128,-1,16
 1237 1244 1237 1244 1313 1075 c 1,17,-1
 1210 1027 l 1,18,19
 1156 1182 1156 1182 1038 1253 c 128,-1,20
 920 1324 920 1324 757 1324 c 0,21,22
 511 1324 511 1324 389 1151 c 0,23,24
 269 984 269 984 269 717 c 0,25,26
 269 590 269 590 296 476.5 c 128,-1,27
 323 363 323 363 383.5 275 c 128,-1,28
 444 187 444 187 533 143 c 1,29,30
 628 91 628 91 761 91 c 0,31,32
 1097 91 1097 91 1211 391 c 1,33,-1
 1315 342 l 1,34,35
 1236 168 1236 168 1092.5 74 c 128,-1,36
 949 -20 949 -20 761 -20 c 0,6,7
EndSplineSet
Position2: "'cpsp' Capital Spacing lookup 0 subtable" dx=5 dy=0 dh=10 dv=0
EndChar

StartChar: ccaron
Encoding: 269 269 204
Width: 994
GlyphClass: 1
Flags: W
LayerCount: 2
Fore
SplineSet
537 1121 m 1,0,-1
 197 1413 l 1,1,-1
 346 1413 l 1,2,-1
 537 1233 l 1,3,-1
 731 1413 l 1,4,-1
 879 1413 l 1,5,-1
 537 1121 l 1,0,-1
544 -20 m 0,6,7
 404 -20 404 -20 308.5 53 c 128,-1,8
 213 126 213 126 164 248.5 c 128,-1,9
 115 371 115 371 115 518 c 0,10,11
 115 668 115 668 172.5 802.5 c 128,-1,12
 230 937 230 937 356 1012 c 0,13,14
 435 1056 435 1056 542 1056 c 0,15,16
 680 1056 680 1056 776.5 985.5 c 128,-1,17
 873 915 873 915 924 804 c 1,18,-1
 821 754 l 1,19,20
 796 835 796 835 716.5 895 c 128,-1,21
 637 955 637 955 539 955 c 0,22,23
 377 955 377 955 299 824 c 0,24,25
 224 700 224 700 224 518 c 0,26,27
 224 338 224 338 294 214 c 0,28,29
 371 80 371 80 539 80 c 0,30,31
 642 80 642 80 720 141.5 c 128,-1,32
 798 203 798 203 821 282 c 1,33,-1
 912 238 l 1,34,35
 864 111 864 111 767.5 45.5 c 128,-1,36
 671 -20 671 -20 544 -20 c 0,6,7
EndSplineSet
EndChar

StartChar: dcaron
Encoding: 271 271 206
Width: 1203
GlyphClass: 1
Flags: W
LayerCount: 2
Fore
SplineSet
518 -20 m 0,0,1
 391 -20 391 -20 301 53 c 128,-1,2
 211 126 211 126 164 248.5 c 128,-1,3
 117 371 117 371 117 520 c 0,4,5
 117 667 117 667 164 790 c 128,-1,6
 211 913 211 913 300.5 986.5 c 128,-1,7
 390 1060 390 1060 519 1060 c 0,8,9
 735 1060 735 1060 858 877 c 1,10,-1
 858 1413 l 1,11,-1
 962 1413 l 1,12,-1
 962 0 l 1,13,-1
 858 0 l 1,14,-1
 858 163 l 1,15,16
 795 70 795 70 716.5 25 c 128,-1,17
 638 -20 638 -20 518 -20 c 0,0,1
1176 1085 m 1,18,-1
 1085 1085 l 1,19,20
 1110 1166 1110 1166 1136 1248 c 128,-1,21
 1162 1330 1162 1330 1186 1413 c 1,22,-1
 1382 1413 l 1,23,-1
 1176 1085 l 1,18,-1
545 74 m 0,24,25
 653 74 653 74 724.5 132.5 c 128,-1,26
 796 191 796 191 831.5 291.5 c 128,-1,27
 867 392 867 392 867 520 c 0,28,29
 867 704 867 704 794 823 c 0,30,31
 711 962 711 962 545 962 c 0,32,33
 436 962 436 962 364.5 901 c 128,-1,34
 293 840 293 840 259 740 c 128,-1,35
 225 640 225 640 225 520 c 0,36,37
 225 341 225 341 296 218 c 0,38,39
 377 74 377 74 545 74 c 0,24,25
EndSplineSet
EndChar

StartChar: Dcroat
Encoding: 272 272 207
Width: 1420
GlyphClass: 1
Flags: W
LayerCount: 2
Fore
SplineSet
591 0 m 2,0,-1
 244 0 l 1,1,-1
 244 672 l 1,2,-1
 131 672 l 1,3,-1
 131 754 l 1,4,-1
 244 754 l 1,5,-1
 244 1413 l 1,6,-1
 593 1413 l 2,7,8
 926 1413 926 1413 1105.5 1228.5 c 128,-1,9
 1285 1044 1285 1044 1285 696 c 0,10,11
 1285 363 1285 363 1104 181.5 c 128,-1,12
 923 0 923 0 591 0 c 2,0,-1
566 113 m 2,13,14
 824 113 824 113 981 250 c 0,15,16
 1157 406 1157 406 1157 707 c 0,17,18
 1157 890 1157 890 1096.5 1023.5 c 128,-1,19
 1036 1157 1036 1157 910.5 1230 c 128,-1,20
 785 1303 785 1303 589 1303 c 2,21,-1
 371 1303 l 1,22,-1
 371 754 l 1,23,-1
 754 754 l 1,24,-1
 754 672 l 1,25,-1
 371 672 l 1,26,-1
 371 113 l 1,27,-1
 566 113 l 2,13,14
EndSplineSet
Position2: "'cpsp' Capital Spacing lookup 0 subtable" dx=5 dy=0 dh=10 dv=0
EndChar

StartChar: dcroat
Encoding: 273 273 208
Width: 1150
GlyphClass: 1
Flags: W
LayerCount: 2
Fore
SplineSet
519 -20 m 0,0,1
 393 -20 393 -20 303 50.5 c 128,-1,2
 213 121 213 121 165 244 c 128,-1,3
 117 367 117 367 117 520 c 0,4,5
 117 670 117 670 164.5 792.5 c 128,-1,6
 212 915 212 915 302 987.5 c 128,-1,7
 392 1060 392 1060 520 1060 c 0,8,9
 735 1060 735 1060 858 877 c 1,10,-1
 858 1192 l 1,11,-1
 531 1192 l 1,12,-1
 531 1285 l 1,13,-1
 858 1285 l 1,14,-1
 858 1413 l 1,15,-1
 963 1413 l 1,16,-1
 963 1285 l 1,17,-1
 1185 1285 l 1,18,-1
 1185 1192 l 1,19,-1
 963 1192 l 1,20,-1
 963 0 l 1,21,-1
 855 0 l 1,22,-1
 857 162 l 1,23,24
 798 76 798 76 720.5 28 c 128,-1,25
 643 -20 643 -20 519 -20 c 0,0,1
546 74 m 0,26,27
 654 74 654 74 725.5 132.5 c 128,-1,28
 797 191 797 191 832 291.5 c 128,-1,29
 867 392 867 392 867 520 c 0,30,31
 867 704 867 704 795 823 c 0,32,33
 711 962 711 962 546 962 c 0,34,35
 437 962 437 962 365 901 c 128,-1,36
 293 840 293 840 259.5 740 c 128,-1,37
 226 640 226 640 226 520 c 0,38,39
 226 341 226 341 295 218 c 0,40,41
 378 74 378 74 546 74 c 0,26,27
EndSplineSet
EndChar

StartChar: Eogonek
Encoding: 280 280 215
Width: 1236
GlyphClass: 1
Flags: W
LayerCount: 2
Fore
SplineSet
1131 0 m 1,0,-1
 228 0 l 1,1,-1
 228 1413 l 1,2,-1
 1131 1413 l 1,3,-1
 1131 1321 l 1,4,-1
 343 1321 l 1,5,-1
 343 751 l 1,6,-1
 1011 751 l 1,7,-1
 1011 664 l 1,8,-1
 343 664 l 1,9,-1
 343 101 l 1,10,-1
 1131 101 l 1,11,-1
 1131 0 l 1,0,-1
996 -453 m 0,12,13
 945 -453 945 -453 900.5 -429 c 128,-1,14
 856 -405 856 -405 828.5 -359.5 c 128,-1,15
 801 -314 801 -314 801 -250 c 0,16,17
 801 -103 801 -103 972 -30 c 0,18,19
 997 -16 997 -16 1023 -6 c 1,20,-1
 1123 0 l 1,21,-1
 1092 -13 l 2,22,23
 1010 -49 1010 -49 950 -111.5 c 128,-1,24
 890 -174 890 -174 890 -240 c 0,25,26
 890 -294 890 -294 918.5 -326.5 c 128,-1,27
 947 -359 947 -359 986 -359 c 0,28,29
 1074 -359 1074 -359 1117 -294 c 1,30,-1
 1193 -347 l 1,31,32
 1124 -453 1124 -453 996 -453 c 0,12,13
EndSplineSet
Position2: "'cpsp' Capital Spacing lookup 0 subtable" dx=5 dy=0 dh=10 dv=0
EndChar

StartChar: eogonek
Encoding: 281 281 216
Width: 1050
GlyphClass: 1
Flags: W
LayerCount: 2
Fore
SplineSet
663 -408 m 0,0,1
 576 -408 576 -408 519 -351.5 c 128,-1,2
 462 -295 462 -295 462 -205 c 0,3,4
 462 -90 462 -90 581 -12 c 1,5,6
 353 -12 353 -12 233.5 129 c 128,-1,7
 114 270 114 270 114 514 c 0,8,9
 114 617 114 617 140 714 c 128,-1,10
 166 811 166 811 219 886.5 c 128,-1,11
 272 962 272 962 351 1007 c 128,-1,12
 430 1052 430 1052 536 1052 c 0,13,14
 649 1052 649 1052 728 1012 c 0,15,16
 952 892 952 892 952 505 c 2,17,-1
 952 502 l 1,18,19
 951 502 951 502 951 497 c 128,-1,20
 951 492 951 492 948 486 c 1,21,-1
 223 486 l 1,22,-1
 223 460 l 2,23,24
 223 302 223 302 300 198 c 0,25,26
 391 75 391 75 551 75 c 0,27,28
 758 75 758 75 857 190 c 1,29,-1
 928 134 l 1,30,31
 826 32 826 32 711 6 c 1,32,33
 553 -81 553 -81 552 -195 c 0,34,35
 552 -245 552 -245 580.5 -279.5 c 128,-1,36
 609 -314 609 -314 651 -314 c 0,37,38
 739 -314 739 -314 789 -249 c 1,39,-1
 867 -302 l 1,40,41
 831 -353 831 -353 783.5 -380.5 c 128,-1,42
 736 -408 736 -408 663 -408 c 0,0,1
853 579 m 1,43,-1
 853 605 l 2,44,45
 853 755 853 755 781 849 c 0,46,47
 698 954 698 954 535 954 c 0,48,49
 388 954 388 954 303 845 c 0,50,51
 225 746 225 746 223 579 c 1,52,-1
 853 579 l 1,43,-1
EndSplineSet
EndChar

StartChar: Hbar
Encoding: 294 294 229
Width: 1445
GlyphClass: 1
Flags: W
LayerCount: 2
Fore
SplineSet
1219 0 m 1,0,-1
 1104 0 l 1,1,-1
 1104 664 l 1,2,-1
 342 664 l 1,3,-1
 342 0 l 1,4,-1
 228 0 l 1,5,-1
 228 1086 l 1,6,-1
 107 1086 l 1,7,-1
 107 1148 l 1,8,-1
 228 1148 l 1,9,-1
 228 1413 l 1,10,-1
 342 1413 l 1,11,-1
 342 1148 l 1,12,-1
 1104 1148 l 1,13,-1
 1104 1413 l 1,14,-1
 1219 1413 l 1,15,-1
 1219 1148 l 1,16,-1
 1335 1148 l 1,17,-1
 1335 1086 l 1,18,-1
 1219 1086 l 1,19,-1
 1219 0 l 1,0,-1
1104 751 m 1,20,-1
 1104 1086 l 1,21,-1
 342 1086 l 1,22,-1
 342 751 l 1,23,-1
 1104 751 l 1,20,-1
EndSplineSet
Position2: "'cpsp' Capital Spacing lookup 0 subtable" dx=5 dy=0 dh=10 dv=0
EndChar

StartChar: hbar
Encoding: 295 295 230
Width: 1141
GlyphClass: 1
Flags: W
LayerCount: 2
Fore
SplineSet
981 0 m 1,0,-1
 875 0 l 1,1,-1
 875 630 l 2,2,3
 875 712 875 712 854 786.5 c 128,-1,4
 833 861 833 861 780 909 c 128,-1,5
 727 957 727 957 633 957 c 0,6,7
 535 957 535 957 458 903.5 c 128,-1,8
 381 850 381 850 337 762.5 c 128,-1,9
 293 675 293 675 293 571 c 2,10,-1
 293 0 l 1,11,-1
 191 0 l 1,12,-1
 191 1165 l 1,13,-1
 -14 1165 l 1,14,-1
 -14 1257 l 1,15,-1
 191 1257 l 1,16,-1
 191 1413 l 1,17,-1
 293 1413 l 1,18,-1
 293 1257 l 1,19,-1
 640 1257 l 1,20,-1
 640 1165 l 1,21,-1
 293 1165 l 1,22,-1
 293 841 l 1,23,24
 347 939 347 939 443 997.5 c 128,-1,25
 539 1056 539 1056 649 1056 c 0,26,27
 762 1056 762 1056 835 1003.5 c 128,-1,28
 908 951 908 951 944.5 858.5 c 128,-1,29
 981 766 981 766 981 650 c 2,30,-1
 981 0 l 1,0,-1
EndSplineSet
EndChar

StartChar: Iogonek
Encoding: 302 302 237
Width: 567
GlyphClass: 1
Flags: W
LayerCount: 2
Fore
SplineSet
342 0 m 1,0,-1
 228 0 l 1,1,-1
 228 1413 l 1,2,-1
 342 1413 l 1,3,-1
 342 0 l 1,0,-1
211 -453 m 0,4,5
 160 -453 160 -453 115.5 -429 c 128,-1,6
 71 -405 71 -405 43.5 -359.5 c 128,-1,7
 16 -314 16 -314 16 -250 c 0,8,9
 16 -103 16 -103 187 -30 c 0,10,11
 212 -16 212 -16 238 -6 c 1,12,-1
 338 0 l 1,13,-1
 307 -13 l 2,14,15
 225 -49 225 -49 165 -111.5 c 128,-1,16
 105 -174 105 -174 105 -240 c 0,17,18
 105 -294 105 -294 133.5 -326.5 c 128,-1,19
 162 -359 162 -359 201 -359 c 0,20,21
 289 -359 289 -359 332 -294 c 1,22,-1
 408 -347 l 1,23,24
 339 -453 339 -453 211 -453 c 0,4,5
EndSplineSet
Position2: "'cpsp' Capital Spacing lookup 0 subtable" dx=5 dy=0 dh=10 dv=0
EndChar

StartChar: Idotaccent
Encoding: 304 304 239
Width: 567
GlyphClass: 1
Flags: W
LayerCount: 2
Fore
SplineSet
346 1653 m 1,0,-1
 212 1653 l 1,1,-1
 212 1827 l 1,2,-1
 346 1827 l 1,3,-1
 346 1653 l 1,0,-1
342 0 m 1,4,-1
 228 0 l 1,5,-1
 228 1413 l 1,6,-1
 342 1413 l 1,7,-1
 342 0 l 1,4,-1
EndSplineSet
Position2: "'cpsp' Capital Spacing lookup 0 subtable" dx=5 dy=0 dh=10 dv=0
EndChar

StartChar: dotlessi
Encoding: 305 305 240
Width: 473
GlyphClass: 2
Flags: W
LayerCount: 2
Fore
SplineSet
291 0 m 1,0,-1
 182 0 l 1,1,-1
 182 1039 l 1,2,-1
 291 1039 l 1,3,-1
 291 0 l 1,0,-1
EndSplineSet
EndChar

StartChar: kgreenlandic
Encoding: 312 312 247
Width: 1051
GlyphClass: 1
Flags: W
LayerCount: 2
Fore
SplineSet
999 0 m 1,0,-1
 869 0 l 1,1,-1
 541 565 l 1,2,-1
 299 305 l 1,3,-1
 299 0 l 1,4,-1
 192 0 l 1,5,-1
 192 1040 l 1,6,-1
 299 1040 l 1,7,-1
 299 460 l 1,8,-1
 799 1039 l 1,9,-1
 930 1039 l 1,10,-1
 612 656 l 1,11,-1
 999 0 l 1,0,-1
EndSplineSet
EndChar

StartChar: Lcaron
Encoding: 317 317 252
Width: 1034
GlyphClass: 1
Flags: W
LayerCount: 2
Fore
SplineSet
949 0 m 1,0,-1
 228 0 l 1,1,-1
 228 1413 l 1,2,-1
 343 1413 l 1,3,-1
 343 101 l 1,4,-1
 949 101 l 1,5,-1
 949 0 l 1,0,-1
667 1046 m 1,6,-1
 580 1046 l 1,7,-1
 677 1413 l 1,8,-1
 865 1413 l 1,9,-1
 667 1046 l 1,6,-1
EndSplineSet
Position2: "'cpsp' Capital Spacing lookup 0 subtable" dx=5 dy=0 dh=10 dv=0
EndChar

StartChar: lcaron
Encoding: 318 318 253
Width: 547
GlyphClass: 1
Flags: W
LayerCount: 2
Fore
SplineSet
330 -20 m 0,0,1
 197 -20 197 -20 190 93 c 0,2,3
 188 127 188 127 188 1413 c 1,4,-1
 294 1413 l 1,5,-1
 294 102 l 1,6,7
 310 67 310 67 342 67 c 0,8,9
 358 68 358 68 372 68 c 128,-1,10
 386 68 386 68 411 72 c 128,-1,11
 436 76 436 76 446 79 c 1,12,-1
 446 -1 l 1,13,14
 397 -20 397 -20 330 -20 c 0,0,1
521 1046 m 1,15,-1
 431 1046 l 1,16,17
 455 1137 455 1137 481 1228.5 c 128,-1,18
 507 1320 507 1320 532 1413 c 1,19,-1
 727 1413 l 1,20,-1
 521 1046 l 1,15,-1
EndSplineSet
EndChar

StartChar: Ldot
Encoding: 319 319 254
Width: 1026
GlyphClass: 1
Flags: W
LayerCount: 2
Fore
SplineSet
949 0 m 1,0,-1
 228 0 l 1,1,-1
 228 1413 l 1,2,-1
 343 1413 l 1,3,-1
 343 101 l 1,4,-1
 949 101 l 1,5,-1
 949 0 l 1,0,-1
766 595 m 256,6,7
 719 595 719 595 686.5 628.5 c 128,-1,8
 654 662 654 662 654 707 c 0,9,10
 654 756 654 756 685.5 788 c 128,-1,11
 717 820 717 820 766 820 c 0,12,13
 814 820 814 820 846 787 c 128,-1,14
 878 754 878 754 878 707 c 0,15,16
 878 662 878 662 845.5 628.5 c 128,-1,17
 813 595 813 595 766 595 c 256,6,7
EndSplineSet
EndChar

StartChar: ldot
Encoding: 320 320 255
Width: 583
GlyphClass: 1
Flags: W
LayerCount: 2
Fore
SplineSet
329 -20 m 0,0,1
 197 -20 197 -20 190 93 c 0,2,3
 188 127 188 127 188 1413 c 1,4,-1
 295 1413 l 1,5,-1
 296 107 l 1,6,7
 302 94 302 94 305 90 c 0,8,9
 317 72 317 72 342 72 c 2,10,-1
 371 73 l 2,11,12
 384 73 384 73 409.5 77 c 128,-1,13
 435 81 435 81 444 84 c 1,14,-1
 443 -1 l 1,15,16
 395 -20 395 -20 329 -20 c 0,0,1
479 585 m 256,17,18
 432 585 432 585 399.5 618.5 c 128,-1,19
 367 652 367 652 367 697 c 0,20,21
 367 746 367 746 398.5 778 c 128,-1,22
 430 810 430 810 479 810 c 0,23,24
 527 810 527 810 559 777 c 128,-1,25
 591 744 591 744 591 697 c 0,26,27
 591 652 591 652 558.5 618.5 c 128,-1,28
 526 585 526 585 479 585 c 256,17,18
EndSplineSet
EndChar

StartChar: Lslash
Encoding: 321 321 256
Width: 1051
GlyphClass: 1
Flags: W
LayerCount: 2
Fore
SplineSet
964 0 m 1,0,-1
 243 0 l 1,1,-1
 243 323 l 1,2,-1
 138 210 l 1,3,-1
 138 351 l 1,4,-1
 243 470 l 1,5,-1
 243 1413 l 1,6,-1
 357 1413 l 1,7,-1
 357 602 l 1,8,-1
 777 1080 l 1,9,-1
 777 907 l 1,10,-1
 357 448 l 1,11,-1
 357 101 l 1,12,-1
 964 101 l 1,13,-1
 964 0 l 1,0,-1
EndSplineSet
Position2: "'cpsp' Capital Spacing lookup 0 subtable" dx=5 dy=0 dh=10 dv=0
EndChar

StartChar: lslash
Encoding: 322 322 257
Width: 514
GlyphClass: 1
Flags: W
LayerCount: 2
Fore
SplineSet
331 -20 m 0,0,1
 197 -20 197 -20 190 93 c 0,2,3
 189 112 189 112 188 530 c 1,4,-1
 -16 310 l 1,5,-1
 -16 416 l 1,6,-1
 188 636 l 1,7,-1
 188 1413 l 1,8,-1
 295 1413 l 1,9,-1
 296 758 l 1,10,-1
 514 994 l 1,11,-1
 514 889 l 1,12,-1
 296 652 l 1,13,-1
 296 107 l 1,14,15
 302 94 302 94 305 90 c 0,16,17
 318 72 318 72 342 72 c 2,18,-1
 373 73 l 2,19,20
 387 73 387 73 412.5 77 c 128,-1,21
 438 81 438 81 447 84 c 1,22,-1
 446 -1 l 1,23,24
 398 -20 398 -20 331 -20 c 0,0,1
EndSplineSet
EndChar

StartChar: Eng
Encoding: 330 330 265
Width: 1412
GlyphClass: 1
Flags: W
LayerCount: 2
Fore
SplineSet
921 -370 m 2,0,-1
 860 -370 l 1,1,-1
 860 -271 l 1,2,3
 955 -271 955 -271 1010 -232 c 1,4,5
 1013 -212 1013 -212 1025 -203 c 1,6,7
 1039 -176 1039 -176 1039 -148 c 0,8,9
 1039 -113 1039 -113 1024 -82 c 2,10,-1
 345 1338 l 1,11,-1
 345 0 l 1,12,-1
 228 0 l 1,13,-1
 228 1413 l 1,14,-1
 434 1413 l 1,15,-1
 1066 75 l 1,16,-1
 1066 1413 l 1,17,-1
 1182 1413 l 1,18,-1
 1182 -3 l 2,19,20
 1182 -194 1182 -194 1121 -282 c 128,-1,21
 1060 -370 1060 -370 921 -370 c 2,0,-1
EndSplineSet
Position2: "'cpsp' Capital Spacing lookup 0 subtable" dx=5 dy=0 dh=10 dv=0
EndChar

StartChar: eng
Encoding: 331 331 266
Width: 1132
GlyphClass: 1
Flags: W
LayerCount: 2
Fore
SplineSet
726 -370 m 2,0,-1
 658 -370 l 1,1,-1
 658 -276 l 1,2,-1
 705 -276 l 2,3,4
 870 -276 870 -276 870 -94 c 2,5,-1
 870 632 l 2,6,7
 870 946 870 946 635 946 c 0,8,9
 541 946 541 946 465 899 c 128,-1,10
 389 852 389 852 344.5 774 c 128,-1,11
 300 696 300 696 300 606 c 2,12,-1
 300 10 l 1,13,-1
 190 10 l 1,14,-1
 190 1039 l 1,15,-1
 300 1039 l 1,16,-1
 300 857 l 1,17,18
 351 947 351 947 441.5 1001.5 c 128,-1,19
 532 1056 532 1056 636 1056 c 0,20,21
 756 1056 756 1056 832 1002 c 128,-1,22
 908 948 908 948 944 853.5 c 128,-1,23
 980 759 980 759 980 639 c 2,24,-1
 980 -86 l 2,25,26
 980 -201 980 -201 934 -283 c 0,27,28
 885 -370 885 -370 726 -370 c 2,0,-1
EndSplineSet
EndChar

StartChar: OE
Encoding: 338 338 273
Width: 2249
GlyphClass: 1
Flags: W
LayerCount: 2
Fore
SplineSet
757 -20 m 0,0,1
 465 -20 465 -20 300 188 c 0,2,3
 143 387 143 387 143 707 c 0,4,5
 143 1011 143 1011 288 1209 c 0,6,7
 454 1434 454 1434 757 1434 c 0,8,9
 955 1434 955 1434 1074 1351 c 128,-1,10
 1193 1268 1193 1268 1258 1099 c 1,11,-1
 1258 1413 l 1,12,-1
 2139 1413 l 1,13,-1
 2139 1321 l 1,14,-1
 1372 1321 l 1,15,-1
 1372 751 l 1,16,-1
 2040 751 l 1,17,-1
 2040 664 l 1,18,-1
 1372 664 l 1,19,-1
 1372 101 l 1,20,-1
 2139 101 l 1,21,-1
 2139 0 l 1,22,-1
 1258 0 l 1,23,-1
 1258 316 l 1,24,25
 1200 151 1200 151 1078.5 65.5 c 128,-1,26
 957 -20 957 -20 757 -20 c 0,0,1
757 79 m 0,27,28
 1007 79 1007 79 1138 265 c 0,29,30
 1258 435 1258 435 1258 707 c 0,31,32
 1258 970 1258 970 1144 1138 c 0,33,34
 1012 1334 1012 1334 757 1334 c 0,35,36
 509 1334 509 1334 377 1145 c 0,37,38
 258 974 258 974 258 707 c 0,39,40
 258 442 258 442 375 271 c 0,41,42
 508 79 508 79 757 79 c 0,27,28
EndSplineSet
Position2: "'cpsp' Capital Spacing lookup 0 subtable" dx=5 dy=0 dh=10 dv=0
EndChar

StartChar: oe
Encoding: 339 339 274
Width: 1828
GlyphClass: 1
Flags: W
LayerCount: 2
Fore
SplineSet
569 -20 m 0,0,1
 434 -20 434 -20 327.5 51.5 c 128,-1,2
 221 123 221 123 159 244.5 c 128,-1,3
 97 366 97 366 97 516 c 256,4,5
 97 666 97 666 159 787.5 c 128,-1,6
 221 909 221 909 327.5 980.5 c 128,-1,7
 434 1052 434 1052 569 1052 c 256,8,9
 704 1052 704 1052 811 981 c 128,-1,10
 918 910 918 910 980 789 c 1,11,-1
 982 784 l 1,12,13
 1099 1052 1099 1052 1358 1052 c 0,14,15
 1588 1052 1588 1052 1697 903 c 0,16,17
 1777 793 1777 793 1777 630 c 0,18,19
 1777 495 1777 495 1774.5 491.5 c 128,-1,20
 1772 488 1772 488 1772 486 c 1,21,-1
 1049 486 l 1,22,-1
 1049 459 l 2,23,24
 1049 300 1049 300 1127 197 c 0,25,26
 1219 80 1219 80 1374 80 c 0,27,28
 1482 80 1482 80 1551 104 c 0,29,30
 1626 131 1626 131 1682 190 c 1,31,-1
 1753 134 l 1,32,33
 1666 53 1666 53 1585 23 c 0,34,35
 1499 -12 1499 -12 1376 -12 c 0,36,37
 1166 -12 1166 -12 1046 138 c 0,38,39
 1008 187 1008 187 982 246 c 1,40,-1
 980 243 l 1,41,42
 918 122 918 122 811.5 51 c 128,-1,43
 705 -20 705 -20 569 -20 c 0,0,1
1672 584 m 1,44,-1
 1672 605 l 2,45,46
 1672 755 1672 755 1599 849 c 0,47,48
 1516 954 1516 954 1358 954 c 0,49,50
 1215 954 1215 954 1130 845 c 0,51,52
 1052 746 1052 746 1049 584 c 1,53,-1
 1672 584 l 1,44,-1
568 82 m 0,54,55
 731 82 731 82 832 207 c 0,56,57
 927 324 927 324 927 516 c 256,58,59
 927 708 927 708 832 825 c 0,60,61
 731 950 731 950 568 950 c 0,62,63
 416 950 416 950 308 824 c 0,64,65
 210 708 210 708 210 516 c 256,66,67
 210 324 210 324 308 208 c 0,68,69
 416 82 416 82 568 82 c 0,54,55
EndSplineSet
EndChar

StartChar: Tcaron
Encoding: 356 356 291
Width: 1255
GlyphClass: 1
Flags: W
LayerCount: 2
Fore
SplineSet
632 1501 m 1,0,-1
 304 1827 l 1,1,-1
 448 1827 l 1,2,-1
 632 1626 l 1,3,-1
 818 1827 l 1,4,-1
 960 1827 l 1,5,-1
 632 1501 l 1,0,-1
689 0 m 1,6,-1
 571 0 l 1,7,-1
 571 1328 l 1,8,-1
 79 1328 l 1,9,-1
 79 1413 l 1,10,-1
 1182 1413 l 1,11,-1
 1182 1328 l 1,12,-1
 689 1328 l 1,13,-1
 689 0 l 1,6,-1
EndSplineSet
Position2: "'cpsp' Capital Spacing lookup 0 subtable" dx=5 dy=0 dh=10 dv=0
EndChar

StartChar: tcaron
Encoding: 357 357 292
Width: 665
GlyphClass: 1
Flags: W
LayerCount: 2
Fore
SplineSet
555 1083 m 1,0,-1
 464 1083 l 1,1,-1
 515 1248 l 2,2,3
 541 1330 541 1330 565 1413 c 1,4,-1
 761 1413 l 1,5,-1
 555 1083 l 1,0,-1
440 -20 m 0,6,7
 358 -20 358 -20 309.5 14 c 128,-1,8
 261 48 261 48 240.5 113.5 c 128,-1,9
 220 179 220 179 220 270 c 2,10,-1
 220 956 l 1,11,-1
 57 956 l 1,12,-1
 57 1039 l 1,13,-1
 220 1039 l 1,14,-1
 220 1236 l 1,15,-1
 330 1344 l 1,16,-1
 330 1039 l 1,17,-1
 595 1039 l 1,18,-1
 595 956 l 1,19,-1
 330 956 l 1,20,-1
 330 248 l 2,21,22
 330 154 330 154 370.5 107 c 128,-1,23
 411 60 411 60 472 60 c 0,24,25
 514 60 514 60 556 80 c 1,26,-1
 556 -5 l 1,27,28
 514 -20 514 -20 440 -20 c 0,6,7
EndSplineSet
EndChar

StartChar: Tbar
Encoding: 358 358 293
Width: 1260
GlyphClass: 1
Flags: W
LayerCount: 2
Fore
SplineSet
689 0 m 1,0,-1
 571 0 l 1,1,-1
 571 659 l 1,2,-1
 321 659 l 1,3,-1
 321 751 l 1,4,-1
 571 751 l 1,5,-1
 571 1328 l 1,6,-1
 79 1328 l 1,7,-1
 79 1413 l 1,8,-1
 1182 1413 l 1,9,-1
 1182 1328 l 1,10,-1
 689 1328 l 1,11,-1
 689 751 l 1,12,-1
 953 751 l 1,13,-1
 953 659 l 1,14,-1
 689 659 l 1,15,-1
 689 0 l 1,0,-1
EndSplineSet
Position2: "'cpsp' Capital Spacing lookup 0 subtable" dx=5 dy=0 dh=10 dv=0
EndChar

StartChar: tbar
Encoding: 359 359 294
Width: 664
GlyphClass: 1
Flags: W
LayerCount: 2
Fore
SplineSet
468 -20 m 2,0,-1
 438 -20 l 2,1,2
 321 -20 321 -20 270.5 52 c 128,-1,3
 220 124 220 124 220 271 c 2,4,-1
 220 473 l 1,5,-1
 -11 473 l 1,6,-1
 -11 565 l 1,7,-1
 220 565 l 1,8,-1
 220 956 l 1,9,-1
 57 956 l 1,10,-1
 57 1039 l 1,11,-1
 220 1039 l 1,12,-1
 220 1231 l 1,13,-1
 330 1336 l 1,14,-1
 330 1039 l 1,15,-1
 595 1039 l 1,16,-1
 595 956 l 1,17,-1
 330 956 l 1,18,-1
 330 565 l 1,19,-1
 643 565 l 1,20,-1
 643 473 l 1,21,-1
 330 473 l 1,22,-1
 330 249 l 2,23,24
 330 158 330 158 369.5 109 c 128,-1,25
 409 60 409 60 472 60 c 0,26,27
 513 60 513 60 556 80 c 1,28,-1
 556 -5 l 1,29,30
 515 -20 515 -20 468 -20 c 2,0,-1
EndSplineSet
EndChar

StartChar: Uogonek
Encoding: 370 370 305
Width: 1348
GlyphClass: 1
Flags: W
LayerCount: 2
Fore
SplineSet
734 -449 m 2,0,-1
 725 -449 l 2,1,2
 639 -449 639 -449 586 -395 c 0,3,4
 524 -336 524 -336 524 -243 c 0,5,6
 524 -169 524 -169 569 -111 c 0,7,8
 610 -61 610 -61 692 -20 c 1,9,10
 462 -20 462 -20 334 117 c 0,11,12
 202 258 202 258 202 504 c 2,13,-1
 202 1413 l 1,14,-1
 317 1413 l 1,15,-1
 317 555 l 2,16,17
 317 334 317 334 397 217 c 0,18,19
 487 85 487 85 673 85 c 0,20,21
 856 85 856 85 949 217 c 0,22,23
 1033 336 1033 336 1033 555 c 2,24,-1
 1033 1413 l 1,25,-1
 1147 1413 l 1,26,-1
 1147 514 l 2,27,28
 1147 336 1147 336 1075 204 c 0,29,30
 998 67 998 67 841 5 c 1,31,-1
 848 11 l 1,32,-1
 793 -14 l 2,33,34
 726 -48 726 -48 672 -93 c 1,35,36
 614 -153 614 -153 614 -232 c 0,37,38
 614 -282 614 -282 641 -317 c 128,-1,39
 668 -352 668 -352 709 -352 c 0,40,41
 791 -352 791 -352 840 -287 c 1,42,-1
 917 -339 l 1,43,44
 883 -386 883 -386 851 -413 c 0,45,46
 805 -446 805 -446 734 -449 c 2,0,-1
EndSplineSet
Position2: "'cpsp' Capital Spacing lookup 0 subtable" dx=5 dy=0 dh=10 dv=0
EndChar

StartChar: uogonek
Encoding: 371 371 306
Width: 1122
GlyphClass: 1
Flags: W
LayerCount: 2
Fore
SplineSet
816 -453 m 0,0,1
 732 -453 732 -453 674.5 -398 c 128,-1,2
 617 -343 617 -343 617 -250 c 0,3,4
 617 -77 617 -77 873 0 c 1,5,-1
 844 0 l 1,6,-1
 844 213 l 1,7,8
 822 150 822 150 777.5 100 c 128,-1,9
 733 50 733 50 663.5 13.5 c 128,-1,10
 594 -23 594 -23 507 -23 c 0,11,12
 391 -23 391 -23 315 32 c 128,-1,13
 239 87 239 87 202 187.5 c 128,-1,14
 165 288 165 288 165 422 c 2,15,-1
 165 1039 l 1,16,-1
 269 1039 l 1,17,-1
 269 405 l 2,18,19
 269 319 269 319 289.5 239.5 c 128,-1,20
 310 160 310 160 361.5 109 c 128,-1,21
 413 58 413 58 504 58 c 0,22,23
 591 58 591 58 669 111 c 128,-1,24
 747 164 747 164 795.5 247.5 c 128,-1,25
 844 331 844 331 844 424 c 2,26,-1
 844 1039 l 1,27,-1
 945 1039 l 1,28,-1
 945 0 l 1,29,-1
 914 -14 l 2,30,31
 706 -107 706 -107 706 -240 c 0,32,33
 706 -288 706 -288 733 -323.5 c 128,-1,34
 760 -359 760 -359 804 -359 c 0,35,36
 892 -359 892 -359 938 -294 c 1,37,-1
 1017 -347 l 1,38,39
 943 -453 943 -453 816 -453 c 0,0,1
EndSplineSet
EndChar

StartChar: Zcaron
Encoding: 381 381 316
Width: 1279
GlyphClass: 1
Flags: W
LayerCount: 2
Fore
SplineSet
656 1556 m 1,0,-1
 328 1882 l 1,1,-1
 472 1882 l 1,2,-1
 656 1681 l 1,3,-1
 842 1882 l 1,4,-1
 984 1882 l 1,5,-1
 656 1556 l 1,0,-1
1167 0 m 1,6,-1
 101 0 l 1,7,-1
 101 99 l 1,8,-1
 1047 1321 l 1,9,-1
 146 1321 l 1,10,-1
 146 1413 l 1,11,-1
 1167 1413 l 1,12,-1
 1167 1308 l 1,13,-1
 226 105 l 1,14,-1
 1167 105 l 1,15,-1
 1167 0 l 1,6,-1
EndSplineSet
Position2: "'cpsp' Capital Spacing lookup 0 subtable" dx=5 dy=0 dh=10 dv=0
EndChar

StartChar: zcaron
Encoding: 382 382 317
Width: 933
GlyphClass: 1
Flags: W
LayerCount: 2
Fore
SplineSet
479 1160 m 1,0,-1
 138 1456 l 1,1,-1
 288 1456 l 1,2,-1
 479 1273 l 1,3,-1
 673 1456 l 1,4,-1
 821 1456 l 1,5,-1
 479 1160 l 1,0,-1
852 0 m 1,6,-1
 78 0 l 1,7,-1
 78 98 l 1,8,-1
 740 946 l 1,9,-1
 107 946 l 1,10,-1
 107 1039 l 1,11,-1
 852 1039 l 1,12,-1
 852 930 l 1,13,-1
 198 92 l 1,14,-1
 852 92 l 1,15,-1
 852 0 l 1,6,-1
EndSplineSet
EndChar

StartChar: longs
Encoding: 383 383 318
Width: 696
GlyphClass: 2
Flags: W
LayerCount: 2
Fore
SplineSet
333 0 m 1,0,-1
 232 0 l 1,1,-1
 232 956 l 1,2,-1
 42 956 l 1,3,-1
 42 1037 l 1,4,-1
 231 1037 l 1,5,-1
 231 1207 l 2,6,7
 231 1315 231 1315 302 1374.5 c 128,-1,8
 373 1434 373 1434 488 1434 c 0,9,10
 569 1434 569 1434 647 1398 c 1,11,-1
 629 1322 l 1,12,13
 554 1351 554 1351 493 1351 c 0,14,15
 422 1351 422 1351 377.5 1310 c 128,-1,16
 333 1269 333 1269 333 1181 c 2,17,-1
 333 0 l 1,0,-1
EndSplineSet
EndChar

StartChar: florin
Encoding: 402 402 319
Width: 1086
GlyphClass: 1
Flags: W
LayerCount: 2
Fore
SplineSet
145 -459 m 1,0,-1
 145 -358 l 1,1,2
 318 -358 318 -358 408 -273.5 c 128,-1,3
 498 -189 498 -189 498 -18 c 2,4,-1
 498 942 l 1,5,-1
 313 942 l 1,6,-1
 313 1039 l 1,7,-1
 498 1039 l 1,8,-1
 498 1202 l 2,9,10
 498 1305 498 1305 572 1377.5 c 128,-1,11
 646 1450 646 1450 757 1450 c 0,12,13
 824 1450 824 1450 900 1414 c 0,14,15
 921 1402 921 1402 936 1390 c 1,16,-1
 868 1317 l 1,17,18
 839 1336 839 1336 777 1349 c 1,19,-1
 756 1350 l 2,20,21
 688 1350 688 1350 643.5 1309 c 128,-1,22
 599 1268 599 1268 599 1198 c 2,23,-1
 599 1039 l 1,24,-1
 918 1039 l 1,25,-1
 918 942 l 1,26,-1
 599 942 l 1,27,-1
 599 -10 l 2,28,29
 599 -222 599 -222 475 -340.5 c 128,-1,30
 351 -459 351 -459 145 -459 c 1,0,-1
EndSplineSet
EndChar

StartChar: Ohorn
Encoding: 416 416 320
Width: 1421
GlyphClass: 1
Flags: W
LayerCount: 2
Fore
SplineSet
760 -20 m 0,0,1
 463 -20 463 -20 300 187 c 0,2,3
 146 383 146 383 146 707 c 0,4,5
 146 1018 146 1018 290 1213 c 0,6,7
 454 1436 454 1436 762 1436 c 0,8,9
 1067 1436 1067 1436 1231 1213 c 0,10,11
 1266 1166 1266 1166 1292 1112 c 1,12,13
 1339 1125 1339 1125 1368 1158 c 0,14,15
 1416 1213 1416 1213 1416 1337 c 2,16,-1
 1416 1436 l 1,17,-1
 1498 1436 l 1,18,-1
 1498 1328 l 2,19,20
 1498 1086 1498 1086 1324 1037 c 1,21,22
 1375 893 1375 893 1375 707 c 0,23,24
 1375 383 1375 383 1221 187 c 0,25,26
 1058 -20 1058 -20 760 -20 c 0,0,1
760 91 m 0,27,28
 893 91 893 91 988 143 c 1,29,30
 1077 187 1077 187 1137.5 275 c 128,-1,31
 1198 363 1198 363 1225 476.5 c 128,-1,32
 1252 590 1252 590 1252 717 c 0,33,34
 1252 984 1252 984 1132 1151 c 0,35,36
 1010 1324 1010 1324 764 1324 c 0,37,38
 511 1324 511 1324 389 1151 c 0,39,40
 269 984 269 984 269 717 c 0,41,42
 269 590 269 590 296 476.5 c 128,-1,43
 323 363 323 363 383.5 275 c 128,-1,44
 444 187 444 187 533 143 c 1,45,46
 628 91 628 91 760 91 c 0,27,28
EndSplineSet
EndChar

StartChar: ohorn
Encoding: 417 417 321
Width: 1151
GlyphClass: 1
Flags: W
LayerCount: 2
Fore
SplineSet
577 -20 m 256,0,1
 442 -20 442 -20 335.5 51.5 c 128,-1,2
 229 123 229 123 167 244.5 c 128,-1,3
 105 366 105 366 105 516 c 256,4,5
 105 666 105 666 167 787.5 c 128,-1,6
 229 909 229 909 335.5 980.5 c 128,-1,7
 442 1052 442 1052 577 1052 c 256,8,9
 712 1052 712 1052 818.5 981 c 128,-1,10
 925 910 925 910 987 789 c 0,11,12
 1006 754 1006 754 1018 716 c 1,13,14
 1069 729 1069 729 1100 764 c 0,15,16
 1149 820 1149 820 1149 945 c 2,17,-1
 1149 1052 l 1,18,-1
 1231 1052 l 1,19,-1
 1231 940 l 2,20,21
 1231 679 1231 679 1038 634 c 1,22,23
 1048 578 1048 578 1048 517 c 0,24,25
 1048 367 1048 367 986 245 c 128,-1,26
 924 123 924 123 818 51.5 c 128,-1,27
 712 -20 712 -20 577 -20 c 256,0,1
577 82 m 0,28,29
 740 82 740 82 840 207 c 0,30,31
 935 324 935 324 935 516 c 256,32,33
 935 708 935 708 840 825 c 0,34,35
 739 950 739 950 577 950 c 0,36,37
 425 950 425 950 316 824 c 0,38,39
 218 708 218 708 218 516 c 256,40,41
 218 324 218 324 316 208 c 0,42,43
 424 82 424 82 577 82 c 0,28,29
EndSplineSet
EndChar

StartChar: Uhorn
Encoding: 431 431 322
Width: 1348
GlyphClass: 1
Flags: W
LayerCount: 2
Fore
SplineSet
1148 1024 m 1,0,-1
 1148 1103 l 1,1,2
 1245 1103 1245 1103 1293.5 1158 c 128,-1,3
 1342 1213 1342 1213 1342 1337 c 2,4,-1
 1342 1436 l 1,5,-1
 1424 1436 l 1,6,-1
 1424 1328 l 2,7,8
 1424 1024 1424 1024 1148 1024 c 1,0,-1
673 -20 m 0,9,10
 519 -20 519 -20 414 49 c 128,-1,11
 309 118 309 118 255.5 236 c 128,-1,12
 202 354 202 354 202 504 c 2,13,-1
 202 1413 l 1,14,-1
 317 1413 l 1,15,-1
 317 555 l 2,16,17
 317 85 317 85 673 85 c 0,18,19
 801 85 801 85 880 145 c 0,20,21
 1033 261 1033 261 1033 555 c 2,22,-1
 1033 1413 l 1,23,-1
 1147 1413 l 1,24,-1
 1147 514 l 2,25,26
 1147 293 1147 293 1037 148 c 0,27,28
 909 -20 909 -20 673 -20 c 0,9,10
EndSplineSet
EndChar

StartChar: uhorn
Encoding: 432 432 323
Width: 1132
GlyphClass: 1
Flags: W
LayerCount: 2
Fore
SplineSet
507 -23 m 0,0,1
 391 -23 391 -23 315 32 c 128,-1,2
 239 87 239 87 202 187.5 c 128,-1,3
 165 288 165 288 165 421 c 2,4,-1
 165 1038 l 1,5,-1
 268 1038 l 1,6,-1
 268 405 l 2,7,8
 268 319 268 319 289 239.5 c 128,-1,9
 310 160 310 160 362 109 c 128,-1,10
 414 58 414 58 504 58 c 0,11,12
 586 58 586 58 665.5 107 c 128,-1,13
 745 156 745 156 796.5 239 c 128,-1,14
 848 322 848 322 848 423 c 2,15,-1
 848 1038 l 1,16,-1
 949 1038 l 1,17,-1
 949 703 l 1,18,19
 1049 703 1049 703 1099.5 760.5 c 128,-1,20
 1150 818 1150 818 1150 948 c 2,21,-1
 1150 1052 l 1,22,-1
 1232 1052 l 1,23,-1
 1232 940 l 2,24,25
 1232 625 1232 625 949 624 c 1,26,-1
 949 0 l 1,27,-1
 848 0 l 1,28,-1
 848 213 l 1,29,30
 826 150 826 150 780.5 100 c 128,-1,31
 735 50 735 50 665.5 13.5 c 128,-1,32
 596 -23 596 -23 507 -23 c 0,0,1
EndSplineSet
EndChar

StartChar: uni01C3
Encoding: 451 451 324
Width: 670
GlyphClass: 1
Flags: W
LayerCount: 2
Fore
SplineSet
374 361 m 1,0,-1
 297 361 l 1,1,-1
 268 1436 l 1,2,-1
 403 1436 l 1,3,-1
 374 361 l 1,0,-1
415 0 m 1,4,-1
 256 0 l 1,5,-1
 256 158 l 1,6,-1
 415 158 l 1,7,-1
 415 0 l 1,4,-1
EndSplineSet
EndChar

StartChar: uni01DD
Encoding: 477 477 350
Width: 1046
GlyphClass: 1
Flags: W
LayerCount: 2
Fore
SplineSet
521 -12 m 0,0,1
 305 -12 305 -12 201 141 c 0,2,3
 106 282 106 282 106 540 c 0,4,5
 108 547 108 547 108 554 c 1,6,-1
 837 554 l 1,7,8
 837 739 837 739 750 850 c 0,9,10
 660 966 660 966 506 966 c 0,11,12
 407 966 407 966 332.5 939 c 128,-1,13
 258 912 258 912 196 849 c 1,14,-1
 127 902 l 1,15,16
 202 981 202 981 290.5 1016.5 c 128,-1,17
 379 1052 379 1052 501 1052 c 0,18,19
 708 1052 708 1052 832 901 c 0,20,21
 948 758 948 758 948 526 c 0,22,23
 948 293 948 293 842 148 c 0,24,25
 723 -12 723 -12 521 -12 c 0,0,1
521 85 m 0,26,27
 671 85 671 85 756 192 c 0,28,29
 837 294 837 294 837 458 c 1,30,-1
 202 458 l 1,31,-1
 202 442 l 2,32,33
 202 286 202 286 278 192 c 0,34,35
 362 85 362 85 521 85 c 0,26,27
EndSplineSet
EndChar

StartChar: uni01F1
Encoding: 497 497 354
Width: 2679
GlyphClass: 1
Flags: W
LayerCount: 2
Fore
SplineSet
565 0 m 2,0,-1
 228 0 l 1,1,-1
 228 1413 l 1,2,-1
 567 1413 l 2,3,4
 901 1413 901 1413 1085.5 1229 c 128,-1,5
 1270 1045 1270 1045 1270 696 c 0,6,7
 1270 360 1270 360 1085 180 c 128,-1,8
 900 0 900 0 565 0 c 2,0,-1
2571 0 m 1,9,-1
 1505 0 l 1,10,-1
 1505 99 l 1,11,-1
 2451 1321 l 1,12,-1
 1550 1321 l 1,13,-1
 1550 1413 l 1,14,-1
 2571 1413 l 1,15,-1
 2571 1308 l 1,16,-1
 1630 105 l 1,17,-1
 2571 105 l 1,18,-1
 2571 0 l 1,9,-1
541 104 m 2,19,20
 659 104 659 104 769.5 138.5 c 128,-1,21
 880 173 880 173 966.5 246 c 128,-1,22
 1053 319 1053 319 1104 433.5 c 128,-1,23
 1155 548 1155 548 1155 707 c 0,24,25
 1155 994 1155 994 1002 1154 c 128,-1,26
 849 1314 849 1314 563 1314 c 2,27,-1
 343 1314 l 1,28,-1
 343 104 l 1,29,-1
 541 104 l 2,19,20
EndSplineSet
Position2: "'cpsp' Capital Spacing lookup 0 subtable" dx=5 dy=0 dh=10 dv=0
EndChar

StartChar: uni01F2
Encoding: 498 498 355
Width: 2304
GlyphClass: 1
Flags: W
LayerCount: 2
Fore
SplineSet
565 0 m 2,0,-1
 228 0 l 1,1,-1
 228 1413 l 1,2,-1
 567 1413 l 2,3,4
 901 1413 901 1413 1085.5 1229 c 128,-1,5
 1270 1045 1270 1045 1270 696 c 0,6,7
 1270 360 1270 360 1085 180 c 128,-1,8
 900 0 900 0 565 0 c 2,0,-1
541 104 m 2,9,10
 659 104 659 104 769.5 138.5 c 128,-1,11
 880 173 880 173 966.5 246 c 128,-1,12
 1053 319 1053 319 1104 433.5 c 128,-1,13
 1155 548 1155 548 1155 707 c 0,14,15
 1155 994 1155 994 1002 1154 c 128,-1,16
 849 1314 849 1314 563 1314 c 2,17,-1
 343 1314 l 1,18,-1
 343 104 l 1,19,-1
 541 104 l 2,9,10
2222 0 m 1,20,-1
 1479 0 l 1,21,-1
 1479 98 l 1,22,-1
 2114 904 l 1,23,-1
 1507 904 l 1,24,-1
 1507 997 l 1,25,-1
 2222 997 l 1,26,-1
 2222 889 l 1,27,-1
 1594 92 l 1,28,-1
 2222 92 l 1,29,-1
 2222 0 l 1,20,-1
EndSplineSet
Position2: "'cpsp' Capital Spacing lookup 0 subtable" dx=5 dy=0 dh=10 dv=0
EndChar

StartChar: uni01F3
Encoding: 499 499 356
Width: 2078
GlyphClass: 1
Flags: W
LayerCount: 2
Fore
SplineSet
519 -20 m 0,0,1
 391 -20 391 -20 301 53 c 128,-1,2
 211 126 211 126 164 248.5 c 128,-1,3
 117 371 117 371 117 520 c 0,4,5
 117 667 117 667 164 790 c 128,-1,6
 211 913 211 913 300.5 986.5 c 128,-1,7
 390 1060 390 1060 520 1060 c 0,8,9
 735 1060 735 1060 858 878 c 1,10,-1
 858 1413 l 1,11,-1
 962 1413 l 1,12,-1
 962 0 l 1,13,-1
 855 0 l 1,14,-1
 857 161 l 1,15,16
 794 69 794 69 715.5 24.5 c 128,-1,17
 637 -20 637 -20 519 -20 c 0,0,1
2001 0 m 1,18,-1
 1227 0 l 1,19,-1
 1227 98 l 1,20,-1
 1889 946 l 1,21,-1
 1256 946 l 1,22,-1
 1256 1039 l 1,23,-1
 2001 1039 l 1,24,-1
 2001 930 l 1,25,-1
 1347 92 l 1,26,-1
 2001 92 l 1,27,-1
 2001 0 l 1,18,-1
547 74 m 0,28,29
 654 74 654 74 725 132.5 c 128,-1,30
 796 191 796 191 831.5 291.5 c 128,-1,31
 867 392 867 392 867 520 c 0,32,33
 867 704 867 704 794 823 c 0,34,35
 711 962 711 962 547 962 c 0,36,37
 437 962 437 962 365 901 c 128,-1,38
 293 840 293 840 259 740 c 128,-1,39
 225 640 225 640 225 520 c 0,40,41
 225 341 225 341 296 218 c 0,42,43
 378 74 378 74 547 74 c 0,28,29
EndSplineSet
EndChar

StartChar: uni0237
Encoding: 567 567 367
Width: 487
GlyphClass: 2
Flags: W
LayerCount: 2
Fore
SplineSet
53 -440 m 0,0,1
 26 -440 26 -440 -17 -431 c 128,-1,2
 -60 -422 -60 -422 -90 -411 c 1,3,-1
 -70 -323 l 1,4,5
 -53 -328 -53 -328 -12 -333 c 128,-1,6
 29 -338 29 -338 59 -338 c 0,7,8
 126 -338 126 -338 159 -296.5 c 128,-1,9
 192 -255 192 -255 192 -197 c 2,10,-1
 192 1039 l 1,11,-1
 301 1039 l 1,12,-1
 301 -172 l 2,13,14
 301 -251 301 -251 275 -311.5 c 128,-1,15
 249 -372 249 -372 195.5 -406 c 128,-1,16
 142 -440 142 -440 53 -440 c 0,0,1
EndSplineSet
EndChar

StartChar: uni0250
Encoding: 592 592 368
Width: 1037
GlyphClass: 1
Flags: W
LayerCount: 2
Fore
SplineSet
535 -15 m 0,0,1
 348 -15 348 -15 249.5 97.5 c 128,-1,2
 151 210 151 210 151 401 c 2,3,-1
 151 1041 l 1,4,-1
 241 1041 l 1,5,6
 241 933 241 933 239 806 c 1,7,8
 300 942 300 942 402 1001.5 c 128,-1,9
 504 1061 504 1061 625 1061 c 0,10,11
 766 1061 766 1061 853.5 982.5 c 128,-1,12
 941 904 941 904 941 767 c 0,13,14
 941 462 941 462 471 462 c 2,15,-1
 242 462 l 1,16,17
 242 340 242 340 269.5 253.5 c 128,-1,18
 297 167 297 167 359 121 c 128,-1,19
 421 75 421 75 523 75 c 0,20,21
 598 75 598 75 656.5 97.5 c 128,-1,22
 715 120 715 120 759 156 c 128,-1,23
 803 192 803 192 831 233 c 1,24,-1
 905 171 l 1,25,26
 771 -15 771 -15 535 -15 c 0,0,1
469 544 m 2,27,28
 654 544 654 544 742.5 595 c 128,-1,29
 831 646 831 646 831 768 c 0,30,31
 831 874 831 874 771.5 924 c 128,-1,32
 712 974 712 974 616 974 c 0,33,34
 449 974 449 974 342 837 c 0,35,36
 242 709 242 709 242 544 c 1,37,-1
 469 544 l 2,27,28
EndSplineSet
EndChar

StartChar: uni0254
Encoding: 596 596 369
Width: 993
GlyphClass: 1
Flags: W
LayerCount: 2
Fore
SplineSet
493 -20 m 0,0,1
 366 -20 366 -20 269 45.5 c 128,-1,2
 172 111 172 111 124 238 c 1,3,-1
 216 282 l 1,4,5
 239 203 239 203 316.5 141.5 c 128,-1,6
 394 80 394 80 497 80 c 0,7,8
 665 80 665 80 742 214 c 0,9,10
 813 338 813 338 813 518 c 0,11,12
 813 700 813 700 738 824 c 0,13,14
 659 955 659 955 497 955 c 0,15,16
 399 955 399 955 320 895 c 128,-1,17
 241 835 241 835 216 754 c 1,18,-1
 113 804 l 1,19,20
 164 915 164 915 260.5 985.5 c 128,-1,21
 357 1056 357 1056 495 1056 c 0,22,23
 602 1056 602 1056 680 1012 c 0,24,25
 806 937 806 937 864 802.5 c 128,-1,26
 922 668 922 668 922 518 c 0,27,28
 922 371 922 371 872.5 248.5 c 128,-1,29
 823 126 823 126 728 53 c 128,-1,30
 633 -20 633 -20 493 -20 c 0,0,1
EndSplineSet
EndChar

StartChar: uni0258
Encoding: 600 600 370
Width: 1054
GlyphClass: 1
Flags: W
LayerCount: 2
Fore
SplineSet
514 -12 m 0,0,1
 391 -12 391 -12 306 23 c 0,2,3
 224 54 224 54 138 134 c 1,4,-1
 209 190 l 1,5,6
 265 132 265 132 340 104 c 0,7,8
 409 80 409 80 517 80 c 0,9,10
 672 80 672 80 764 197 c 0,11,12
 842 301 842 301 842 460 c 2,13,-1
 842 486 l 1,14,-1
 119 486 l 1,15,16
 119 488 119 488 116.5 491.5 c 128,-1,17
 114 495 114 495 114 626 c 0,18,19
 114 792 114 792 194 903 c 0,20,21
 302 1052 302 1052 532 1052 c 0,22,23
 732 1052 732 1052 850 887 c 0,24,25
 956 736 956 736 956 514 c 0,26,27
 956 281 956 281 844 139 c 0,28,29
 724 -12 724 -12 514 -12 c 0,0,1
842 584 m 1,30,31
 839 746 839 746 761 845 c 0,32,33
 676 954 676 954 533 954 c 0,34,35
 376 954 376 954 278 838 c 0,36,37
 209 757 209 757 209 609 c 2,38,-1
 209 584 l 1,39,-1
 842 584 l 1,30,31
EndSplineSet
EndChar

StartChar: uni0259
Encoding: 601 601 371
Width: 1054
GlyphClass: 1
Flags: W
LayerCount: 2
Fore
SplineSet
532 -12 m 0,0,1
 302 -12 302 -12 194 137 c 0,2,3
 114 248 114 248 114 414 c 0,4,5
 114 545 114 545 116.5 548.5 c 128,-1,6
 119 552 119 552 119 554 c 1,7,-1
 842 554 l 1,8,-1
 842 580 l 2,9,10
 842 739 842 739 764 843 c 0,11,12
 672 960 672 960 517 960 c 0,13,14
 409 960 409 960 340 936 c 0,15,16
 265 909 265 909 209 850 c 1,17,-1
 138 906 l 1,18,19
 225 987 225 987 306 1017 c 0,20,21
 391 1052 391 1052 514 1052 c 0,22,23
 724 1052 724 1052 844 901 c 0,24,25
 956 760 956 760 956 530 c 0,26,27
 956 303 956 303 850 152 c 0,28,29
 732 -12 732 -12 532 -12 c 0,0,1
533 86 m 0,30,31
 676 86 676 86 761 195 c 0,32,33
 839 294 839 294 842 456 c 1,34,-1
 209 456 l 1,35,-1
 209 435 l 2,36,37
 209 285 209 285 278 202 c 0,38,39
 375 86 375 86 533 86 c 0,30,31
EndSplineSet
EndChar

StartChar: uni0261
Encoding: 609 609 372
Width: 1137
GlyphClass: 1
Flags: W
LayerCount: 2
Fore
SplineSet
549 -433 m 0,0,1
 429 -433 429 -433 327.5 -387 c 128,-1,2
 226 -341 226 -341 167 -247 c 1,3,-1
 251 -184 l 1,4,5
 354 -343 354 -343 547 -343 c 0,6,7
 649 -343 649 -343 718.5 -297 c 128,-1,8
 788 -251 788 -251 823.5 -173 c 128,-1,9
 859 -95 859 -95 859 0 c 2,10,-1
 859 160 l 1,11,12
 738 -23 738 -23 529 -23 c 0,13,14
 393 -23 393 -23 302 49 c 128,-1,15
 211 121 211 121 164.5 244 c 128,-1,16
 118 367 118 367 118 519 c 0,17,18
 118 682 118 682 174 815 c 128,-1,19
 230 948 230 948 350 1018 c 0,20,21
 427 1060 427 1060 529 1060 c 0,22,23
 740 1060 740 1060 859 876 c 1,24,-1
 859 1039 l 1,25,-1
 965 1039 l 1,26,27
 962 270 962 270 962 10 c 0,28,29
 962 -124 962 -124 915.5 -223.5 c 128,-1,30
 869 -323 869 -323 776.5 -378 c 128,-1,31
 684 -433 684 -433 549 -433 c 0,0,1
550 65 m 0,32,33
 700 65 700 65 783.5 189.5 c 128,-1,34
 867 314 867 314 867 519 c 0,35,36
 867 651 867 651 826 761.5 c 128,-1,37
 785 872 785 872 692 931 c 0,38,39
 632 969 632 969 550 969 c 0,40,41
 439 969 439 969 366.5 906 c 128,-1,42
 294 843 294 843 260 741 c 128,-1,43
 226 639 226 639 226 519 c 0,44,45
 226 331 226 331 299 208 c 0,46,47
 383 65 383 65 550 65 c 0,32,33
EndSplineSet
EndChar

StartChar: circumflex
Encoding: 710 710 374
Width: 789
GlyphClass: 1
Flags: W
LayerCount: 2
Fore
SplineSet
717 1103 m 1,0,-1
 576 1103 l 1,1,-1
 389 1307 l 1,2,-1
 205 1103 l 1,3,-1
 60 1103 l 1,4,-1
 389 1453 l 1,5,-1
 717 1103 l 1,0,-1
EndSplineSet
EndChar

StartChar: caron
Encoding: 711 711 375
Width: 788
GlyphClass: 1
Flags: W
LayerCount: 2
Fore
SplineSet
392 1087 m 1,0,-1
 64 1413 l 1,1,-1
 208 1413 l 1,2,-1
 392 1212 l 1,3,-1
 578 1413 l 1,4,-1
 720 1413 l 1,5,-1
 392 1087 l 1,0,-1
EndSplineSet
EndChar

StartChar: uni02D0
Encoding: 720 720 376
Width: 520
GlyphClass: 1
Flags: W
LayerCount: 2
Fore
SplineSet
288 690 m 1,0,-1
 70 998 l 1,1,-1
 423 1051 l 1,2,-1
 288 690 l 1,0,-1
98 -52 m 1,3,-1
 234 308 l 1,4,-1
 450 -1 l 1,5,-1
 98 -52 l 1,3,-1
EndSplineSet
EndChar

StartChar: uni02D1
Encoding: 721 721 377
Width: 552
GlyphClass: 1
Flags: W
LayerCount: 2
Fore
SplineSet
303 292 m 1,0,-1
 87 599 l 1,1,-1
 440 651 l 1,2,-1
 303 292 l 1,0,-1
EndSplineSet
EndChar

StartChar: breve
Encoding: 728 728 378
Width: 839
GlyphClass: 1
Flags: W
LayerCount: 2
Fore
SplineSet
413 1148 m 0,0,1
 336 1148 336 1148 267 1177 c 128,-1,2
 198 1206 198 1206 155 1265.5 c 128,-1,3
 112 1325 112 1325 112 1413 c 1,4,-1
 228 1413 l 1,5,6
 228 1344 228 1344 282 1293.5 c 128,-1,7
 336 1243 336 1243 413 1243 c 0,8,9
 488 1243 488 1243 542.5 1288.5 c 128,-1,10
 597 1334 597 1334 597 1413 c 1,11,-1
 714 1413 l 1,12,13
 714 1328 714 1328 673 1268.5 c 128,-1,14
 632 1209 632 1209 564 1178.5 c 128,-1,15
 496 1148 496 1148 413 1148 c 0,0,1
EndSplineSet
EndChar

StartChar: dotaccent
Encoding: 729 729 379
Width: 486
GlyphClass: 1
Flags: W
LayerCount: 2
Fore
SplineSet
308 1239 m 1,0,-1
 174 1239 l 1,1,-1
 174 1413 l 1,2,-1
 308 1413 l 1,3,-1
 308 1239 l 1,0,-1
EndSplineSet
EndChar

StartChar: ring
Encoding: 730 730 380
Width: 635
GlyphClass: 1
Flags: W
LayerCount: 2
Fore
SplineSet
311 1087 m 0,0,1
 232 1087 232 1087 177 1141 c 128,-1,2
 122 1195 122 1195 122 1278 c 0,3,4
 122 1354 122 1354 176 1411 c 128,-1,5
 230 1468 230 1468 311 1468 c 0,6,7
 391 1468 391 1468 446.5 1412 c 128,-1,8
 502 1356 502 1356 502 1278 c 0,9,10
 502 1199 502 1199 447 1143 c 128,-1,11
 392 1087 392 1087 311 1087 c 0,0,1
311 1174 m 0,12,13
 353 1174 353 1174 384.5 1204 c 128,-1,14
 416 1234 416 1234 416 1278 c 0,15,16
 416 1318 416 1318 385.5 1348.5 c 128,-1,17
 355 1379 355 1379 311 1379 c 0,18,19
 266 1379 266 1379 238 1351 c 128,-1,20
 210 1323 210 1323 210 1278 c 0,21,22
 210 1228 210 1228 240.5 1201 c 128,-1,23
 271 1174 271 1174 311 1174 c 0,12,13
EndSplineSet
EndChar

StartChar: ogonek
Encoding: 731 731 381
Width: 599
GlyphClass: 1
Flags: W
LayerCount: 2
Fore
SplineSet
312 -453 m 0,0,1
 261 -453 261 -453 216.5 -429 c 128,-1,2
 172 -405 172 -405 144.5 -359.5 c 128,-1,3
 117 -314 117 -314 117 -250 c 0,4,5
 117 -103 117 -103 288 -30 c 0,6,7
 313 -16 313 -16 339 -6 c 1,8,-1
 439 0 l 1,9,-1
 408 -13 l 2,10,11
 326 -49 326 -49 266 -111.5 c 128,-1,12
 206 -174 206 -174 206 -240 c 0,13,14
 206 -294 206 -294 234.5 -326.5 c 128,-1,15
 263 -359 263 -359 302 -359 c 0,16,17
 390 -359 390 -359 433 -294 c 1,18,-1
 509 -347 l 1,19,20
 440 -453 440 -453 312 -453 c 0,0,1
EndSplineSet
EndChar

StartChar: tilde
Encoding: 732 732 382
Width: 854
GlyphClass: 1
Flags: W
LayerCount: 2
Fore
SplineSet
585 1164 m 0,0,1
 538 1164 538 1164 508 1186 c 0,2,3
 479 1204 479 1204 432 1256 c 0,4,5
 401 1291 401 1291 379.5 1309 c 128,-1,6
 358 1327 358 1327 331 1327 c 0,7,8
 293 1327 293 1327 273 1284 c 0,9,10
 256 1248 256 1248 256 1189 c 1,11,-1
 179 1189 l 1,12,13
 179 1293 179 1293 221 1359 c 0,14,15
 261 1421 261 1421 332 1421 c 1,16,17
 394 1413 394 1413 439 1377 c 1,18,-1
 466 1351 l 1,19,-1
 532 1276 l 2,20,21
 555 1251 555 1251 588 1251 c 0,22,23
 666 1251 666 1251 666 1413 c 1,24,-1
 751 1413 l 1,25,26
 751 1164 751 1164 585 1164 c 0,0,1
EndSplineSet
EndChar

StartChar: hungarumlaut
Encoding: 733 733 383
Width: 857
GlyphClass: 1
Flags: W
LayerCount: 2
Fore
SplineSet
193 1139 m 1,0,-1
 84 1139 l 1,1,-1
 295 1413 l 1,2,-1
 462 1413 l 1,3,-1
 193 1139 l 1,0,-1
517 1139 m 1,4,-1
 408 1139 l 1,5,-1
 618 1413 l 1,6,-1
 776 1413 l 1,7,-1
 517 1139 l 1,4,-1
EndSplineSet
EndChar

StartChar: uni02F5
Encoding: 757 757 384
Width: 857
GlyphClass: 1
Flags: W
LayerCount: 2
Fore
SplineSet
773 569 m 1,0,-1
 664 569 l 1,1,-1
 395 843 l 1,2,-1
 562 843 l 1,3,-1
 773 569 l 1,0,-1
449 569 m 1,4,-1
 340 569 l 1,5,-1
 81 843 l 1,6,-1
 239 843 l 1,7,-1
 449 569 l 1,4,-1
EndSplineSet
EndChar

StartChar: gravecomb
Encoding: 768 768 386
Width: 0
GlyphClass: 4
Flags: W
AnchorPoint: "Anchor-1" -145 1035 mark 0
LayerCount: 2
Fore
SplineSet
-89 1165 m 1,0,-1
 -198 1165 l 1,1,-1
 -457 1449 l 1,2,-1
 -299 1449 l 1,3,-1
 -89 1165 l 1,0,-1
EndSplineSet
EndChar

StartChar: acutecomb
Encoding: 769 769 387
Width: 0
GlyphClass: 4
Flags: W
AnchorPoint: "Anchor-1" -342 1035 mark 0
LayerCount: 2
Fore
SplineSet
-337 1165 m 1,0,-1
 -446 1165 l 1,1,-1
 -236 1449 l 1,2,-1
 -78 1449 l 1,3,-1
 -337 1165 l 1,0,-1
EndSplineSet
EndChar

StartChar: uni0302
Encoding: 770 770 388
Width: 0
GlyphClass: 4
Flags: W
AnchorPoint: "Anchor-1" -325 1035 mark 0
LayerCount: 2
Fore
SplineSet
-68 1139 m 1,0,-1
 -209 1139 l 1,1,-1
 -396 1343 l 1,2,-1
 -580 1139 l 1,3,-1
 -725 1139 l 1,4,-1
 -396 1489 l 1,5,-1
 -68 1139 l 1,0,-1
EndSplineSet
EndChar

StartChar: tildecomb
Encoding: 771 771 389
Width: 1
GlyphClass: 4
Flags: W
AnchorPoint: "Anchor-1" -436 1056 mark 0
LayerCount: 2
Fore
SplineSet
-308 1200 m 0,0,1
 -355 1200 -355 1200 -385 1222 c 0,2,3
 -414 1240 -414 1240 -461 1292 c 0,4,5
 -492 1327 -492 1327 -513.5 1345 c 128,-1,6
 -535 1363 -535 1363 -562 1363 c 0,7,8
 -600 1363 -600 1363 -620 1320 c 0,9,10
 -637 1284 -637 1284 -637 1225 c 1,11,-1
 -714 1225 l 1,12,13
 -714 1329 -714 1329 -672 1395 c 0,14,15
 -632 1457 -632 1457 -561 1457 c 1,16,17
 -499 1449 -499 1449 -454 1413 c 1,18,-1
 -427 1387 l 1,19,-1
 -361 1312 l 2,20,21
 -338 1287 -338 1287 -305 1287 c 0,22,23
 -227 1287 -227 1287 -227 1449 c 1,24,-1
 -142 1449 l 1,25,26
 -142 1200 -142 1200 -308 1200 c 0,0,1
EndSplineSet
EndChar

StartChar: uni0304
Encoding: 772 772 390
Width: 0
GlyphClass: 4
Flags: W
AnchorPoint: "Anchor-1" -418 1035 mark 0
LayerCount: 2
Fore
SplineSet
-173 1239 m 1,0,-1
 -702 1239 l 1,1,-1
 -702 1352 l 1,2,-1
 -173 1352 l 1,3,-1
 -173 1239 l 1,0,-1
EndSplineSet
EndChar

StartChar: uni0306
Encoding: 774 774 391
Width: 1
GlyphClass: 4
Flags: W
AnchorPoint: "Anchor-1" -405 1035 mark 0
LayerCount: 2
Fore
SplineSet
-422 1184 m 0,0,1
 -499 1184 -499 1184 -568 1213 c 128,-1,2
 -637 1242 -637 1242 -680 1301.5 c 128,-1,3
 -723 1361 -723 1361 -723 1449 c 1,4,-1
 -607 1449 l 1,5,6
 -607 1380 -607 1380 -553 1329.5 c 128,-1,7
 -499 1279 -499 1279 -422 1279 c 0,8,9
 -347 1279 -347 1279 -292.5 1324.5 c 128,-1,10
 -238 1370 -238 1370 -238 1449 c 1,11,-1
 -121 1449 l 1,12,13
 -121 1364 -121 1364 -162 1304.5 c 128,-1,14
 -203 1245 -203 1245 -271 1214.5 c 128,-1,15
 -339 1184 -339 1184 -422 1184 c 0,0,1
EndSplineSet
EndChar

StartChar: uni0307
Encoding: 775 775 392
Width: 1
GlyphClass: 4
Flags: W
AnchorPoint: "Anchor-1" -269 1035 mark 0
LayerCount: 2
Fore
SplineSet
-177 1275 m 1,0,-1
 -311 1275 l 1,1,-1
 -311 1449 l 1,2,-1
 -177 1449 l 1,3,-1
 -177 1275 l 1,0,-1
EndSplineSet
EndChar

StartChar: uni0308
Encoding: 776 776 393
Width: 0
GlyphClass: 4
Flags: W
AnchorPoint: "Anchor-1" -420 1035 mark 0
LayerCount: 2
Fore
SplineSet
-507 1275 m 1,0,-1
 -656 1275 l 1,1,-1
 -656 1449 l 1,2,-1
 -507 1449 l 1,3,-1
 -507 1275 l 1,0,-1
-176 1275 m 1,4,-1
 -325 1275 l 1,5,-1
 -325 1449 l 1,6,-1
 -176 1449 l 1,7,-1
 -176 1275 l 1,4,-1
EndSplineSet
EndChar

StartChar: hookabovecomb
Encoding: 777 777 394
Width: 17
GlyphClass: 4
Flags: W
AnchorPoint: "Anchor-1" -300 1022 mark 0
LayerCount: 2
Fore
SplineSet
-356 1085 m 1,0,-1
 -369 1141 l 1,1,-1
 -343 1147 l 2,2,3
 -298 1156 -298 1156 -268.5 1166.5 c 128,-1,4
 -239 1177 -239 1177 -218.5 1201.5 c 128,-1,5
 -198 1226 -198 1226 -198 1270 c 0,6,7
 -198 1338 -198 1338 -256 1371 c 0,8,9
 -293 1391 -293 1391 -333 1396.5 c 128,-1,10
 -373 1402 -373 1402 -433 1402 c 1,11,-1
 -433 1479 l 1,12,-1
 -401 1479 l 2,13,14
 -319 1479 -319 1479 -252.5 1456.5 c 128,-1,15
 -186 1434 -186 1434 -147.5 1389 c 128,-1,16
 -109 1344 -109 1344 -109 1277 c 0,17,18
 -109 1211 -109 1211 -139 1175.5 c 128,-1,19
 -169 1140 -169 1140 -213 1123 c 128,-1,20
 -257 1106 -257 1106 -329 1091 c 0,21,22
 -340 1090 -340 1090 -356 1085 c 1,0,-1
EndSplineSet
EndChar

StartChar: uni030A
Encoding: 778 778 395
Width: 0
GlyphClass: 4
Flags: W
AnchorPoint: "Anchor-1" -316 1035 mark 0
LayerCount: 2
Fore
SplineSet
-320 1123 m 0,0,1
 -399 1123 -399 1123 -454 1177 c 128,-1,2
 -509 1231 -509 1231 -509 1314 c 0,3,4
 -509 1390 -509 1390 -455 1447 c 128,-1,5
 -401 1504 -401 1504 -320 1504 c 0,6,7
 -240 1504 -240 1504 -184.5 1448 c 128,-1,8
 -129 1392 -129 1392 -129 1314 c 0,9,10
 -129 1235 -129 1235 -184 1179 c 128,-1,11
 -239 1123 -239 1123 -320 1123 c 0,0,1
-320 1210 m 0,12,13
 -278 1210 -278 1210 -246.5 1240 c 128,-1,14
 -215 1270 -215 1270 -215 1314 c 0,15,16
 -215 1354 -215 1354 -245.5 1384.5 c 128,-1,17
 -276 1415 -276 1415 -320 1415 c 0,18,19
 -365 1415 -365 1415 -393 1387 c 128,-1,20
 -421 1359 -421 1359 -421 1314 c 0,21,22
 -421 1264 -421 1264 -390.5 1237 c 128,-1,23
 -360 1210 -360 1210 -320 1210 c 0,12,13
EndSplineSet
EndChar

StartChar: uni030B
Encoding: 779 779 396
Width: 0
GlyphClass: 2
Flags: W
AnchorPoint: "Anchor-1" -547 1035 mark 0
LayerCount: 2
Fore
SplineSet
-664 1175 m 1,0,-1
 -773 1175 l 1,1,-1
 -562 1449 l 1,2,-1
 -395 1449 l 1,3,-1
 -664 1175 l 1,0,-1
-340 1175 m 1,4,-1
 -449 1175 l 1,5,-1
 -239 1449 l 1,6,-1
 -81 1449 l 1,7,-1
 -340 1175 l 1,4,-1
EndSplineSet
EndChar

StartChar: uni030C
Encoding: 780 780 397
Width: 0
GlyphClass: 4
Flags: W
AnchorPoint: "Anchor-1" -327 1035 mark 0
LayerCount: 2
Fore
SplineSet
-396 1123 m 1,0,-1
 -724 1449 l 1,1,-1
 -580 1449 l 1,2,-1
 -396 1248 l 1,3,-1
 -210 1449 l 1,4,-1
 -68 1449 l 1,5,-1
 -396 1123 l 1,0,-1
EndSplineSet
EndChar

StartChar: uni030F
Encoding: 783 783 398
Width: 0
GlyphClass: 2
Flags: W
AnchorPoint: "Anchor-1" -342 1035 mark 0
LayerCount: 2
Fore
SplineSet
-81 1175 m 1,0,-1
 -190 1175 l 1,1,-1
 -459 1449 l 1,2,-1
 -292 1449 l 1,3,-1
 -81 1175 l 1,0,-1
-405 1175 m 1,4,-1
 -514 1175 l 1,5,-1
 -773 1449 l 1,6,-1
 -615 1449 l 1,7,-1
 -405 1175 l 1,4,-1
EndSplineSet
EndChar

StartChar: uni0312
Encoding: 786 786 399
Width: 0
GlyphClass: 2
Flags: W
AnchorPoint: "Anchor-1" -291 1035 mark 0
LayerCount: 2
Fore
SplineSet
-241 1167 m 1,0,-1
 -428 1167 l 1,1,-1
 -212 1453 l 1,2,-1
 -125 1453 l 1,3,-1
 -241 1167 l 1,0,-1
EndSplineSet
EndChar

StartChar: uni031B
Encoding: 795 795 400
Width: 15
GlyphClass: 1
Flags: W
LayerCount: 2
Fore
SplineSet
-404 989 m 1,0,-1
 -404 1068 l 1,1,2
 -307 1068 -307 1068 -258.5 1123 c 128,-1,3
 -210 1178 -210 1178 -210 1302 c 2,4,-1
 -210 1401 l 1,5,-1
 -128 1401 l 1,6,-1
 -128 1293 l 2,7,8
 -128 989 -128 989 -404 989 c 1,0,-1
EndSplineSet
EndChar

StartChar: dotbelowcomb
Encoding: 803 803 401
Width: 1
GlyphClass: 4
Flags: W
AnchorPoint: "Anchor-1" -269 -561 mark 0
LayerCount: 2
Fore
SplineSet
-177 -321 m 1,0,-1
 -311 -321 l 1,1,-1
 -311 -147 l 1,2,-1
 -177 -147 l 1,3,-1
 -177 -321 l 1,0,-1
EndSplineSet
EndChar

StartChar: uni0326
Encoding: 806 806 402
Width: 0
GlyphClass: 2
Flags: W
AnchorPoint: "Anchor-3" -244 -459 basemark 0
AnchorPoint: "Anchor-3" -177 0 mark 0
AnchorPoint: "Anchor-0" -177 0 mark 0
LayerCount: 2
Fore
SplineSet
-303 -442 m 1,0,-1
 -390 -442 l 1,1,-1
 -273 -120 l 1,2,-1
 -86 -120 l 1,3,-1
 -303 -442 l 1,0,-1
EndSplineSet
EndChar

StartChar: uni0327
Encoding: 807 807 403
Width: 0
GlyphClass: 4
Flags: W
AnchorPoint: "Anchor-3" -285 -500 basemark 0
AnchorPoint: "Anchor-3" -262 0 mark 0
AnchorPoint: "Anchor-0" -262 0 mark 0
LayerCount: 2
Fore
SplineSet
-316 -499 m 0,0,1
 -376 -499 -376 -499 -423 -463.5 c 128,-1,2
 -470 -428 -470 -428 -489 -381 c 1,3,-1
 -410 -336 l 1,4,5
 -404 -369 -404 -369 -376 -390 c 0,6,7
 -342 -417 -342 -417 -310 -417 c 0,8,9
 -260 -417 -260 -417 -230 -385.5 c 128,-1,10
 -200 -354 -200 -354 -200 -309 c 0,11,12
 -200 -256 -200 -256 -249 -215 c 0,13,14
 -303 -175 -303 -175 -398 -175 c 2,15,-1
 -423 -175 l 1,16,-1
 -338 -6 l 1,17,-1
 -236 -6 l 1,18,-1
 -299 -130 l 1,19,-1
 -286 -130 l 2,20,21
 -206 -130 -206 -130 -160 -179.5 c 128,-1,22
 -114 -229 -114 -229 -114 -301 c 0,23,24
 -114 -379 -114 -379 -165 -435 c 0,25,26
 -223 -499 -223 -499 -316 -499 c 0,0,1
EndSplineSet
EndChar

StartChar: uni0328
Encoding: 808 808 404
Width: 0
GlyphClass: 4
Flags: W
AnchorPoint: "Anchor-2" -169 0 mark 0
LayerCount: 2
Fore
SplineSet
-287 -453 m 0,0,1
 -338 -453 -338 -453 -382.5 -429 c 128,-1,2
 -427 -405 -427 -405 -454.5 -359.5 c 128,-1,3
 -482 -314 -482 -314 -482 -250 c 2,4,-1
 -482 -249 l 2,5,6
 -482 -101 -482 -101 -320 -30 c 2,7,-1
 -251 0 l 1,8,-1
 -160 0 l 1,9,-1
 -191 -13 l 2,10,11
 -273 -49 -273 -49 -333 -111.5 c 128,-1,12
 -393 -174 -393 -174 -393 -240 c 0,13,14
 -393 -294 -393 -294 -364.5 -326.5 c 128,-1,15
 -336 -359 -336 -359 -297 -359 c 0,16,17
 -209 -359 -209 -359 -166 -294 c 1,18,-1
 -90 -347 l 1,19,20
 -159 -453 -159 -453 -287 -453 c 0,0,1
EndSplineSet
EndChar

StartChar: pi
Encoding: 960 960 405
Width: 1011
GlyphClass: 1
Flags: W
LayerCount: 2
Fore
SplineSet
854 -20 m 0,0,1
 796 -20 796 -20 751.5 13 c 128,-1,2
 707 46 707 46 681 98.5 c 128,-1,3
 655 151 655 151 655 207 c 2,4,-1
 655 916 l 1,5,-1
 332 916 l 1,6,-1
 332 0 l 1,7,-1
 208 0 l 1,8,-1
 208 916 l 1,9,-1
 123 916 l 1,10,-1
 123 1039 l 1,11,-1
 865 1039 l 1,12,-1
 865 916 l 1,13,-1
 779 916 l 1,14,-1
 779 199 l 2,15,16
 779 146 779 146 801 111.5 c 128,-1,17
 823 77 823 77 870 77 c 0,18,19
 899 77 899 77 931 97 c 1,20,-1
 959 8 l 1,21,22
 907 -20 907 -20 854 -20 c 0,0,1
EndSplineSet
EndChar

StartChar: uni0402
Encoding: 1026 1026 408
Width: 1646
GlyphClass: 1
Flags: W
LayerCount: 2
Fore
SplineSet
1163 -16 m 0,0,1
 1051 -16 1051 -16 972.5 14 c 128,-1,2
 894 44 894 44 843 109 c 1,3,-1
 935 182 l 1,4,5
 973 132 973 132 1030 108 c 128,-1,6
 1087 84 1087 84 1173 84 c 0,7,8
 1209 84 1209 84 1243 104 c 0,9,10
 1314 142 1314 142 1361 244 c 0,11,12
 1405 338 1405 338 1405 475 c 0,13,14
 1405 691 1405 691 1327 789 c 0,15,16
 1243 893 1243 893 1044 893 c 0,17,18
 944 893 944 893 842 849 c 0,19,20
 742 803 742 803 689 732 c 1,21,-1
 689 0 l 1,22,-1
 574 0 l 1,23,-1
 574 1331 l 1,24,-1
 79 1331 l 1,25,-1
 79 1413 l 1,26,-1
 1182 1413 l 1,27,-1
 1182 1331 l 1,28,-1
 689 1331 l 1,29,-1
 689 846 l 1,30,31
 839 999 839 999 1044 999 c 0,32,33
 1289 999 1289 999 1404.5 867 c 128,-1,34
 1520 735 1520 735 1520 468 c 0,35,36
 1520 386 1520 386 1495 299 c 128,-1,37
 1470 212 1470 212 1423 142.5 c 128,-1,38
 1376 73 1376 73 1310.5 28.5 c 128,-1,39
 1245 -16 1245 -16 1163 -16 c 0,0,1
EndSplineSet
Position2: "'cpsp' Capital Spacing lookup 0 subtable" dx=5 dy=0 dh=10 dv=0
EndChar

StartChar: uni0404
Encoding: 1028 1028 410
Width: 1421
GlyphClass: 1
Flags: W
LayerCount: 2
Fore
SplineSet
721 -20 m 0,0,1
 413 -20 413 -20 253 198 c 0,2,3
 106 398 106 398 106 707 c 0,4,5
 106 1028 106 1028 260 1226 c 0,6,7
 422 1436 422 1436 718 1436 c 0,8,9
 908 1436 908 1436 1050.5 1345 c 128,-1,10
 1193 1254 1193 1254 1273 1075 c 1,11,12
 1223 1052 1223 1052 1170 1032 c 1,13,14
 1139 1137 1139 1137 1072.5 1204 c 128,-1,15
 1006 1271 1006 1271 914 1302.5 c 128,-1,16
 822 1334 822 1334 716 1334 c 0,17,18
 474 1334 474 1334 342 1153 c 0,19,20
 226 994 226 994 219 767 c 1,21,-1
 877 767 l 1,22,-1
 877 683 l 1,23,-1
 216 683 l 1,24,25
 221 508 221 508 278 373 c 128,-1,26
 335 238 335 238 446 159.5 c 128,-1,27
 557 81 557 81 721 81 c 0,28,29
 1058 81 1058 81 1169 386 c 1,30,-1
 1275 342 l 1,31,32
 1194 157 1194 157 1050.5 68.5 c 128,-1,33
 907 -20 907 -20 721 -20 c 0,0,1
EndSplineSet
Position2: "'cpsp' Capital Spacing lookup 0 subtable" dx=5 dy=0 dh=10 dv=0
EndChar

StartChar: uni0406
Encoding: 1030 1030 412
Width: 569
GlyphClass: 1
Flags: W
LayerCount: 2
Fore
SplineSet
342 0 m 1,0,-1
 228 0 l 1,1,-1
 228 1413 l 1,2,-1
 342 1413 l 1,3,-1
 342 0 l 1,0,-1
EndSplineSet
Position2: "'cpsp' Capital Spacing lookup 0 subtable" dx=5 dy=0 dh=10 dv=0
EndChar

StartChar: uni0409
Encoding: 1033 1033 415
Width: 2065
GlyphClass: 1
Flags: W
LayerCount: 2
Fore
SplineSet
239 -20 m 0,0,1
 202 -20 202 -20 159 -10.5 c 128,-1,2
 116 -1 116 -1 88 14 c 1,3,4
 114 73 114 73 142 129 c 1,5,6
 186 98 186 98 235 98 c 0,7,8
 379 98 379 98 426 473 c 1,9,10
 451 712 451 712 451 961 c 2,11,-1
 451 1413 l 1,12,-1
 1263 1413 l 1,13,-1
 1263 753 l 1,14,-1
 1524 753 l 2,15,16
 1655 753 1655 753 1752 710.5 c 128,-1,17
 1849 668 1849 668 1902.5 584.5 c 128,-1,18
 1956 501 1956 501 1956 380 c 0,19,20
 1956 201 1956 201 1841 100.5 c 128,-1,21
 1726 0 1726 0 1524 0 c 2,22,-1
 1148 0 l 1,23,-1
 1148 1325 l 1,24,-1
 564 1325 l 1,25,26
 564 1058 564 1058 563 972 c 0,27,28
 558 491 558 491 497 257 c 0,29,30
 425 -20 425 -20 239 -20 c 0,0,1
1524 97 m 2,31,32
 1671 97 1671 97 1758 170.5 c 128,-1,33
 1845 244 1845 244 1845 380 c 0,34,35
 1845 519 1845 519 1757 588 c 128,-1,36
 1669 657 1669 657 1524 657 c 2,37,-1
 1263 657 l 1,38,-1
 1263 97 l 1,39,-1
 1524 97 l 2,31,32
EndSplineSet
Position2: "'cpsp' Capital Spacing lookup 0 subtable" dx=5 dy=0 dh=10 dv=0
EndChar

StartChar: uni040A
Encoding: 1034 1034 416
Width: 2022
GlyphClass: 1
Flags: W
LayerCount: 2
Fore
SplineSet
1484 0 m 2,0,-1
 1105 0 l 1,1,-1
 1105 662 l 1,2,-1
 340 662 l 1,3,-1
 340 0 l 1,4,-1
 228 0 l 1,5,-1
 228 1413 l 1,6,-1
 340 1413 l 1,7,-1
 340 751 l 1,8,-1
 1105 751 l 1,9,-1
 1105 1413 l 1,10,-1
 1219 1413 l 1,11,-1
 1219 753 l 1,12,-1
 1484 753 l 2,13,14
 1679 753 1679 753 1795.5 656.5 c 128,-1,15
 1912 560 1912 560 1912 380 c 0,16,17
 1912 258 1912 258 1859 173.5 c 128,-1,18
 1806 89 1806 89 1709.5 44.5 c 128,-1,19
 1613 0 1613 0 1484 0 c 2,0,-1
1484 97 m 2,20,21
 1629 97 1629 97 1715.5 170.5 c 128,-1,22
 1802 244 1802 244 1802 380 c 0,23,24
 1802 515 1802 515 1715.5 586 c 128,-1,25
 1629 657 1629 657 1484 657 c 2,26,-1
 1219 657 l 1,27,-1
 1219 97 l 1,28,-1
 1484 97 l 2,20,21
EndSplineSet
Position2: "'cpsp' Capital Spacing lookup 0 subtable" dx=5 dy=0 dh=10 dv=0
EndChar

StartChar: uni040B
Encoding: 1035 1035 417
Width: 1667
GlyphClass: 1
Flags: W
LayerCount: 2
Fore
SplineSet
1520 0 m 1,0,-1
 1405 0 l 1,1,-1
 1405 400 l 2,2,3
 1405 547 1405 547 1370.5 658 c 128,-1,4
 1336 769 1336 769 1257.5 831 c 128,-1,5
 1179 893 1179 893 1044 893 c 0,6,7
 943 893 943 893 845 850.5 c 128,-1,8
 747 808 747 808 688 732 c 1,9,-1
 688 0 l 1,10,-1
 574 0 l 1,11,-1
 574 1331 l 1,12,-1
 79 1331 l 1,13,-1
 79 1413 l 1,14,-1
 1182 1413 l 1,15,-1
 1182 1331 l 1,16,-1
 688 1331 l 1,17,-1
 688 845 l 1,18,19
 811 999 811 999 1044 999 c 0,20,21
 1275 999 1275 999 1397.5 836 c 128,-1,22
 1520 673 1520 673 1520 381 c 2,23,-1
 1520 0 l 1,0,-1
EndSplineSet
Position2: "'cpsp' Capital Spacing lookup 0 subtable" dx=5 dy=0 dh=10 dv=0
EndChar

StartChar: uni040E
Encoding: 1038 1038 420
Width: 1121
GlyphClass: 1
Flags: W
LayerCount: 2
Fore
SplineSet
568 1563 m 0,0,1
 493 1563 493 1563 425.5 1594.5 c 128,-1,2
 358 1626 358 1626 315.5 1687 c 128,-1,3
 273 1748 273 1748 273 1829 c 1,4,-1
 370 1829 l 1,5,6
 370 1752 370 1752 430 1700 c 128,-1,7
 490 1648 490 1648 568 1648 c 0,8,9
 616 1648 616 1648 661.5 1670.5 c 128,-1,10
 707 1693 707 1693 736.5 1734.5 c 128,-1,11
 766 1776 766 1776 766 1829 c 1,12,-1
 863 1829 l 1,13,14
 863 1751 863 1751 821.5 1690 c 128,-1,15
 780 1629 780 1629 713 1596 c 128,-1,16
 646 1563 646 1563 568 1563 c 0,0,1
409 0 m 1,17,-1
 284 0 l 1,18,-1
 483 456 l 1,19,-1
 88 1413 l 1,20,-1
 216 1413 l 1,21,-1
 542 571 l 1,22,23
 810 1199 810 1199 899 1413 c 1,24,-1
 1032 1413 l 1,25,26
 720 708 720 708 409 0 c 1,17,-1
EndSplineSet
Position2: "'cpsp' Capital Spacing lookup 0 subtable" dx=5 dy=0 dh=10 dv=0
EndChar

StartChar: uni040F
Encoding: 1039 1039 421
Width: 1444
GlyphClass: 1
Flags: W
LayerCount: 2
Fore
SplineSet
777 -308 m 1,0,-1
 666 -308 l 1,1,-1
 666 0 l 1,2,-1
 228 0 l 1,3,-1
 228 1413 l 1,4,-1
 339 1413 l 1,5,-1
 339 92 l 1,6,-1
 1105 92 l 1,7,-1
 1105 1413 l 1,8,-1
 1216 1413 l 1,9,-1
 1216 0 l 1,10,-1
 777 0 l 1,11,-1
 777 -308 l 1,0,-1
EndSplineSet
Position2: "'cpsp' Capital Spacing lookup 0 subtable" dx=5 dy=0 dh=10 dv=0
EndChar

StartChar: uni0411
Encoding: 1041 1041 423
Width: 1238
GlyphClass: 1
Flags: W
LayerCount: 2
Fore
SplineSet
656 0 m 2,0,-1
 228 0 l 1,1,-1
 228 1413 l 1,2,-1
 939 1413 l 1,3,-1
 939 1312 l 1,4,-1
 340 1312 l 1,5,-1
 340 769 l 1,6,-1
 689 769 l 2,7,8
 802 769 802 769 895 729 c 128,-1,9
 988 689 988 689 1044.5 602.5 c 128,-1,10
 1101 516 1101 516 1101 379 c 0,11,12
 1101 202 1101 202 981 101 c 128,-1,13
 861 0 861 0 656 0 c 2,0,-1
660 103 m 2,14,15
 745 103 745 103 826 145.5 c 128,-1,16
 907 188 907 188 955 268 c 0,17,18
 984 320 984 320 984 384 c 0,19,20
 984 474 984 474 939.5 535.5 c 128,-1,21
 895 597 895 597 823 628 c 128,-1,22
 751 659 751 659 668 659 c 2,23,-1
 340 659 l 1,24,-1
 340 103 l 1,25,-1
 660 103 l 2,14,15
EndSplineSet
Position2: "'cpsp' Capital Spacing lookup 0 subtable" dx=5 dy=0 dh=10 dv=0
EndChar

StartChar: uni0413
Encoding: 1043 1043 425
Width: 1074
GlyphClass: 1
Flags: W
LayerCount: 2
Fore
SplineSet
340 0 m 1,0,-1
 228 0 l 1,1,-1
 228 1413 l 1,2,-1
 995 1413 l 1,3,-1
 995 1325 l 1,4,-1
 340 1325 l 1,5,-1
 340 0 l 1,0,-1
EndSplineSet
Position2: "'cpsp' Capital Spacing lookup 0 subtable" dx=5 dy=0 dh=10 dv=0
EndChar

StartChar: uni0414
Encoding: 1044 1044 426
Width: 1444
GlyphClass: 2
Flags: W
LayerCount: 2
Fore
SplineSet
1307 -308 m 1,0,-1
 1197 -308 l 1,1,-1
 1197 0 l 1,2,-1
 193 0 l 1,3,-1
 193 -308 l 1,4,-1
 81 -308 l 1,5,-1
 81 81 l 1,6,-1
 196 81 l 1,7,8
 263 206 263 206 306.5 318.5 c 128,-1,9
 350 431 350 431 371.5 572 c 128,-1,10
 393 713 393 713 393 929 c 2,11,-1
 393 1413 l 1,12,-1
 1203 1413 l 1,13,-1
 1203 81 l 1,14,-1
 1307 81 l 1,15,-1
 1307 -308 l 1,0,-1
1090 81 m 1,16,-1
 1090 1325 l 1,17,-1
 506 1325 l 1,18,-1
 506 929 l 2,19,20
 506 610 506 610 456 435.5 c 128,-1,21
 406 261 406 261 304 81 c 1,22,-1
 1090 81 l 1,16,-1
EndSplineSet
Substitution2: "'ss02' Style Set 2 lookup 18 subtable" uni0414.1
Substitution2: "'ss03' Style Set 3 lookup 17 subtable" uni0431.loclSRB
Substitution2: "'locl' Localized Forms in Cyrillic lookup 10 subtable" uni0414.1
Substitution2: "'locl' Localized Forms in Cyrillic lookup 9 subtable" uni0414.loclSRB
Substitution2: "'locl' Localized Forms in Cyrillic lookup 8 subtable" uni0414.loclSRB
Position2: "'cpsp' Capital Spacing lookup 0 subtable" dx=5 dy=0 dh=10 dv=0
EndChar

StartChar: uni0415
Encoding: 1045 1045 427
Width: 1236
GlyphClass: 1
Flags: W
LayerCount: 2
Fore
SplineSet
1131 0 m 1,0,-1
 228 0 l 1,1,-1
 228 1413 l 1,2,-1
 1131 1413 l 1,3,-1
 1131 1321 l 1,4,-1
 343 1321 l 1,5,-1
 343 751 l 1,6,-1
 1011 751 l 1,7,-1
 1011 664 l 1,8,-1
 343 664 l 1,9,-1
 343 101 l 1,10,-1
 1131 101 l 1,11,-1
 1131 0 l 1,0,-1
EndSplineSet
Position2: "'cpsp' Capital Spacing lookup 0 subtable" dx=5 dy=0 dh=10 dv=0
EndChar

StartChar: uni0416
Encoding: 1046 1046 428
Width: 1904
GlyphClass: 1
Flags: W
LayerCount: 2
Fore
SplineSet
1809 0 m 1,0,-1
 1676 0 l 1,1,-1
 1462 601 l 2,2,3
 1443 650 1443 650 1390.5 687 c 128,-1,4
 1338 724 1338 724 1266 724 c 2,5,-1
 1008 724 l 1,6,-1
 1008 0 l 1,7,-1
 896 0 l 1,8,-1
 896 724 l 1,9,-1
 639 724 l 2,10,11
 487 724 487 724 445 601 c 2,12,-1
 228 0 l 1,13,-1
 95 0 l 1,14,-1
 330 665 l 2,15,16
 336 688 336 688 369.5 721 c 128,-1,17
 403 754 403 754 457 780 c 128,-1,18
 511 806 511 806 583 806 c 1,19,-1
 176 1413 l 1,20,-1
 311 1413 l 1,21,-1
 716 811 l 1,22,-1
 896 811 l 1,23,-1
 896 1413 l 1,24,-1
 1008 1413 l 1,25,-1
 1008 811 l 1,26,-1
 1188 811 l 1,27,-1
 1591 1413 l 1,28,-1
 1728 1413 l 1,29,-1
 1322 806 l 1,30,31
 1387 806 1387 806 1440 782 c 128,-1,32
 1493 758 1493 758 1529 725.5 c 128,-1,33
 1565 693 1565 693 1575 665 c 2,34,-1
 1809 0 l 1,0,-1
EndSplineSet
Position2: "'cpsp' Capital Spacing lookup 0 subtable" dx=5 dy=0 dh=10 dv=0
EndChar

StartChar: uni0417
Encoding: 1047 1047 429
Width: 1117
GlyphClass: 1
Flags: W
LayerCount: 2
Fore
SplineSet
526 -20 m 0,0,1
 376 -20 376 -20 264 40 c 128,-1,2
 152 100 152 100 104 212 c 1,3,-1
 201 276 l 1,4,5
 231 181 231 181 326 123 c 0,6,7
 416 67 416 67 526 67 c 0,8,9
 664 67 664 67 761 147 c 0,10,11
 869 236 869 236 869 392 c 0,12,13
 869 467 869 467 842 524 c 0,14,15
 789 636 789 636 658 679 c 0,16,17
 596 699 596 699 526 699 c 2,18,-1
 346 699 l 1,19,20
 346 778 346 778 347 803 c 1,21,-1
 532 803 l 2,22,23
 647 803 647 803 725 868 c 0,24,25
 808 938 808 938 808 1063 c 0,26,27
 808 1187 808 1187 727 1267 c 0,28,29
 647 1342 647 1342 530 1342 c 0,30,31
 478 1342 478 1342 428 1324 c 0,32,33
 321 1285 321 1285 276 1188 c 0,34,35
 254 1140 254 1140 254 1078 c 1,36,-1
 145 1078 l 1,37,-1
 145 1084 l 2,38,39
 145 1238 145 1238 250.5 1336 c 128,-1,40
 356 1434 356 1434 528 1434 c 0,41,42
 690 1434 690 1434 796 1341 c 0,43,44
 907 1242 907 1242 907 1080 c 0,45,46
 907 980 907 980 859 897 c 128,-1,47
 811 814 811 814 716 762 c 1,48,49
 849 704 849 704 914.5 604.5 c 128,-1,50
 980 505 980 505 980 381 c 0,51,52
 980 189 980 189 851 83 c 0,53,54
 728 -20 728 -20 526 -20 c 0,0,1
EndSplineSet
Position2: "'cpsp' Capital Spacing lookup 0 subtable" dx=5 dy=0 dh=10 dv=0
EndChar

StartChar: uni0418
Encoding: 1048 1048 430
Width: 1409
GlyphClass: 1
Flags: W
LayerCount: 2
Fore
SplineSet
1182 0 m 1,0,-1
 1065 0 l 1,1,-1
 1065 1318 l 1,2,-1
 428 0 l 1,3,-1
 228 0 l 1,4,-1
 228 1413 l 1,5,-1
 345 1413 l 1,6,-1
 345 97 l 1,7,-1
 987 1413 l 1,8,-1
 1182 1413 l 1,9,-1
 1182 0 l 1,0,-1
EndSplineSet
Position2: "'cpsp' Capital Spacing lookup 0 subtable" dx=5 dy=0 dh=10 dv=0
EndChar

StartChar: uni041A
Encoding: 1050 1050 432
Width: 1237
GlyphClass: 1
Flags: W
LayerCount: 2
Fore
SplineSet
1141 0 m 1,0,-1
 1009 0 l 1,1,-1
 793 601 l 2,2,3
 785 620 785 620 758 648.5 c 128,-1,4
 731 677 731 677 691.5 700.5 c 128,-1,5
 652 724 652 724 607 724 c 2,6,-1
 340 724 l 1,7,-1
 340 0 l 1,8,-1
 228 0 l 1,9,-1
 228 1413 l 1,10,-1
 340 1413 l 1,11,-1
 340 811 l 1,12,-1
 520 811 l 1,13,-1
 924 1413 l 1,14,-1
 1060 1413 l 1,15,-1
 653 806 l 1,16,17
 721 806 721 806 773 781.5 c 128,-1,18
 825 757 825 757 860.5 724.5 c 128,-1,19
 896 692 896 692 907 665 c 2,20,-1
 1141 0 l 1,0,-1
EndSplineSet
Position2: "'cpsp' Capital Spacing lookup 0 subtable" dx=5 dy=0 dh=10 dv=0
EndChar

StartChar: uni041B
Encoding: 1051 1051 433
Width: 1491
GlyphClass: 2
Flags: W
LayerCount: 2
Fore
SplineSet
239 -20 m 0,0,1
 202 -20 202 -20 159 -10.5 c 128,-1,2
 116 -1 116 -1 88 14 c 1,3,4
 114 73 114 73 142 129 c 1,5,6
 186 98 186 98 235 98 c 0,7,8
 379 98 379 98 426 473 c 1,9,10
 451 712 451 712 451 961 c 2,11,-1
 451 1413 l 1,12,-1
 1263 1413 l 1,13,-1
 1263 0 l 1,14,-1
 1152 0 l 1,15,-1
 1152 1325 l 1,16,-1
 564 1325 l 1,17,18
 564 1058 564 1058 563 972 c 0,19,20
 558 491 558 491 497 257 c 0,21,22
 425 -20 425 -20 239 -20 c 0,0,1
EndSplineSet
Substitution2: "'ss02' Style Set 2 lookup 18 subtable" uni041B.1
Substitution2: "'ss03' Style Set 3 lookup 17 subtable" uni0414.loclSRB
Substitution2: "'locl' Localized Forms in Cyrillic lookup 10 subtable" uni041B.1
Substitution2: "'locl' Localized Forms in Cyrillic lookup 9 subtable" uni041B.loclSRB
Substitution2: "'locl' Localized Forms in Cyrillic lookup 8 subtable" uni041B.loclSRB
Position2: "'cpsp' Capital Spacing lookup 0 subtable" dx=5 dy=0 dh=10 dv=0
EndChar

StartChar: uni041F
Encoding: 1055 1055 437
Width: 1444
GlyphClass: 1
Flags: W
LayerCount: 2
Fore
SplineSet
1216 0 m 1,0,-1
 1105 0 l 1,1,-1
 1105 1325 l 1,2,-1
 339 1325 l 1,3,-1
 339 0 l 1,4,-1
 228 0 l 1,5,-1
 228 1413 l 1,6,-1
 1216 1413 l 1,7,-1
 1216 0 l 1,0,-1
EndSplineSet
Position2: "'cpsp' Capital Spacing lookup 0 subtable" dx=5 dy=0 dh=10 dv=0
EndChar

StartChar: uni0423
Encoding: 1059 1059 441
Width: 1121
GlyphClass: 1
Flags: W
LayerCount: 2
Fore
SplineSet
409 0 m 1,0,-1
 284 0 l 1,1,-1
 483 456 l 1,2,-1
 88 1413 l 1,3,-1
 216 1413 l 1,4,-1
 542 571 l 1,5,-1
 899 1413 l 1,6,-1
 1032 1413 l 1,7,-1
 409 0 l 1,0,-1
EndSplineSet
Position2: "'cpsp' Capital Spacing lookup 0 subtable" dx=5 dy=0 dh=10 dv=0
EndChar

StartChar: uni0424
Encoding: 1060 1060 442
Width: 1661
GlyphClass: 1
Flags: W
LayerCount: 2
Fore
SplineSet
887 0 m 1,0,-1
 773 0 l 1,1,-1
 773 122 l 1,2,3
 451 122 451 122 297 261.5 c 128,-1,4
 143 401 143 401 143 707 c 0,5,6
 143 1010 143 1010 297.5 1161.5 c 128,-1,7
 452 1313 452 1313 773 1313 c 1,8,-1
 773 1413 l 1,9,-1
 887 1413 l 1,10,-1
 887 1313 l 1,11,12
 1209 1313 1209 1313 1363 1161.5 c 128,-1,13
 1517 1010 1517 1010 1517 707 c 0,14,15
 1517 403 1517 403 1364 262.5 c 128,-1,16
 1211 122 1211 122 887 122 c 1,17,-1
 887 0 l 1,0,-1
773 228 m 1,18,-1
 773 1206 l 1,19,20
 497 1206 497 1206 372 1082.5 c 128,-1,21
 247 959 247 959 247 707 c 0,22,23
 247 454 247 454 372 341 c 128,-1,24
 497 228 497 228 773 228 c 1,18,-1
887 228 m 1,25,26
 1163 228 1163 228 1288 342 c 128,-1,27
 1413 456 1413 456 1413 707 c 0,28,29
 1413 883 1413 883 1353.5 993 c 128,-1,30
 1294 1103 1294 1103 1178 1154.5 c 128,-1,31
 1062 1206 1062 1206 887 1206 c 1,32,-1
 887 228 l 1,25,26
EndSplineSet
Position2: "'cpsp' Capital Spacing lookup 0 subtable" dx=5 dy=0 dh=10 dv=0
EndChar

StartChar: uni0426
Encoding: 1062 1062 444
Width: 1464
GlyphClass: 1
Flags: W
LayerCount: 2
Fore
SplineSet
1357 -233 m 1,0,-1
 1248 -233 l 1,1,-1
 1248 0 l 1,2,-1
 228 0 l 1,3,-1
 228 1413 l 1,4,-1
 340 1413 l 1,5,-1
 340 92 l 1,6,-1
 1105 92 l 1,7,-1
 1105 1413 l 1,8,-1
 1216 1413 l 1,9,-1
 1216 92 l 1,10,-1
 1357 92 l 1,11,-1
 1357 -233 l 1,0,-1
EndSplineSet
Position2: "'cpsp' Capital Spacing lookup 0 subtable" dx=5 dy=0 dh=10 dv=0
EndChar

StartChar: uni0427
Encoding: 1063 1063 445
Width: 1321
GlyphClass: 1
Flags: W
LayerCount: 2
Fore
SplineSet
1093 0 m 1,0,-1
 978 0 l 1,1,-1
 978 568 l 1,2,3
 856 414 856 414 620 414 c 0,4,5
 462 414 462 414 357 488.5 c 128,-1,6
 252 563 252 563 199.5 702 c 128,-1,7
 147 841 147 841 147 1034 c 2,8,-1
 147 1413 l 1,9,-1
 261 1413 l 1,10,-1
 261 1013 l 2,11,12
 261 867 261 867 294.5 756 c 128,-1,13
 328 645 328 645 406.5 582.5 c 128,-1,14
 485 520 485 520 620 520 c 0,15,16
 727 520 727 520 822.5 564 c 128,-1,17
 918 608 918 608 978 681 c 1,18,-1
 978 1413 l 1,19,-1
 1093 1413 l 1,20,-1
 1093 0 l 1,0,-1
EndSplineSet
Position2: "'cpsp' Capital Spacing lookup 0 subtable" dx=5 dy=0 dh=10 dv=0
EndChar

StartChar: uni0428
Encoding: 1064 1064 446
Width: 1729
GlyphClass: 1
Flags: W
LayerCount: 2
Fore
SplineSet
1500 0 m 1,0,-1
 228 0 l 1,1,-1
 228 1413 l 1,2,-1
 339 1413 l 1,3,-1
 339 92 l 1,4,-1
 804 92 l 1,5,-1
 804 1413 l 1,6,-1
 919 1413 l 1,7,-1
 919 92 l 1,8,-1
 1388 92 l 1,9,-1
 1388 1413 l 1,10,-1
 1500 1413 l 1,11,-1
 1500 0 l 1,0,-1
EndSplineSet
Position2: "'cpsp' Capital Spacing lookup 0 subtable" dx=5 dy=0 dh=10 dv=0
EndChar

StartChar: uni0429
Encoding: 1065 1065 447
Width: 1749
GlyphClass: 1
Flags: W
LayerCount: 2
Fore
SplineSet
1642 -233 m 1,0,-1
 1532 -233 l 1,1,-1
 1532 0 l 1,2,-1
 228 0 l 1,3,-1
 228 1413 l 1,4,-1
 340 1413 l 1,5,-1
 340 92 l 1,6,-1
 805 92 l 1,7,-1
 805 1413 l 1,8,-1
 919 1413 l 1,9,-1
 919 92 l 1,10,-1
 1388 92 l 1,11,-1
 1388 1413 l 1,12,-1
 1501 1413 l 1,13,-1
 1501 92 l 1,14,-1
 1642 92 l 1,15,-1
 1642 -233 l 1,0,-1
EndSplineSet
Position2: "'cpsp' Capital Spacing lookup 0 subtable" dx=5 dy=0 dh=10 dv=0
EndChar

StartChar: uni042A
Encoding: 1066 1066 448
Width: 1359
GlyphClass: 1
Flags: W
LayerCount: 2
Fore
SplineSet
819 0 m 2,0,-1
 442 0 l 1,1,-1
 442 1333 l 1,2,-1
 79 1333 l 1,3,-1
 79 1413 l 1,4,-1
 555 1413 l 1,5,-1
 555 753 l 1,6,-1
 819 753 l 2,7,8
 1016 753 1016 753 1132.5 656 c 128,-1,9
 1249 559 1249 559 1249 380 c 256,10,11
 1249 201 1249 201 1133.5 100.5 c 128,-1,12
 1018 0 1018 0 819 0 c 2,0,-1
819 97 m 2,13,14
 967 97 967 97 1053 171 c 128,-1,15
 1139 245 1139 245 1139 380 c 0,16,17
 1139 473 1139 473 1099 534.5 c 128,-1,18
 1059 596 1059 596 987 626.5 c 128,-1,19
 915 657 915 657 819 657 c 2,20,-1
 555 657 l 1,21,-1
 555 97 l 1,22,-1
 819 97 l 2,13,14
EndSplineSet
Position2: "'cpsp' Capital Spacing lookup 0 subtable" dx=5 dy=0 dh=10 dv=0
EndChar

StartChar: uni042B
Encoding: 1067 1067 449
Width: 1585
GlyphClass: 1
Flags: W
LayerCount: 2
Fore
SplineSet
604 0 m 2,0,-1
 228 0 l 1,1,-1
 228 1413 l 1,2,-1
 342 1413 l 1,3,-1
 342 753 l 1,4,-1
 604 753 l 2,5,6
 735 753 735 753 832 710.5 c 128,-1,7
 929 668 929 668 982 584.5 c 128,-1,8
 1035 501 1035 501 1035 380 c 0,9,10
 1035 201 1035 201 920 100.5 c 128,-1,11
 805 0 805 0 604 0 c 2,0,-1
1358 0 m 1,12,-1
 1245 0 l 1,13,-1
 1245 1413 l 1,14,-1
 1358 1413 l 1,15,-1
 1358 0 l 1,12,-1
604 97 m 2,16,17
 750 97 750 97 837.5 170.5 c 128,-1,18
 925 244 925 244 925 380 c 0,19,20
 925 519 925 519 836.5 588 c 128,-1,21
 748 657 748 657 604 657 c 2,22,-1
 342 657 l 1,23,-1
 342 97 l 1,24,-1
 604 97 l 2,16,17
EndSplineSet
Position2: "'cpsp' Capital Spacing lookup 0 subtable" dx=5 dy=0 dh=10 dv=0
EndChar

StartChar: uni042C
Encoding: 1068 1068 450
Width: 1145
GlyphClass: 1
Flags: W
LayerCount: 2
Fore
SplineSet
604 0 m 2,0,-1
 228 0 l 1,1,-1
 228 1413 l 1,2,-1
 343 1413 l 1,3,-1
 343 753 l 1,4,-1
 604 753 l 2,5,6
 735 753 735 753 832 710.5 c 128,-1,7
 929 668 929 668 982.5 584.5 c 128,-1,8
 1036 501 1036 501 1036 380 c 0,9,10
 1036 201 1036 201 921 100.5 c 128,-1,11
 806 0 806 0 604 0 c 2,0,-1
604 97 m 2,12,13
 751 97 751 97 838 170.5 c 128,-1,14
 925 244 925 244 925 380 c 0,15,16
 925 519 925 519 837 588 c 128,-1,17
 749 657 749 657 604 657 c 2,18,-1
 343 657 l 1,19,-1
 343 97 l 1,20,-1
 604 97 l 2,12,13
EndSplineSet
Position2: "'cpsp' Capital Spacing lookup 0 subtable" dx=5 dy=0 dh=10 dv=0
EndChar

StartChar: uni042D
Encoding: 1069 1069 451
Width: 1421
GlyphClass: 1
Flags: W
LayerCount: 2
Fore
SplineSet
660 -20 m 0,0,1
 474 -20 474 -20 330.5 68.5 c 128,-1,2
 187 157 187 157 106 342 c 1,3,-1
 212 386 l 1,4,5
 323 81 323 81 660 81 c 0,6,7
 824 81 824 81 935 159.5 c 128,-1,8
 1046 238 1046 238 1103 373 c 128,-1,9
 1160 508 1160 508 1165 683 c 1,10,-1
 504 683 l 1,11,-1
 504 767 l 1,12,-1
 1162 767 l 1,13,14
 1155 994 1155 994 1039 1153 c 0,15,16
 907 1334 907 1334 665 1334 c 0,17,18
 559 1334 559 1334 467 1302.5 c 128,-1,19
 375 1271 375 1271 308.5 1204 c 128,-1,20
 242 1137 242 1137 211 1032 c 1,21,22
 158 1052 158 1052 108 1075 c 1,23,24
 188 1254 188 1254 330.5 1345 c 128,-1,25
 473 1436 473 1436 663 1436 c 0,26,27
 959 1436 959 1436 1121 1226 c 0,28,29
 1275 1028 1275 1028 1275 707 c 0,30,31
 1275 398 1275 398 1128 198 c 0,32,33
 968 -20 968 -20 660 -20 c 0,0,1
EndSplineSet
Position2: "'cpsp' Capital Spacing lookup 0 subtable" dx=5 dy=0 dh=10 dv=0
EndChar

StartChar: uni042E
Encoding: 1070 1070 452
Width: 1855
GlyphClass: 2
Flags: W
LayerCount: 2
Fore
SplineSet
1092 -20 m 0,0,1
 896 -20 896 -20 762.5 67.5 c 128,-1,2
 629 155 629 155 557.5 307.5 c 128,-1,3
 486 460 486 460 478 662 c 1,4,-1
 340 662 l 1,5,-1
 340 0 l 1,6,-1
 228 0 l 1,7,-1
 228 1413 l 1,8,-1
 340 1413 l 1,9,-1
 340 751 l 1,10,-1
 478 751 l 1,11,12
 489 1046 489 1046 636 1230 c 0,13,14
 799 1434 799 1434 1092 1434 c 0,15,16
 1388 1434 1388 1434 1553 1226 c 0,17,18
 1710 1028 1710 1028 1710 707 c 0,19,20
 1710 564 1710 564 1674.5 434 c 128,-1,21
 1639 304 1639 304 1563.5 202 c 128,-1,22
 1488 100 1488 100 1365 38 c 0,23,24
 1249 -20 1249 -20 1092 -20 c 0,0,1
1092 88 m 0,25,26
 1341 88 1341 88 1476 272 c 0,27,28
 1602 442 1602 442 1602 707 c 0,29,30
 1602 964 1602 964 1482 1132 c 0,31,32
 1346 1325 1346 1325 1092 1325 c 0,33,34
 843 1325 843 1325 707 1141 c 0,35,36
 583 971 583 971 583 707 c 0,37,38
 583 450 583 450 700 281 c 0,39,40
 834 88 834 88 1092 88 c 0,25,26
EndSplineSet
Substitution2: "'ss02' Style Set 2 lookup 18 subtable" uni042E.1
Substitution2: "'ss03' Style Set 3 lookup 17 subtable" uni041B.loclSRB
Substitution2: "'locl' Localized Forms in Cyrillic lookup 10 subtable" uni042E.1
Position2: "'cpsp' Capital Spacing lookup 0 subtable" dx=5 dy=0 dh=10 dv=0
EndChar

StartChar: uni042F
Encoding: 1071 1071 453
Width: 1204
GlyphClass: 1
Flags: W
LayerCount: 2
Fore
SplineSet
977 -2 m 1,0,-1
 863 -2 l 1,1,-1
 863 646 l 1,2,-1
 599 646 l 1,3,-1
 243 -2 l 1,4,-1
 106 -2 l 1,5,-1
 486 665 l 1,6,7
 341 687 341 687 256.5 783 c 128,-1,8
 172 879 172 879 172 1028 c 0,9,10
 172 1139 172 1139 224 1225 c 128,-1,11
 276 1311 276 1311 371 1361 c 128,-1,12
 466 1411 466 1411 596 1411 c 2,13,-1
 977 1411 l 1,14,-1
 977 -2 l 1,0,-1
861 762 m 1,15,-1
 861 1311 l 1,16,-1
 594 1311 l 2,17,18
 505 1311 505 1311 434.5 1279 c 128,-1,19
 364 1247 364 1247 323 1184.5 c 128,-1,20
 282 1122 282 1122 282 1032 c 0,21,22
 282 907 282 907 360.5 838 c 128,-1,23
 439 769 439 769 569 762 c 1,24,-1
 861 762 l 1,15,-1
EndSplineSet
Position2: "'cpsp' Capital Spacing lookup 0 subtable" dx=5 dy=0 dh=10 dv=0
EndChar

StartChar: uni0431
Encoding: 1073 1073 455
Width: 1131
GlyphClass: 1
Flags: W
LayerCount: 2
Fore
SplineSet
585 -20 m 0,0,1
 454 -20 454 -20 357.5 46.5 c 128,-1,2
 261 113 261 113 208 221.5 c 128,-1,3
 155 330 155 330 155 458 c 0,4,5
 155 827 155 827 159 900.5 c 128,-1,6
 163 974 163 974 182 1034 c 0,7,8
 229 1173 229 1173 390 1254 c 0,9,10
 491 1304 491 1304 796 1433 c 1,11,-1
 796 1333 l 1,12,-1
 561 1232 l 2,13,14
 368 1146 368 1146 309 1057 c 0,15,16
 277 1006 277 1006 265.5 940 c 128,-1,17
 254 874 254 874 254 775 c 1,18,19
 293 828 293 828 345.5 867 c 128,-1,20
 398 906 398 906 464 931 c 128,-1,21
 530 956 530 956 605 956 c 0,22,23
 738 956 738 956 834 888 c 128,-1,24
 930 820 930 820 983 707.5 c 128,-1,25
 1036 595 1036 595 1036 462 c 256,26,27
 1036 329 1036 329 978 220 c 128,-1,28
 920 111 920 111 818.5 45.5 c 128,-1,29
 717 -20 717 -20 585 -20 c 0,0,1
586 62 m 0,30,31
 704 62 704 62 777 117 c 128,-1,32
 850 172 850 172 883.5 263.5 c 128,-1,33
 917 355 917 355 917 467 c 0,34,35
 917 633 917 633 839 740 c 0,36,37
 759 851 759 851 586 851 c 0,38,39
 465 851 465 851 397.5 804.5 c 128,-1,40
 330 758 330 758 293.5 666 c 128,-1,41
 257 574 257 574 257 467 c 0,42,43
 257 301 257 301 329 190 c 0,44,45
 415 62 415 62 586 62 c 0,30,31
EndSplineSet
Substitution2: "'locl' Localized Forms in Cyrillic lookup 9 subtable" uni0431.loclSRB
Substitution2: "'locl' Localized Forms in Cyrillic lookup 8 subtable" uni0431.loclSRB
Substitution2: "'aalt' Access All Alternates lookup 0 subtable" uni0431.loclSRB
EndChar

StartChar: uni0432
Encoding: 1074 1074 456
Width: 1065
GlyphClass: 2
Flags: W
LayerCount: 2
Fore
SplineSet
681 0 m 2,0,-1
 188 0 l 1,1,-1
 188 1039 l 1,2,-1
 614 1039 l 2,3,4
 751 1039 751 1039 822 983.5 c 128,-1,5
 893 928 893 928 893 804 c 0,6,7
 893 700 893 700 842.5 636.5 c 128,-1,8
 792 573 792 573 667 557 c 1,9,10
 860 553 860 553 914 477 c 0,11,12
 960 412 960 412 970 345 c 0,13,14
 975 312 975 312 975 273 c 0,15,16
 975 236 975 236 967.5 173 c 128,-1,17
 960 110 960 110 888.5 55 c 128,-1,18
 817 0 817 0 681 0 c 2,0,-1
551 597 m 2,19,20
 594 597 594 597 654 619 c 0,21,22
 708 640 708 640 747 681 c 128,-1,23
 786 722 786 722 786 779 c 0,24,25
 786 878 786 878 732 922 c 128,-1,26
 678 966 678 966 552 966 c 2,27,-1
 297 966 l 1,28,-1
 297 597 l 1,29,-1
 551 597 l 2,19,20
620 88 m 2,30,31
 745 88 745 88 799 124 c 128,-1,32
 853 160 853 160 863 218 c 0,33,34
 868 248 868 248 868 276 c 0,35,36
 868 306 868 306 860.5 348.5 c 128,-1,37
 853 391 853 391 814 432 c 128,-1,38
 775 473 775 473 743 485.5 c 128,-1,39
 711 498 711 498 625 504 c 1,40,-1
 297 504 l 1,41,-1
 297 88 l 1,42,-1
 620 88 l 2,30,31
EndSplineSet
Substitution2: "'ss02' Style Set 2 lookup 18 subtable" uni0432.1
Substitution2: "'ss03' Style Set 3 lookup 17 subtable" uni0432.loclSRB
Substitution2: "'locl' Localized Forms in Cyrillic lookup 10 subtable" uni0432.1
Substitution2: "'locl' Localized Forms in Cyrillic lookup 9 subtable" uni0432.loclSRB
Substitution2: "'locl' Localized Forms in Cyrillic lookup 8 subtable" uni0432.loclSRB
EndChar

StartChar: uni0433
Encoding: 1075 1075 457
Width: 772
GlyphClass: 2
Flags: W
LayerCount: 2
Fore
SplineSet
293 0 m 1,0,-1
 188 0 l 1,1,-1
 188 1039 l 1,2,-1
 738 1039 l 1,3,-1
 738 953 l 1,4,-1
 293 953 l 1,5,-1
 293 0 l 1,0,-1
EndSplineSet
Substitution2: "'ss02' Style Set 2 lookup 18 subtable" uni0433.1
Substitution2: "'ss03' Style Set 3 lookup 17 subtable" uni0433.loclSRB
Substitution2: "'locl' Localized Forms in Cyrillic lookup 10 subtable" uni0433.1
Substitution2: "'locl' Localized Forms in Cyrillic lookup 9 subtable" uni0433.loclSRB
Substitution2: "'locl' Localized Forms in Cyrillic lookup 8 subtable" uni0433.loclSRB
EndChar

StartChar: uni0434
Encoding: 1076 1076 458
Width: 1056
GlyphClass: 2
Flags: W
LayerCount: 2
Fore
SplineSet
937 -308 m 1,0,-1
 832 -308 l 1,1,-1
 832 0 l 1,2,-1
 151 0 l 1,3,-1
 151 -308 l 1,4,-1
 47 -308 l 1,5,-1
 47 88 l 1,6,-1
 133 88 l 1,7,8
 283 279 283 279 283 647 c 2,9,-1
 283 1039 l 1,10,-1
 862 1039 l 1,11,-1
 862 88 l 1,12,-1
 937 88 l 1,13,-1
 937 -308 l 1,0,-1
758 88 m 1,14,-1
 758 953 l 1,15,-1
 387 953 l 1,16,-1
 387 645 l 2,17,18
 387 265 387 265 260 88 c 1,19,-1
 758 88 l 1,14,-1
EndSplineSet
Substitution2: "'ss02' Style Set 2 lookup 18 subtable" uni0434.1
Substitution2: "'ss03' Style Set 3 lookup 17 subtable" uni0434.loclSRB
Substitution2: "'locl' Localized Forms in Cyrillic lookup 10 subtable" uni0434.1
Substitution2: "'locl' Localized Forms in Cyrillic lookup 9 subtable" uni0434.loclSRB
Substitution2: "'locl' Localized Forms in Cyrillic lookup 8 subtable" uni0434.loclSRB
EndChar

StartChar: uni0435
Encoding: 1077 1077 459
Width: 1054
GlyphClass: 1
Flags: W
LayerCount: 2
Fore
SplineSet
554 -12 m 0,0,1
 343 -12 343 -12 223 139 c 0,2,3
 114 281 114 281 114 514 c 0,4,5
 114 737 114 737 220 887 c 0,6,7
 338 1051 338 1051 537 1052 c 0,8,9
 767 1052 767 1052 863 894 c 0,10,11
 956 740 956 740 956 512 c 0,12,13
 956 495 956 495 953.5 491.5 c 128,-1,14
 951 488 951 488 951 486 c 1,15,-1
 223 486 l 1,16,-1
 223 460 l 2,17,18
 223 302 223 302 301 198 c 0,19,20
 393 75 393 75 553 75 c 0,21,22
 661 75 661 75 729 101 c 0,23,24
 805 126 805 126 861 190 c 1,25,-1
 932 134 l 1,26,27
 845 53 845 53 763 23 c 0,28,29
 677 -12 677 -12 554 -12 c 0,0,1
857 579 m 1,30,-1
 857 605 l 2,31,32
 857 755 857 755 784 849 c 0,33,34
 701 954 701 954 537 954 c 0,35,36
 389 954 389 954 304 845 c 0,37,38
 226 746 226 746 223 579 c 1,39,-1
 857 579 l 1,30,-1
EndSplineSet
EndChar

StartChar: uni0436
Encoding: 1078 1078 460
Width: 1447
GlyphClass: 2
Flags: W
LayerCount: 2
Fore
SplineSet
1386 0 m 1,0,-1
 1259 0 l 1,1,2
 1166 270 1166 270 1127 387 c 0,3,4
 1100 471 1100 471 1057 507.5 c 128,-1,5
 1014 544 1014 544 945 544 c 2,6,-1
 780 544 l 1,7,-1
 780 0 l 1,8,-1
 673 0 l 1,9,-1
 673 544 l 1,10,-1
 510 544 l 2,11,12
 441 544 441 544 397.5 507.5 c 128,-1,13
 354 471 354 471 326 387 c 2,14,-1
 195 0 l 1,15,-1
 68 0 l 1,16,-1
 232 445 l 1,17,18
 288 610 288 610 392 610 c 1,19,-1
 140 1039 l 1,20,-1
 281 1039 l 1,21,-1
 509 644 l 1,22,-1
 673 644 l 1,23,-1
 673 1039 l 1,24,-1
 780 1039 l 1,25,-1
 780 644 l 1,26,-1
 945 644 l 1,27,-1
 1172 1039 l 1,28,-1
 1314 1039 l 1,29,-1
 1063 610 l 1,30,31
 1161 610 1161 610 1222 443 c 2,32,-1
 1386 0 l 1,0,-1
EndSplineSet
Substitution2: "'ss02' Style Set 2 lookup 18 subtable" uni0436.1
Substitution2: "'ss03' Style Set 3 lookup 17 subtable" uni0436.loclSRB
Substitution2: "'locl' Localized Forms in Cyrillic lookup 10 subtable" uni0436.1
Substitution2: "'locl' Localized Forms in Cyrillic lookup 9 subtable" uni0436.loclSRB
Substitution2: "'locl' Localized Forms in Cyrillic lookup 8 subtable" uni0436.loclSRB
EndChar

